<mxfile host="app.diagrams.net" agent="Mozilla/5.0 (Windows NT 10.0; Win64; x64) AppleWebKit/537.36 (KHTML, like Gecko) Chrome/128.0.0.0 Safari/537.36" version="24.7.16">
  <diagram id="C5RBs43oDa-KdzZeNtuy" name="Page-1">
    <mxGraphModel dx="1753" dy="1617" grid="1" gridSize="10" guides="1" tooltips="1" connect="1" arrows="1" fold="1" page="1" pageScale="1" pageWidth="827" pageHeight="1169" math="0" shadow="0">
      <root>
        <mxCell id="WIyWlLk6GJQsqaUBKTNV-0" />
        <mxCell id="WIyWlLk6GJQsqaUBKTNV-1" parent="WIyWlLk6GJQsqaUBKTNV-0" />
        <mxCell id="zkfFHV4jXpPFQw0GAbJ--0" value="Restaurante" style="swimlane;fontStyle=0;align=center;verticalAlign=top;childLayout=stackLayout;horizontal=1;startSize=26;horizontalStack=0;resizeParent=1;resizeLast=0;collapsible=1;marginBottom=0;rounded=0;shadow=0;strokeWidth=1;" parent="WIyWlLk6GJQsqaUBKTNV-1" vertex="1">
          <mxGeometry y="106" width="280" height="190" as="geometry">
            <mxRectangle x="230" y="140" width="160" height="26" as="alternateBounds" />
          </mxGeometry>
        </mxCell>
        <mxCell id="zkfFHV4jXpPFQw0GAbJ--1" value="- nombre : string" style="text;align=left;verticalAlign=top;spacingLeft=4;spacingRight=4;overflow=hidden;rotatable=0;points=[[0,0.5],[1,0.5]];portConstraint=eastwest;" parent="zkfFHV4jXpPFQw0GAbJ--0" vertex="1">
          <mxGeometry y="26" width="280" height="26" as="geometry" />
        </mxCell>
        <mxCell id="zkfFHV4jXpPFQw0GAbJ--2" value="- ubicacion :string" style="text;align=left;verticalAlign=top;spacingLeft=4;spacingRight=4;overflow=hidden;rotatable=0;points=[[0,0.5],[1,0.5]];portConstraint=eastwest;rounded=0;shadow=0;html=0;" parent="zkfFHV4jXpPFQw0GAbJ--0" vertex="1">
          <mxGeometry y="52" width="280" height="26" as="geometry" />
        </mxCell>
        <mxCell id="zkfFHV4jXpPFQw0GAbJ--3" value="- menu:Menu" style="text;align=left;verticalAlign=top;spacingLeft=4;spacingRight=4;overflow=hidden;rotatable=0;points=[[0,0.5],[1,0.5]];portConstraint=eastwest;rounded=0;shadow=0;html=0;" parent="zkfFHV4jXpPFQw0GAbJ--0" vertex="1">
          <mxGeometry y="78" width="280" height="26" as="geometry" />
        </mxCell>
        <mxCell id="MIntQTgX8ANp2xKSaKh1-80" value="- pedidosHistorial : List&lt;Orden&gt;" style="text;align=left;verticalAlign=top;spacingLeft=4;spacingRight=4;overflow=hidden;rotatable=0;points=[[0,0.5],[1,0.5]];portConstraint=eastwest;rounded=0;shadow=0;html=0;" vertex="1" parent="zkfFHV4jXpPFQw0GAbJ--0">
          <mxGeometry y="104" width="280" height="26" as="geometry" />
        </mxCell>
        <mxCell id="MIntQTgX8ANp2xKSaKh1-1" value="- empleados: List&lt;Empleado&gt;" style="text;align=left;verticalAlign=top;spacingLeft=4;spacingRight=4;overflow=hidden;rotatable=0;points=[[0,0.5],[1,0.5]];portConstraint=eastwest;rounded=0;shadow=0;html=0;" vertex="1" parent="zkfFHV4jXpPFQw0GAbJ--0">
          <mxGeometry y="130" width="280" height="26" as="geometry" />
        </mxCell>
        <mxCell id="zkfFHV4jXpPFQw0GAbJ--4" value="" style="line;html=1;strokeWidth=1;align=left;verticalAlign=middle;spacingTop=-1;spacingLeft=3;spacingRight=3;rotatable=0;labelPosition=right;points=[];portConstraint=eastwest;" parent="zkfFHV4jXpPFQw0GAbJ--0" vertex="1">
          <mxGeometry y="156" width="280" height="8" as="geometry" />
        </mxCell>
        <mxCell id="zkfFHV4jXpPFQw0GAbJ--5" value="+ verHistorialPedidos(numeroMesa):List&lt;Orden&gt;" style="text;align=left;verticalAlign=top;spacingLeft=4;spacingRight=4;overflow=hidden;rotatable=0;points=[[0,0.5],[1,0.5]];portConstraint=eastwest;" parent="zkfFHV4jXpPFQw0GAbJ--0" vertex="1">
          <mxGeometry y="164" width="280" height="26" as="geometry" />
        </mxCell>
        <mxCell id="zkfFHV4jXpPFQw0GAbJ--6" value="Mesero" style="swimlane;fontStyle=0;align=center;verticalAlign=top;childLayout=stackLayout;horizontal=1;startSize=26;horizontalStack=0;resizeParent=1;resizeLast=0;collapsible=1;marginBottom=0;rounded=0;shadow=0;strokeWidth=1;" parent="WIyWlLk6GJQsqaUBKTNV-1" vertex="1">
          <mxGeometry x="80" y="314" width="240" height="100" as="geometry">
            <mxRectangle x="130" y="380" width="160" height="26" as="alternateBounds" />
          </mxGeometry>
        </mxCell>
        <mxCell id="zkfFHV4jXpPFQw0GAbJ--9" value="" style="line;html=1;strokeWidth=1;align=left;verticalAlign=middle;spacingTop=-1;spacingLeft=3;spacingRight=3;rotatable=0;labelPosition=right;points=[];portConstraint=eastwest;" parent="zkfFHV4jXpPFQw0GAbJ--6" vertex="1">
          <mxGeometry y="26" width="240" height="8" as="geometry" />
        </mxCell>
        <mxCell id="MIntQTgX8ANp2xKSaKh1-44" value="+ asignarMesa(idOrden,numeroMesa):void" style="text;align=left;verticalAlign=top;spacingLeft=4;spacingRight=4;overflow=hidden;rotatable=0;points=[[0,0.5],[1,0.5]];portConstraint=eastwest;" vertex="1" parent="zkfFHV4jXpPFQw0GAbJ--6">
          <mxGeometry y="34" width="240" height="26" as="geometry" />
        </mxCell>
        <mxCell id="MIntQTgX8ANp2xKSaKh1-67" value="+ cargarOrden(Orden):void" style="text;align=left;verticalAlign=top;spacingLeft=4;spacingRight=4;overflow=hidden;rotatable=0;points=[[0,0.5],[1,0.5]];portConstraint=eastwest;" vertex="1" parent="zkfFHV4jXpPFQw0GAbJ--6">
          <mxGeometry y="60" width="240" height="26" as="geometry" />
        </mxCell>
        <mxCell id="zkfFHV4jXpPFQw0GAbJ--13" value="Orden" style="swimlane;fontStyle=0;align=center;verticalAlign=top;childLayout=stackLayout;horizontal=1;startSize=26;horizontalStack=0;resizeParent=1;resizeLast=0;collapsible=1;marginBottom=0;rounded=0;shadow=0;strokeWidth=1;" parent="WIyWlLk6GJQsqaUBKTNV-1" vertex="1">
          <mxGeometry x="370" y="284" width="160" height="268" as="geometry">
            <mxRectangle x="340" y="380" width="170" height="26" as="alternateBounds" />
          </mxGeometry>
        </mxCell>
        <mxCell id="MIntQTgX8ANp2xKSaKh1-43" value="- id :int" style="text;align=left;verticalAlign=top;spacingLeft=4;spacingRight=4;overflow=hidden;rotatable=0;points=[[0,0.5],[1,0.5]];portConstraint=eastwest;" vertex="1" parent="zkfFHV4jXpPFQw0GAbJ--13">
          <mxGeometry y="26" width="160" height="26" as="geometry" />
        </mxCell>
        <mxCell id="zkfFHV4jXpPFQw0GAbJ--14" value="- pedidos: List&lt;PlatoPedido&gt;" style="text;align=left;verticalAlign=top;spacingLeft=4;spacingRight=4;overflow=hidden;rotatable=0;points=[[0,0.5],[1,0.5]];portConstraint=eastwest;" parent="zkfFHV4jXpPFQw0GAbJ--13" vertex="1">
          <mxGeometry y="52" width="160" height="26" as="geometry" />
        </mxCell>
        <mxCell id="MIntQTgX8ANp2xKSaKh1-13" value="- numeroMesa :int" style="text;align=left;verticalAlign=top;spacingLeft=4;spacingRight=4;overflow=hidden;rotatable=0;points=[[0,0.5],[1,0.5]];portConstraint=eastwest;" vertex="1" parent="zkfFHV4jXpPFQw0GAbJ--13">
          <mxGeometry y="78" width="160" height="26" as="geometry" />
        </mxCell>
        <mxCell id="MIntQTgX8ANp2xKSaKh1-14" value="- paraLlevar :bool" style="text;align=left;verticalAlign=top;spacingLeft=4;spacingRight=4;overflow=hidden;rotatable=0;points=[[0,0.5],[1,0.5]];portConstraint=eastwest;" vertex="1" parent="zkfFHV4jXpPFQw0GAbJ--13">
          <mxGeometry y="104" width="160" height="26" as="geometry" />
        </mxCell>
        <mxCell id="MIntQTgX8ANp2xKSaKh1-17" value="- estado :EstadoPedido" style="text;align=left;verticalAlign=top;spacingLeft=4;spacingRight=4;overflow=hidden;rotatable=0;points=[[0,0.5],[1,0.5]];portConstraint=eastwest;" vertex="1" parent="zkfFHV4jXpPFQw0GAbJ--13">
          <mxGeometry y="130" width="160" height="26" as="geometry" />
        </mxCell>
        <mxCell id="MIntQTgX8ANp2xKSaKh1-16" value="- hora :time" style="text;align=left;verticalAlign=top;spacingLeft=4;spacingRight=4;overflow=hidden;rotatable=0;points=[[0,0.5],[1,0.5]];portConstraint=eastwest;" vertex="1" parent="zkfFHV4jXpPFQw0GAbJ--13">
          <mxGeometry y="156" width="160" height="26" as="geometry" />
        </mxCell>
        <mxCell id="MIntQTgX8ANp2xKSaKh1-18" value="- idMesero:int" style="text;align=left;verticalAlign=top;spacingLeft=4;spacingRight=4;overflow=hidden;rotatable=0;points=[[0,0.5],[1,0.5]];portConstraint=eastwest;" vertex="1" parent="zkfFHV4jXpPFQw0GAbJ--13">
          <mxGeometry y="182" width="160" height="26" as="geometry" />
        </mxCell>
        <mxCell id="MIntQTgX8ANp2xKSaKh1-19" value="- total:float" style="text;align=left;verticalAlign=top;spacingLeft=4;spacingRight=4;overflow=hidden;rotatable=0;points=[[0,0.5],[1,0.5]];portConstraint=eastwest;" vertex="1" parent="zkfFHV4jXpPFQw0GAbJ--13">
          <mxGeometry y="208" width="160" height="26" as="geometry" />
        </mxCell>
        <mxCell id="zkfFHV4jXpPFQw0GAbJ--15" value="" style="line;html=1;strokeWidth=1;align=left;verticalAlign=middle;spacingTop=-1;spacingLeft=3;spacingRight=3;rotatable=0;labelPosition=right;points=[];portConstraint=eastwest;" parent="zkfFHV4jXpPFQw0GAbJ--13" vertex="1">
          <mxGeometry y="234" width="160" height="8" as="geometry" />
        </mxCell>
        <mxCell id="MIntQTgX8ANp2xKSaKh1-15" value="+ calcularTotal()" style="text;align=left;verticalAlign=top;spacingLeft=4;spacingRight=4;overflow=hidden;rotatable=0;points=[[0,0.5],[1,0.5]];portConstraint=eastwest;" vertex="1" parent="zkfFHV4jXpPFQw0GAbJ--13">
          <mxGeometry y="242" width="160" height="26" as="geometry" />
        </mxCell>
        <mxCell id="zkfFHV4jXpPFQw0GAbJ--17" value="Menu" style="swimlane;fontStyle=0;align=center;verticalAlign=top;childLayout=stackLayout;horizontal=1;startSize=26;horizontalStack=0;resizeParent=1;resizeLast=0;collapsible=1;marginBottom=0;rounded=0;shadow=0;strokeWidth=1;" parent="WIyWlLk6GJQsqaUBKTNV-1" vertex="1">
          <mxGeometry x="320" y="120" width="160" height="100" as="geometry">
            <mxRectangle x="550" y="140" width="160" height="26" as="alternateBounds" />
          </mxGeometry>
        </mxCell>
        <mxCell id="zkfFHV4jXpPFQw0GAbJ--19" value="- platos: List&lt;Plato&gt;" style="text;align=left;verticalAlign=top;spacingLeft=4;spacingRight=4;overflow=hidden;rotatable=0;points=[[0,0.5],[1,0.5]];portConstraint=eastwest;rounded=0;shadow=0;html=0;" parent="zkfFHV4jXpPFQw0GAbJ--17" vertex="1">
          <mxGeometry y="26" width="160" height="26" as="geometry" />
        </mxCell>
        <mxCell id="zkfFHV4jXpPFQw0GAbJ--23" value="" style="line;html=1;strokeWidth=1;align=left;verticalAlign=middle;spacingTop=-1;spacingLeft=3;spacingRight=3;rotatable=0;labelPosition=right;points=[];portConstraint=eastwest;" parent="zkfFHV4jXpPFQw0GAbJ--17" vertex="1">
          <mxGeometry y="52" width="160" height="8" as="geometry" />
        </mxCell>
        <mxCell id="zkfFHV4jXpPFQw0GAbJ--24" value="+ AgregarPlato(Plato):void" style="text;align=left;verticalAlign=top;spacingLeft=4;spacingRight=4;overflow=hidden;rotatable=0;points=[[0,0.5],[1,0.5]];portConstraint=eastwest;" parent="zkfFHV4jXpPFQw0GAbJ--17" vertex="1">
          <mxGeometry y="60" width="160" height="26" as="geometry" />
        </mxCell>
        <mxCell id="MIntQTgX8ANp2xKSaKh1-0" value="" style="shape=image;verticalLabelPosition=bottom;labelBackgroundColor=default;verticalAlign=top;aspect=fixed;imageAspect=0;image=data:image/png,iVBORw0KGgoAAAANSUhEUgAAAdcAAAIECAYAAABLxmTdAAAAAXNSR0IArs4c6QAAAARnQU1BAACxjwv8YQUAAAAJcEhZcwAADsMAAA7DAcdvqGQAAP+lSURBVHhe7J0JXFTl+sd/MAOigKJimoqKqIAkVpqUKSli1JUUEQFxFLdscUlTCXD9p1h66aZlEpZrmQUuQYrdVEzNLUDBjSVAEVAEYRACBGbO+b9nZoBh5pyZwcal7vv9XLpzznnX53ne9znngPMzYQmgUCgUCoViNExV/0+hUCgUCsVI0ORKEUYuh1z1kUKhUCiGozO5MndScGjvXsTGxpKfvThwJo+c/RMpuzdgf4ZMWegBYYqOY8uXx1DIqE40g0HR8S348lih6rhlMNLL+OmrSKz9eBN+OHcbdX+xvYdJdfw8eIQdVx0Zxp85x/HNxrVYvfZTbD90GaV/KQPy24a5E4vglyT4Pp/XQfqpjsc8jzDVgR6YO7h4aB/27t2HH3/+HXlVqvMGUY34eR4IO15L2inC8S1f4phWUKmV+TtB7JJyaK/CLgcO/YZMKb3VoVD+LuhMrpUJqxC0YjfOnD+P8+Tn92tFZMHXQlqYhzuVf22hs9UlKCgoQQ3vb3xZVJcUoKCkRnXcAmQpWPO6D/5z2QQ2FiVI3HkAGTI97dWewOLB/thZqjp+hDDSfGTml6uO9FGH9K2BGPLa/+HUPWs81V6GjG/fxuS1F9GiW51m8+WzDWl3XyK6rdyISXYP+HKDkSI/M191oIfKBKwIWo7dp0/jlx3z4f6MD75MN3RGDKT5mcgvJ4HEVqOkoAAlWkGlVubvBLHLqqAVxC5ncPyHZXjd9TVsuNzCm9rHGNukc5xYPBj+j6dzCuWxIlpFUH3WojZ1DzZXTiZPgQsx5tVX4fl8d8BEjKqC62D7uKFfe6AseRciVqzH1/EXUNn1ebh2bQ229Dfs3J+NspOfYGXMPbiOckHd6WhERGzEzoQrkPcejP621cgrsoLrcz1hyRbhVHQEIjbuRMIVOXoP7g/b6jwUWbni+Z6WYMpTsefjVVgX/QOOZbLoPag/OpmTLfPWMUTvvo7Bg3urRkzOFf+ItRG1mBX/KWa8MhJveL+AziQ/sOUN7bVC3s+RWLbqc/xwqgRdBvfA9W/+jej9Scj/swTFjANe6GuNcq15tULZbzux/0Ytrm1fg8iYq2g9YADuJ6xB+Lo9SBU9g5ec2kNUnYWDm9Zh/aat2HsiD1bPuMGhXfMEJb+ViI3LViE6IQdik1wcLn4ei3ydyeDLkLwrAivWf434C5Xo+rwrurY2UdUi9XK+QFBwCgIO/xdr/YZi8AsvY7TfTAQN7wyRiQmpnoxdESuw/ut4XKjsiuddu6K1iUzvfAd3KkexytbE2Ejdsx5fJBbibn4BiLHRv5MYpWTuB27UIfObCKzfcQqVPd0wsEsr1chUyG8hceMyrIpOQI7YBLmHixG0yFfvvEigYc/mSkz+6WuETApEn0vL8UmeB2Z6dObxQ2uYQI5biRvJnKKRkCOGSe5hFD//HnydRCjPK4KV63Poacnwl3E2RTmJ649XrUP0D8eQyfbGoP6dYE5uKJrZacgg2KmNkde2bCl+IzdvN+oy8U3Eeuw4VYmebgOhbhbmzglsjSlAz4E90Ib44krMJpw1Gwyn9lK9dZvs8hUW+/uh+4UViC4dgxnunbiF90C+dmFPYfO69di0dS9O5FnhGTcHtMMdnNgag4KeA9GjjQlkV2Kw6awZ3Eg8c37fn12Gk5+sRMw9VwxrdQabtOrz2WEAROe3YH30fiTl/4mSYgYOL/SFdTnfuFXzpVD+Qeh9LKm/lYwfudfCe39CchH3uq0GybsjcSC9HvK8bZgxLQZtJSuw1E+MXZI5iC1hFK98Ny+cjo/zhmOG70BY//E5JKScyGs23vRsg4yUPNTdTsSWqKMoZOTI+lyCaTEieM1+E55tMpCSV4fbiVsQdbSQbNg3sHXqRHxR4Y7Z8yVwvhwO7/nxkJKRMLcu4JdfLijG2YCp7XCM7n8Ky4NWYf/Ve+SZhYNpaq88FiHvnYXzwjVYMrY3xPI26OJoD9tW1uju4gqXHm3B8M5LhqLjm7Fg2ipcdJqIf5nFYprHKISn9EegjzUOvvM+viMbiDw/DZnmw/BmeDgCLGIwM+xHVCrGoEKejU1TpyPOejxmeDH4dksiub9XXEDethnEDm0hWbEUfuJdkMyJVVxRwqD4vweR9sI0THcmdxakvExWhzqZDKwpcaM8D9tmTENMWwlWLPWDeJcEc2JLDJivFYoabEPavLF1KiZ+UQH32fMhcb6McO/5iJdyr443473gZTjXyw+B/S4hfFakYlRNyJG9aSqmx1lj/AwvMN9uQaJiYvrmpUkdqmvkaGNFbqoE4kuevQlTp8fBevwMeDHfYouyI2Ki20jcEoWjhcJl5De2YurEL1DhPhvzJc64HO6N+fEkmjTtVK8orkTIttxr6M3vIXjZOfTyC0S/S+GYFZmmqqSEyT+CqOhjuKUIxPtI+W4dYq+Sxg2oq4SFvL4W5dmJOH6tNVwGdIXogX1tiYK0TJgPexPh4QGwiJmJsB9JdDL5OBIVjWPKQeJ+yndYF3uVfFL6feH0j5E3fAZ8B1ojn7c+31wuo00XR9jbtoJ1dxe4uvRAW0Zg3BTKPxC9yZW5m4Gzp0/j9OlzyCAbWxNksz8UgyS7IbCXpiOrxgHOVueQeEG5K5nY+mDp6gCMGOqE+/+NQ87IxVg2YTjcJyzG8in9IVaUIjCFOByXg5GLl2HCcHdMWLwcU/o3XiUJNB7fpw1H6JoguL/khXciZqHbkTicuQ+IBy/B/v1LVCVViAdgSdx/scr5ApaNdIb7onjkq7/BFlvDislFckoxOgz1wgudrdFvuBu5Y+8E1zG+GO3SFncF52WKHpNWIyJwFHxnesPO0hNL1wbB02cm3uhxHenXZRA5TsTCqa4wLcpHrS3ZCAvzUKpmNqbkCBLSX8bcUB+4e4dg61IPKB5WmGIcikmC3RB7SNOzUOPgDKtziYo6ShjcLZGiTUdbtCFHVfEL8dJzz2OAXUcMDD2P+8WHEJNkhyH2UqRn1cDB2QrnEsmNh9752jQFAXML8d+nYXjoGgS5vwSvdyIwq9sRxHHG5uYetBbrJB54fU4gBhdkKOs0wJTgSEI6Xp4bCh93b4RsXQoPbmJ656WCPKVtf282gr09EPbHRIRN641SXj/UouRIAtJfnotQH3d4h2zFUkVH6jACZcjTbPz3SBseijVB7njJ6x1EzOqGI3FncF/LTk1LgxGyLYdpDwStXQeJx+uYEzgYBRmZyvOGYEjdqiMIfbE/+rlOQfIb3+KzcTbC49Hr645wnrgQU11NUZRfC9uuIhTm6XtlawJbn6VYHTACQ/s/BUeh+jxzsew3HG492qCT6xj4jnZB27s67Eih/MPQm1xbuUqwbsMGbPg0ApIBTUmPu6OWSisgq7iFzIwMZGQUws4/FAHPKMuYWrZDO8VHBvekf8LKRm0TV4e5B+mfVrCx4R8KUy5FpaUN2qu6Ftl2RLvaKlSr53lNbAZCsj4eqec/QpeYxYg8Xae6QLDyxsa45eh1YgGGPReEHdmavzvWNS8TmIqUAzExM4OZWAwRN2wTMczMWJCHcNSlRsLLbRI2HE7C1bxy1LMs1P8lMXvvHqos26ODmfKYa0MBK4W0QoaKW5mkT9JvoR38QwOU1xSI0cWuC6py/wD3AsFy7GdIupyGA3P6g6mtI9WlqJBV4FYmN+YMFNr5IzTgGQPmqwZTDmmlJWyajI2O7WpRpTB209whagVzUw0HsPdwr8oS7ZsmpryB0jsvFaKnMehfPpiybC9Szn+KMZ1NBPwgwr17VbBs3wHKnszQYMImWIEyDMqllbC0aa+6uRPBtmM71FZVg9FhJ0HbcpiYosks5jDlgkAdXa889dXlsHwV/07JwR+/vI36bzbjvySXPbiv65Aa6QW3SRtwOOkq8srrSWxywalrkKawbNdOZS+h+gQD5qLTjhTKPwy9yVUYEbr1tYe5hQskIWEICwtDaMhseHQTqa43IEY3h+4ovZCEAm69kSecjIw7ZJtTIe4Gh+6luJBUAOVlsvDuNG3cYjtH9KpIRZLq8VN66gyy+j6LAdyDSFUOzp7NUZxvgCm9jutSZX3zrv3Q24ZsHOp/xyKvg7mTH1buPolo9yTsjOf+6MYcZqI63Ff8TY+h8+JDjtzDB3Bz1EfYFrkK816zVz6VqiHqao/u1em4fJvMh5Ei+WK28o+RRN3Q194cFi4ShJA+w8JCETLbQ1GngY7eU/Bq9mas3H9T6w+YRN36wt7cAi6SEMWYw0JDMNujmwHzVUNsB8deFUhNylf4ghgbZ7L64lmFsfUg6gr77tVIv3yb1GUgTb6IbG6QBsxLgbgzXL3+Bc8X+6C9wtRCfjBHV/vuqE6/DKUJk3FR0ZE6IoEyYtg59kJFapLqbYYUp85koe+zA9CK105KBG1rACZWVrC4W4hCcn/HFJ/C2Qf8K/t2Q9/H/IHH8cU3JN4f1NfyXBw+cBOjPtqGyFXz8Jq9yq8mVrCyuItC5SBx6mwG/x/ICdXXgbmZCHWqQPsrdqRQ/m7oTK7cHWjdL+/jOScnODk5Y+D03aorStqNIxulVRReHzkBksm+8ByxAHGV3E2sKXnKIT+qch3GL8bbsk8wethrGO02GqFHy0jPDWU6YPzityH7ZDSGvTYabqNDobxM7oS53yXa+CBskQU2e72MMWNHYNiiHEyKeAtOZAOuTfoM06Z9pupFCZO/F7NfdMUrb4zDqy9NxS/PL8O8Ya0a25Olb4TvEE/4BU7AB6ccMcGrO3mwcYLbgCxsCHgDMzdfgiXvvMiTW8OYOExFis/Km3XuCZZcE4nQa4Qn2h8OweQpfpBsy0FrsrmYqj8YWHtj3swaRHqNwhjPcfhPvi06mXFttsM4stlYRb2OkRMkmOzriREL4pR1VJg+5YeN307HvZXuGODuDR/vkfDbIoXrM10hajeOJB8rRL0+EhMkk+HrOQILiDP0z/cymMZ52cAnbBEsNnvh5TFjMWLYIuRMisBbTuLmcydeE4k1bzas4T1vJmrIk82oMZ4Y95982Hbinhv1z4uzpZm56i2AGkLxZe09DzNrIuE1agw8x/0H+badoDAheXoyJW1xwxQqY+MThkUWm+H18hiMHTEMi3ImIeItJ7B8dmpAwLbq/Skgn8UkBtQROYxFYJ8EzH7lVYz2/wqlT3fUGqsCnrrN7GLaGb6zXkfed9/imuUD+jq6EsM82+NwyGRM8ZNgW05rknhJ4yIHjA3sg4TZr+DV0f74qvRpdFQOkoxPze+iXhjBV19wLmZwchuArA0BeGPmZlwSGDeF8k+k5V9/yNzGF6+540rIFUR5cneudSjNycCNKkv0cHRAJ6GbWXklbmbkosbWEY6dLVQnm5BX3kRGbg1sHR3Bcxn3i7OQeYtB535O6ML90lEXtSXIyboNmW1v9HnaijzHNEcmvY70/Do81Yf01dBWXSly0m/D3KE/7Ky4XcLAefEgk97AH1JrOPTuSJ4b+JBBej0LZVYOcNBsmBtHxg1UWfaAo0MnrSdfJdW4k52NW1UW6ObYD0+p2auuNAcZN6pg2cOxsW3D5qvG/WJkZd4C07kfnPQauzlcX1llVnDQHLtB8+JDwA8yKa5nlcHKQYdvBMvcR3FWJm4xndHPqYvid9gcvHZSg8+2BiGX4kZGKSz79GlRHOnjwXzNQHrjD0itHdC7o3p0ysn5DJRa9kEfnYMksctbXwjOf+m4be6A/nZWihvuB7YjhfI3omXJVXYJW96ei3WJ3bH23LcIeEpjU6ZQKBQKhdLSJ9f7uJ2eherO/eHQQfXXCxQKhUKhUJpBVXEoFAqFQjEy9L0uhUKhUChGhiZXCoVCoVCMDE2uFAqFQqEYGZpcKRQKhUIxMjS5UigUCoViZGhypVAoFArFyNDkSqFQKBSKkaHJlUKhUCgUI0OTK4VCoVAoRoYmVwqFQqFQjAxNrhQKhUKhGBmaXCkUyhONXK5QtqdQ/lboTK7ywt9xJKVIdWRcmKLj2PLlMRQyqhOUx0w14ud5IOx4rer4cSBHbnQQAjZlko+5iA4KwKbMx7+x/u/Eqpr9HzkMio5vwZfHClXHHAzuxAbjJcn3yH9A21fHz4NH2HHV0cOkaf0Ixkt1POZ5hKkOKP90dCbXP39ZjcnrT6qOjAtbXYKCghLUPGmaPLUnsHiwP3aWqo7/Z2Agzc9EfvnjdAiLmuLryCmuIR9rUHw9B8VPQIDojtVanFg8GP7/iIBRs/8joPbEYgz23wml5VhUlxSgoEStb1kG9iV2w8qNk2D3gO/YGGk+MvPLVUcPk6b1IxgvjBT5mfmqg/8FHvPaeMx7uWgVQfVZi9rUPfg8eyCWTHRG6W87sf9GLa5tX4PImKtoPWAA7iesQfi6PUgVPYOXnNpDVJ2Fg5vWYf2mrdh7Ig9Wz7jBoR1ZFeUX8c3aVfhkRwLOpJzH6UxTjBhsg7wiK7g+Z4f7p3fiwI06ZH4TgfU7TqGypxsGdmlF7vQE2mtEjtvHP8fyVZ9j/1UR2klPIdXkWTh1KMGJrTEo6DkQPdqYQHYlBpvOmsHNqSOYsmTsiliB9V/H40JlVzzv2hWtTVTNMSU4uWU9ovcnIf/PEhQzDnihrzXKk3chYsV6fB1/AZVdn4dr19ZoqMLB2yZbit92HsCNukx8E7EeO05VoqfbQHDTYopOIToiAht3JuCKvDcGu1jixsFNWLd+E7buPYE8q2fg5tAOxOjYuT8bZSc/wcqYe3AdZYe83Wux6pMdSDiTgvOnM2HafxCeunUIm9atx6ate3EizwrPuDnAWkrqHriBusxvELF+B05V9oTbwC4g3ashx63EjVi2KhoJOWKY5B5G8fPvwddZzD8neR5+jlyGVZ//gFMlXTBkkB3YPw5q9d2ObJe/7dyP7LKT+GRlDO498yzu/XSg6dh1FFxML2HPx6uwLvoHHMtk0XtQf3QyZ1Bycjt+ZLwx+xURTm7/EYz3LIxsm80TB5x5SExml+HkJysRc88Vrw7ooJwWc0fA/+0VdXhjrREZ8n6OJDb5HD+cKkGXIYPQ3eKeKlZ7otXNnxG5bBU+/+EUSroMRq/r32B99H4k5f+JkmIGDi84QH5BO15YhS9voPbadqyJjMHV1gMw4H4C1oSvw55UEZ55yQntRdXI4omDpohnFOOPu1mPK1tX4uOdJ1D81PMYZGeJmiwD/OD6Elqd2ayz/Ub7j2yrZywEnnU98oVeBsXO4B7X8c2/o7E/KR9/lhSDcXgBfdh8FFm54vmelmDKU7Fn/RdILLyL/AIo40MsvKbUkd9KxEbio+iEHIhNcnG4+Hks8nXWvfYJDOejuJuov7IVKz/eiRPFT+F5EuOWJgzKePcAgfXj9GdjvFgyt5C4kcw7OgE5YhPkHi5G0CJfrjeUk/3141XrEP3DMWSyvTGofyeYy7TXWLMx8syhVZn+tc7cOYGtMQXoObAH2pjIcCVmE86aDUY/nNFfV2sfcgF4Ylyep29tdMOdBJ59TtfYmvXrgLta9a0h5VvTT1U80F5uTJqtFWG4VzabsWDaKlx0moh/mcVimscohKf0R6CPNQ6+8z6+I8aT56ch03wY3gwPR4BFDGaG/YhK3EfiMgmi6v0QutAdZfv34rrVU2BuJ2JL1FEUMsq23wtehnO9/BDY7xLCZ0UqeuVvrwl59heYMv0ArMa/hbHmu/Dm1BXYe62eDDcfR6KiceyW8r3M/ZTvsC72KqmQh20zpiGmrQQrlvpBvEuCObElijIKTNugi6M9bFtZo7uLK1x6tAWTtw0zpsWgrWQFlvqJsUsyB7Elau97hNpkinB883sIXnYOvfwC0e9SOGZFppHyWfhcQsqLvDD7TU+0yUhBXm0+0jLNMezNcIQHWCBmZhh+JBPlXi9tXjgdH+cNxwzfgbA4vgySqHr4hS6Ee9l+7L1uhacsWeSnZcJ82JsIDw+ARcxMhJHKirrvBWPZuV7wC+yHS+GzEJkmUw1aiTx7E6ZOj4P1+BnwYr7FlkTVK2GBOZXHhuC9s85YuGYJxvYWo55sLnx9K+e+ENM/zsPwGb4Y2PZO82PrPGydOhFfVLhj9nwJnC+Hw3t+PKTK3rXgjwNl3Cyc/jHyhs+A70AbVWmCkP9VdfhirZHyWIS8dxbOC9dgydjeEHPh1Bir5YgNeQ9nnRdizZKx6C2Wo00XR9jbtoJ1dxe4uvSA5U3+eFH4Y8E0rLrohIn/MkPsNA+MCk9B/0AfWB98B+9/RxKMnD8OmlCOf+7kMJzvHYRZ7qX4LGgJ4ssN9IN1gZ721dA7Fv51bWjsyNt0gaO9LVpZd4eLqwt6tGVxO3ELoo4WkjZu8MeH0JpSR56NTVOnI856PGZ4Mfh2SyJ5fuLO61n7BIWP5k5G2PneCJrljtLPgrAkvpxU5fep0Pppihc5sjdNxfQ4a4yf4QXm2y1oXGI3tmLqxC9Q4T4b8yXOuBzujfnxUp41pobAHAxZ60z+EURFH4NySdxHynfrEHu13rC6XBm1fciaN8bL9K6NtmRd8u5zusam1q8Nb32BNf0ge7mRMTC5cpiix6TViAgcBd+Z3rCz9MTStUHw9JmJN8hdaPp1GUSOE7FwqitMi/JRa9sVosI8lDJVyCV3FQNGuKP/s554sbcMrZ9yULXZAGk7aC3WSTzw+pxADC7IUJzlb09xiUDuso8cQvrQuQj1cYd3yFaEDDeFrpeITPEhxCTZYYi9FOlZNXBwtsK5xAuqqxyW6DfcjTztdILrGF+MdmmLu4dikGQ3BPbSdGTVOMDZ6hwSLzSFvM42TXsgaO06SDxex5zAwSjIyARTeBhxOSOxeNkEDHefgMXLp6B/K0dMXDgVrqZFyK+1RVdRIfJUEzWx9cHS1QEYMbQ/LG6QO8wBI+De/1l4vtgbstZPwcFKBMeJCzHV1RRF+bWw7SpCYZ7yPYhpjyCsXSeBx+tzEDi4ABmZdYrzSjj7JSD95Sb7LfVQ3q8KzUlsbQUmNxkpxR0w1OsFdDYV7psMHD5LVyNgxFD070jCTO3YqfYgvk8bjtA1QXB/yQvvRMxCtyNxOHNfWVUT4Tgwga3PUqwOGIGh/TsqyuqHP9YaEVvDislFckoxOgz1wgud1ZeIGNZWDHKTU1DcYSi8XugMy37D4dajDTq5joHvaGfUHRaOF9Mek7A6IhCjfGfCmzxtei5diyBPH8x8oweup1+HTCQcB00oxx8Z7IGRUxchsNMZHL0oM8wPTzkb0L4KvWPhX9cGx451Pwx3I08qnVwxxnc0XGya7MzciheOD541pQ5TcgQJ6S9jbqgP3L1DsHWph+IpTP/aV6JYM5HB8Bg5FYsCO+HM0RTk8+4BtYLrpxGmBEcS0vHy3FD4uHsjZOtSKIswuBX/PdKGh2JNkDte8noHEbO64UjcGci01piiJQW65qB7revGkLpN+5AT5LwxzupZGy6wMTMkvpujvv91FKzPt6ZbvpcbmxYkVxOYisTKT2ZmMBOLIeJqm4hhZsaSu26gLjUSXm6TsOFwEq7mlaOeZcGy1nAdYIn974/DZP/x+KwiCFNe1ghCtbYhagVzU6XB+dtTXCKwuHevCpbtO8BMcWwGMiQV/A/6rFSKClkFbmVmICMjA4V2/ggNeEZ1lQ8WUmkFZBW3kEnKZ2QUws4/FAHPNHaku00TUzRNyxymxEjMPSn+tLKB2l7CTRSRXm6YtOEwkq7mobyem6dyoqaW7dBO1Ya16wBY7n8f4yb7Y/xnFQia8jLZOOqQGukFt0kbcDjpKvLK6xvrmpDkp6wqQitzU4WPmhC2n9CcrLw3Im55L5xYMAzPBe1Atly4bzJwtGsYOIfaMVMuRaWlDdqrLotsO6JdbRWqBdaZcByYwrJdO9Uc1dH1ooc/1hqx8sbGuOXodWIBhj0XhB3Z6kazgvfGOCzvdQILhj2HoB3ZqvMN6I6XRn+YkPVjJoZYuYAgJuuJVS4gwThowgQiM3PVRytYtbmPmupaw/xgUPsq9JblX9eGx46qGR50xgfPmlKHvXcPVZbt0UEZ1Ip9isPQtW8iMoPSuiawsmqD+zVVAj4V6dh/VLD3cK/KEu2bBqOKVQbl0kpY2rRvXJ+2HduhtqoabXTYSdccdK91go4lobcuoWkfEopxGz1rgyAUUzrGpr7/CceknjWtQP9ebmxakFz1IUfu4QO4OeojbItchXmv2Svf28v+wH9/tcCM9Svw7pKdOJn4fxhmpaigB4H2GhGhq313VGdcwW1iS0aajIvZqtcZ3KZjcReFheQOjCnGqbMZ4K6IuvWFvbkFXCQhCAsLQ1hoCGZ7dFPWacQcZqI6sqi4zyJ062sPcwsXSEJIeVInNGQ2PLqJFCU5DGuzCXE3B3QvvYCkAi6CydMjcfSt7MM4cHMUPtoWiVXzXoO95r2HAhn++O+vsJixHiveXYKdJxPxf5wh5bk4fOAmRn20DZGr5uE1/so8qOyXfhm3yVDU7Sc0J3mdOZz8VmL3yWi4J+1E/I3sB+pbbOeIXhWpSMpXrmLpqTPI6vssBvBW1xcHPAj43yDIDYO5kx9W7j6JaPck7IxX/wMUOerMneC3cjdORrsjaWe84qy5mQh1ioDRHy+6kOcaEgdyFF38Hbncw8W9ZFy4YQ/nvvkG+cGw9pXoLSuwrg2OHe7Pf83NIKojNweqJhtoWXw0R9TVHt2r03FZGdRIvpjdgrVP5l10Eb8rjYvkCzdg7+yCnrw+NRdcP42IusK+ezXSL98mXmMgTb4IZREx7Bx7oSI1CcopSnHqTBb6PjsAYj47qWjpXqOOiZUVLO4WQrkkTuFshsErQgOhGCe5T+faEI4pQ8fWkvhVYtheLrt9Eb+m3VHUMCY6k6spdxdHjKO4MzAld4zkR3VB8VmZ87knWHJNJEKvEZ5ofzgEk6f4QbItB61JXVOznnjxWSl2L1uO/wubgdEDXOG76RK5WzIlzZAfzbbJGZGY61OgPbW7HGvveZhZ/W94eYyB5xvrcEG5FklVB4wN7IOE2a/g1dH++Kr0aXQ0I+23G0cMaoWo10digmQyfD1HYEGcxi+dzJzgNiALGwLewMzNl2A5LhQhVlF4feQESCb7wnPEAjSrItQmucM2JXZqmha5OyQ2QofxWPy2DJ+MHobXRrthdOhR3Os5Ap7tDyNk8hT4SbYhpzXZdMhEm2zEIUbPF5+FdPcyLP+/MMwYPQCuvptwSd4LIzzb43DIZEzxk2BbTmsSUMSqzepy3RM/aezxCvvVkKfCUcR+4/6DfNtO4MzEPycp0jf6YoinHwInfIBTjhPg1bM3b99ac9c8tvFB2CILbPZ6GWPGjsCwRTmYFPEWnERqsdBYRygONONGDSH/C8ZaE7L0jfAd4gm/wAn44JQjJnh1b7KlLB0bfYfA0y8QEz44BccJXqSGGZzcBiBrQwDemLkZeWP446W5P0i/3GfVTTP3BGtKnCPqxR8HzSFxkb8dkhFe8HxlMa75fIDgPg4G+UF/+0320VtWzL+uDY6d7qZkqblhQNYGBLwxE5svyZt8IxQf4ubzIUZTril1rL0xb2YNecIZhTGe4/CffFt0MnTtE0xM8rFdMgJenq9g8TUffBBsjw4Ce4DQ+mnytTW8581ETaQXRo3xxLj/5MO2k/Ip1sYnDIssNsPr5TEYO2IYFuVMQsRbfZDFY6dGBOZgyFoXOYxFYJ8EzH7lVYz2/wqlT3fUGKsSvrqaZdrx2UOqf21c7c4fU4aOjT8myXXyw7umDdrL5cjbsxD+4XHKOsaEPFYblfqy6+y1nLtsreqYrdzD+vcKYL8vVx7eP/I26+D+b+WBAWi1p0l9KZtz6Qp7s7KC3TGuKzt5f43qgowtu36F/aP4vuq4idq72WxachqbzXNNQe1dNjv1MmlT3nCCvZudxianZbPCVfS02QwZW5F3hU3NKGIbRksmyl6/lsPeFZxoJbvHvxcb0GRI9m0Hd/bfOTJyUE/meo3NEa4sDOk39yr/vLTnRPrJvcSmkXFXqc78lb5r7mSyqRfT2dtNjQmiNw60EPa/PurLctlLaRlsEd+4OHtdSmMzml3k4iOVvXyzklVGjP54EURnHNSzVz58kR20/AIrLbjKpmWr28NAP+iNMzV0ldWzrg2LHWW51Ms32calpkZL4qM5XF9XedeirnVaf+VD9sVBy9kL0gL2KvFd83kL+FTH+mmAi6er2cWsdpEa9k5mKnsx/Xbz9cRjJ3VatteoISP+vPJHy2OSFx57GLI2hGLK0LG1JH45HmAvNxYm3H9UefbhILuEDd7+2GHqBjc7FnkpmXh64ffYPtleVcBY/ImdPo44EpyDb8dbqM79k5Dh0gZv+O8whZubHdi8FGQ+vRDffz0Z9hp3mpR/KjJcXT0cwfVROPfhs6o3R4+JR7auHx2yq6sxPLgeUec+xLOP1biUfwIPP7kqqEVJTiZuVojxVB9H2Fk/jGzAQJp7Dfc69kevZv8W9p9FbUkOMm9WQPxUHzjaWYPm1f8t6ooykAt7OGn+487HwqNY14+QuiJk5AL2Tpr/HpxCaTmPKLlSKBQKhfK/wz/3EY9CoVAolMcETa4UCoVCoRgZmlwpD46c+9d7FAqFQtFEZ3Jl7qTg0N69iI2NJT97ceBMHvcveZ8YKbAnAe77L/8XpfOY23sw+aVgxKi+v/eJhPsu2i1f4pjRnSN/jNJsAjyMdanW5j8zzo0hs9gUC3+fHZHK4z0KdCbXyoRVCFqxG2fOn8d58vP7tSIYXQrsMcsCNZe9MoTmMkqsTjmyfyoyXN17AvYffgr/rk/wyw+2GiUFBSgxunMMkGZ71HH9MCT61Nr8K3He8jX2qDCGzGJTLPx9toBHLY/3F6Xn/qYyoHol5zZXTsZPXy3EmFdfhefz3YnRS5qkwLo0bKxKKaxm8l8uQPKuCKxY/zXiL1Si6/Ou6NraBDJ1WaKneqMm4fPmskDd7iCBR17szomtiCnoiYE92sBEdgUxm87Cxa2fdr8OdwXlyTRliQaIzmPL+uayV32ty3nH3TDPkpNbmssoDe6E8mKVvBRbxlOXFZY5Y/jKq30LjpB0Wj/ol95ilHJjN2qvYfuaSMRcbY0BA+4jYU041u1JheiZl+DUXsQ/hlZlAu0zKj/Y49WJ/hjV6zpiFX5wUnWqRFtSrxPEnIQYj8ScoG2ULaHs9HZsvdoeg/rakDtBOfIORyFe6oy+VUcMkFjzgF1lMaxcn0NPS5Zf4ovcKGhKzNmp+Zsbn7bEW2vc1SXNZl+H33jkrioeQGJMCbHDb9vx9ZX2GKyyw42EzcQO/TGwm+p7hputSzyYnJmm35yBsw1tdq5oklFrQZwbvsaIbx/AD8W8+wIXjy2UiXM25SnfithdV3xyqGT6qvuh3dlN+PfO3xrLVPPJAJItk3d9CMpWqsfzKAzooNxz/w7yeEp49kxe6bmWScfxriVVj1yf/PFiCRNeGVNt+cphrc7w+q4l6C1efysZP3Kvhff+hOQioXdCmvJf1sjbNgPTYtpCsmIp/MS7IJkTS8ppSHaZi7VlgQTkxfKPRCH62C3yiXA/Bd+t49rT7NdGpzyZpiyRqZbsFSMw7gZMtWSUrIqa5KX46wpIInGJQmdfBEZAOs0Q6S1FmQWYtuoinCb+C2ax0+AxKhwp/QPhY30Q77z/HQlUgTEIti/kBzV4JfUEJMQEbdOAKSzrU/H58u24zH3dqOwadqzagqus2ECpuyIkbonC0UJGUOKLT2KuCeX4tCXeVJc5+KTZqnjkrh5EYqwRYgfmEr5YthWpCjtcxvYVX+Ea27SdqPNgcmY8flP7ild1GbWWxLnBa+yB/CAcjy2VieMvL9MTnw3IkLFrE5J6T8QktfXNG6O860OXbKVaPNs0ZS6FHNuTLI/XiPaeyS89J7AX8EnHCa3lRoTXrWHyldb8vmshepMrczcDZ0+fxunT55ChU/tOTf7LSY5DMUmwG2IPaXoWahycYXUukZTRlOzqrSELZAMznTJzfDSXHROWJ+ORJbLUkL1qe1dg3E1oySg1WJAp1lGXp2+d5Q1Aj/SWAlJm0uoIBI7yxUxvclfruRRrgzzhM/MN9Liejut1OsZgSPs88EnqORXrkBDjs40arYYGYuz9g9iXJiO5dR8SmHGYNKi14VJ3CoQlvu7rlJjj4JN4U/sdHa80W2stuauiB5AYU6fV0MnwZeIQk1JHcus+HIIPAgfxJdcHlDPjk0Lk+5ailsa5oWvsr/qhGQyKWyQTJ1SeSxe641OJCP1m/gfrm5Xhl2PkXR9lOuTweONZyZMsj6eO4dJzfLbWlo4TWkvNFSv548Uw+cqnhPeXFiBgjiZauUqwbsMGbPg0ApIBur4TTE3+i5VCWiFDxa1MhTRSRqEd/EMDyAV9kl2cqhC/vJjW24ZGmsuOCcuTmSi+lFqBkCyR4LgNQGddnr4N6kt41jDhvqBa+ZFPektBYxkTmJlxklgihcNNxGYwY8ndrK4xCLSvY0QK+CT1dEvM6fGL+RAEjGNxcF8yUvclQDTWH8+IWyB1p0BY4ovRKTHHwSfxpvYLKoNk3B5MYqwZYrJeJrTBwR/OIGlvAsx9/MG/HB+sL14pRD5aGueaCNV/QD/wx6OQvJiQTJwuOTID5sRbhj9G+eysUw6PN56VPMnyeDr5S9JxOtay4rgB/ngxTL5Sx/7SAvQm1wdC1A197c1h4SJBSBgn7xOKkNke5AKfZJe6LJBcQF6MCx4L3C0sJNMmd5mnzoJflUiovg7UZa8Ex90cdRmlRgys24gh5f+KdJohtHTMBviBT1KvtNuDS4hxbzueDRgLs/iPsOZgG/j4O0PcYpk9YYmvVjol5jh4JN6cVBsQQVgGSz2uWyYxxpRdwYnfb3IF1RDDOcgfnQ/9H5b+ZI3x/k5kW+HjweTM+Px2h29va3HMEAxZYw/kB3OBeBSSFxOSiftrUoG8CMQon53vPv1gUnJPojwef+w23zP/mnScjrXMHTbCFy+mhuWHFu8v/OhMrtwTS90v7+M5Jyc4OTlj4PTdZH/lJH7UZJ8UkDuOZrI/7TCOBIhV1OsYOUGCyb6eGLEgDuCT7GomC3QV3XnlxURwGBuIPgmz8cqro+H/VSme7shtcJr9GipPRj6rZImay15Z8o+7Gc1llC4zDbJIAnPWGmND30Ll1RCSTtP0AZ/0lkYZTtLMtEnjTHFNJDQGwfaF/KAGj6ReWTsDJOYUNPlFHbFLIPxsjuKYzQRM7EOui/hl9rTGrXbML/HlBJZHYq45PBJv9uLGcQtKs2nIXVm1QGLs/tHV8FuyV9V/EyL7AAT0voDztuMx0UHY3w8kZ8bnN+KPhjab5L9aGueGrTE+qb/m8PnBXDAeeWXRdMjE8Zc3JD4FygjFKJ+d2xooW6nBkyiPxx+7hkjPcXMVsLVBa0nzZpM/XgzKD0K+aynkcffhwcn9pCWzaepyS3yyRBqyQELyYjJy/soffNJNzWmpPJmW7BXfuJuhIaOkjt66Gugt/+DSaQbTwjHr9wOPpB7hwSXE+Kh/AKk7PokvLl6EJOZ0SbypISSDpRHXhkmMSdn4mS+w/t/cVBw1R8ruldizXptvasedFg8iZ8bvN15aGDOGrLEH9YNwPLZUJs7YcmRCMcpv55ZIyT2Z8ni6Yldjz/zL0nH8a1mJ7ngxLD8I+c5w6Bf3UyiCPAaJt6rT+OLzUviEjEU3jZtlpuQbTHz+e3id/wmzn+R/X2x0niCpvSeEJ1IeT0fsPlqejHihyZVC0cETJfF2/zYybpj8T0qiPVlSe08AVB5PJ09CvNDkSqFQKBSKkflferdEoVAoFMojgSZXCoVCoVCMDE2uFAqFQqEYmb9dcn1c0lfy3GgEBWxCM0WvhyHz9T+FvEm6jdqSQqH8g/jbJdfHJfHG1hTjek5x834fhszX/xRq0m3UlhQK5R+E7uTKFOHUl2GYPWUK3vkwFtequHPlSP1uFd6WTMKUORHYl644idLfdmD3yd8Ru+ZdBM8Ixa5UlYoAJ0u0fi4kgcFYGHUWZbI7OPH1Nvym/LZkhYzaZ3FZ5JOyjW9Pnsf3q97GtHfX4b837+HKnmWYJXkTH8blgvsmKxObbrC374p2JqryiYnYNHcqFu/JUbTXAFOWjJ3LZiEoaBaW7kiGlOuOk2HbsRsnf4/FmneDMSN0FxqG2QQn2bQTy2YFIWjWUuxI5rRb9MPcOYGvt/2m+hJoGa7EfIa4LO4prBwXv1mBt6YG450ly7B8ZRR+vcMo5Kg+DZmFyYFTMf+TI8qv8lKM71skJm7C3KmLsSdH/SmOQdGpLxE2ewqmvPMhYpXOQHnqd1j1tgSTpsxBxL50KM6W/oYd357E+e+Jn6a9i3X/vYl7V/aQOUnw5odxyq8E48qVp+I7YmvJpCmYE7EPCleqoxjPHvyWtAcrZ03GtEVROKMQb6hG1sFPEULOBU6dj0+O5JNn0IZ+E5G4aS6mLt6DHDl/Of1o+0BWdhrbNh3GDVUD8rzD+GLX72QoWTj4aQhmTQ7E1Pmf4IjSkDpjg0KhUB42OpKrHFmfSzAtRgSv2W/Cs00GUvJqcWPrVEz8ogLus+dD4nwZ4d7zEU8yl5A0k5YskZCMGpc8SBsLpq3CRaeJ+JdZLKZ5jEJ4Sn8E+ljj4Dvv47tiRk0iSVMmyEbRngK5Lgkn3VJtQpJN+mDyjyAq+hiU07qPlO/WIfZqPe4nLoMkqh5+oQvhXrYfe69b4SlL1jDJNDWJKXnW55CQcYm8ZuNNzzbISMlDrYD0kkKOasE0rLrohIn/MkPsNA+MCk9B/0AfWB98B+9/VwxGLiQDp4ZiPHMxOew8epObFPfSzxC0JB7lfDJriuGTfhdOx8d5wzHDdyBseKWlVG3rgM8H+6prkfr5cmxXas/h2o5V2HKVNVBCSi02KBQK5REgnFyZQhyOy8HIxcswYbg7JixejilOxYj/Pg3DQ9cgyP0leL0TgVndjiBOoR3GL80kNlCWSAlpY9JqRASOgu9Mb9hZemLp2iB4+szEGz2uI/26xpdNo7ncXANMsQ4JJ51Sarqkpx6MqtwbqBswAu79n4Xni70ha/0UHKz45agUCEimFR6OQ87IxVg2YTjcJyzG8ilOKNYhvWTaYxJWRwRilO9MeNtZwnPpWgR5+mDmGz1wPf066m7pkoFTQ2GvSAR7jMTURYHodOYoLsqEJKO44ftg6eoAjBjaHx0FpaV0IeCDqy8gcOx9HNyXBpnsGvYlMBg3aZCBElJNsUGhUCiPAh3J9R6kf1rBprl2GKSVlrBp0g5Dx3a1qFJoh5mATy7ISkuWSJdoWVMbJmZmMBOLofi+ZBMxzMxY8rSluKRGc7m5BnRKOJlwXwit/Kgt1aZLekoPAtOydh0Ay/3vY9xkf4z/rAJBU15GK12SRgKSafekf8LKxkbNYbqll0xMRcrzJsSOnHyU0pAQE7uyZM66ZeDUMBGhSbnJCm3u16C6VlhmzdSyHRqHb5AcmyZCPmiDIQHjwB7ch+TUfUgQjYU/8YthElIUCoXyaBFOruJucOheigtJBcrfp5WQja60Gxx7VSA1SfW7M+kpnMnqi2d1aIfJNWWJCto8XBk1gqjbg0k4cQnqQaWnuMRjcbcQymmdwlmF9pUMf/z3V1jMWI8V7y7BzpOJ+L9hVsQoLZdM6+bQHaUXkqBUqiohSacU3QySXuJHbGegDJy8CBd/V/6++17yBdywd0bffMMko1ouLcUh7APxswEYaxaPj9YcRBsffziL5QZLDMpuX8SvaXdURxQKhfJwEU6u6IDxi9+G7JPRGPbaaLiNDsXRsnbwCVsEi81eeHnMWIwYtgg5kyLwllOTBJcS7umQS0gypGvKEvXsyy+jxj21qrdBnry4z8onD+4JllwjTTZJJGlKPanRzkAJJ+7pTkOqTUiqqqlfNdTaEzmMRWCfBMx+5VWM9v8KpU93hJmpGD1ffBbS3cuw/P/CMGP0ALj6bsIluYGSaWp0GL8Yb8s+wehhr2G022iEHi1DOwHpJXGzsXJ2I59Vj3DcEywnPwcbIRk4ZblGTEyQv12CEV6eeGXxNfh8EIw+Dvwya5o2EpRja0TNh2pzF/IBxC4I9LPB0WM2mDCxD0nDhkoMypG3ZyH8wzXlAykUCuXhoPe7heWVN5GRWwNbR0d0tlCdvF+MrMxbYDr3g1OXNqqTQsggvZ6O/Lqn0MexM5Sl5ZDeyECpZR/06WTQ48wDUVeag4wbVbDs4QiHFvVTh9KcDNyoskQPRwcYXFUuxQ3yRGnZp4+qzp/4PmAAfvRNJf/fDqg9indcVsPhl0Qs7s0SG/wBqbUDendUvXfVh7wSNzNyUWPrCMcmZ6A4KxO3mM7o59RFZV/DuV+chcxbDDr3c4KWK2VXsXp4MOo3H8VbrW7ifmcnODSMVUbm+ocU1g69oXP4hpbTwnAfyKQ38IfUGg69O6JFXVAoFMpDgn5x/0NFhksbvOG/wxRubnZg81KQ+fRCfP/1ZNhrPiE+iTQk16hz+PBZ+ttLCoVCMRSaXB8BtSU5yLxZAfFTfeBoZ42/Q15VUocipa4VqNIXhUKhGA5NrhQKhUKhGJmGv/igUCgUCoViJGhypVAoFArFyNDkSqFQKBSKkaHJlUKhUCgUI0OTK4VCoVAoRoYmVwqFQqFQjAxNrhQKhUKhGBmaXCkUCoVCMTI0uVIoFAqFYmRocqVQKBQKxcjQ5EqhUCgUipGhyZVCoVAoFCNDkyuFQqFQKEaGJlcKhUKhUIwMTa4UCoVCoRgZmlwpFAqFQjEyNLlSKBQKhWJkaHKlUCgUCsXI0ORKoVAoFIqRocmVQqFQKBQjQ5MrhUKhUChGhiZXCoVCoVCMDE2uFAqFQqEYGZpcKRQKhUIxMjS5UigUCoViZGhypVAoFArFyNDkSqFQKBSKkaHJlUKhUCgUI0OTK4VCoVAoRoYmVwqFQqFQjAxNrhQKhUKhGBmaXCkUCoVCMTI0uVIoFAqFYmRocqVQKBQKxcjQ5EqhUCgUipGhyZVCoVAoFCOjM7kyd1JwaO9e7N13AId+y4RUrrpgJJii49jy5TEUMqoT6jBFOL7lSxzjvfjXqY6fB4+w46ojHuS5iA4KwKZMjUkzUlz+6StErv0Ym344h9t1euZBoVAolP85dCbXyoRVCFqxG6fPHMcPy16H62sbcFmmumgE2OoSFBSUoIZVnVCHrUZJQQFKuIu1J7B4sD92lqquGQFGmo/M/HLVEQ9sDYqv56C42eBkSFnzOnz+cxkmNhYoSdyJAxky3fNALU4sHgx/Yw6eQqFQKE80el8LtxowCRGffIZdB/+NV67uQVwW9yTHoCx5J5bNCkLQrKXYkSwlZwjy2zi+cQGCJ8/Gmh9PIu6rOO4seQI+ga+3/YZSRSEZrsR8pmjHxKYb7O27op0JOZv3M9bPlSAweCGizpaBXEQ3e3t0tb6Lk19vx6+5qdi7dgU2HL4JOemtPPU7rHpbgklT5iBiXzqqFD3JkPfzesyVBCJ4YRTOljV/lJTfSsSn7wVj2rxI/HJb7S6BKUPyzmWYFRSEWUt3IFkq8AjK3MX533Lw/OwILHp3Af4vOgrvuoqbzYNMBD+vnwtJYDAWRp1G1q9fY/uvuUjduxYrNhzGTWI+piwZO5fNQlDQLCzdkQxFd0wpftvxLU6e/57MaxreXfdf3Lx3BXtIOcmbHyIulzwiE6qzDuLTkFmYHDgV8z85gnzFgzWDW8e+xJfHChVlKBQKhfJ40f87V1aO+tpyZCcex7XWLhjQVQR53jbMmBaDtpIVWOonxi7JHMSW1CP7iymYfsAK498aC/Ndb2Lqir2KJpj8I4iKPoZbipx1HynfrUPs1XowtxOxJeooCplyxIa8h7POC7FmyVj0FteTSreRuCUKR29boIujPWxbWaO7iytcerQFc2Mrpk78AhXuszFf4ozL4d6YHy8FymMR8t5ZOC9cgyVje4NrphF5NjZNnY446/GY4cXg2y2J5JlScQF522ZgWkxbSFYshZ94FyRzYhVXtDC1xfDR/XFqeRBW7b+Ke6oc3DQPbggheO+sMxauWYKxvc0h7uIIe9tWsO7uAleXHmjL5GHbjGmIaSvBiqV+EO+SYE5sCWmkCMc3L8C0VRfhNPFfMIudBo9R4UjpHwgf64N45/3vUMzIkZ+WCfNhbyI8PAAWMTMR9mMlNwLcuvALfrlQpBwQhUKhUB4repNr1ZFQvNi/H1ynJOONbz/DOBsGxYdikGQ3BPbSdGTVOMDZ6hwSk2/hyKF0DJ0bCh93b4RsDcFwU973pDyIYW3FIDc5BcUdhsLrhc6q8xyW6DfcDT3adILrGF+MdmmLovjvkTY8FGuC3PGS1zuImNUNR+LO4L7YGlZMLpJTitFhqBde6Nw0PabkCBLSX8bcUB+4e4dg61IPtFJcKMahmCTYDbGHND0LNQ7OsDqXqKijjRgDlsThv6uccWHZSDi7L0K88tGxEbG1FZjcZKQUd8BQrxfQ22k43Hq0QSfXMfAd7YK2dw8hJskOQ+ylSM+qgYOzFc4lXlBWNu2BSasjEDjKFzO97WDpuRRrgzzhM/MN9LiejusyERwnLsRUV1MU5dfCltzoFOZxr5vFGLxkP/YvGaRsh0KhUCiPFb3J1fLVfyMl5w/88nY9vtn8X5SChVRaAVnFLWRmZCAjoxB2/qEIcKnCvSpLtO9gpqxoJiZbvgrudalOrOC9MQ7Le53AgmHPIWhHtuo8HwzKpZWwtGmval8E247tUFtVDcbKGxvjlqPXiQUY9lwQdmQ3JT723j1UWbZH0/BUo2OlkFbIUHErk8yFzKfQDv6hAcprvNhgoGQ94lPP46MuMVgceVp1XomV90bELe+FEwuG4bmgHVAbggJWKkWFrAK3MjnbZaDQzh+hAc8oL5qYQqQYlgnMzMwgFosUDjIRm8GMZcgzdh1SI73gNmkDDiddRV55PVjW0BsYCoVCoTwq9L8WVtAOQ9+fj4HHv8A3OUC3vvYwt3CBJCQMYWFhCA2ZDY8edrDvXo2MK7dJ+mMgTb6IbNWvNU2srGBxtxCF3F/WFp/C2QzNv4oiacPcCX4rd+NktDuSdsarzjdgDjNRHe7XcJ/FsHPshYrUJNXvG6U4dSYLfZ8dgFbyOpg7+WHl7pOIdk/Czvh8roACUVd7dK9Ox+XbpBIjRfLFbChGIeqGvvbmsHCRIITMJSwsFCGzPRR1tGBKcf266vfL5l3Rr7cNSYPNk5u8zhxOfiux+2Q03JN2kidbBuZmItQpB0+66wt7cwu4SEIUtgsLDcFsj26Ka3qR5+LwgZsY9dE2RK6ah9fsFc/eCqpyzuJszp+qIwqFQqE8TnQmV1ORGcxVT0+mnX0x6/U8fPftNbQbRxKQVRReHzkBksm+8ByxAHGV1vCeNxPV//aCxxhPvLHuAkmZSkQOYxHYJwGzX3kVo/2/QunTHWFGGjUxNSV9kB9ZOjb6DoGnXyAmfHAKjhO8FE9xpqakb65zMye4DcjChoA3MHPzJVj5hGGRxWZ4vTwGY0cMw6KcSYh4ywls+kb4DvGEX+AEfHDKERO8uisHwGHtjXkzaxDpNQpjPMfhP/m26MQNgtw4jCMJzirqdYycIMFkX0+MWBDXvP8GmHzsnf0iXF95A+NefQlTf3key+YNa5oHSdfpG30xxNMPgRM+wCnHCfDq3gpObgOQtSEAb8zcjEuW48jNiBWiXh+JCZLJ8PUcgQVxlVr9mYq4z6qna84H5JpI1AsjPNvjcMhkTPGTYFtOa3LTwVWoRdJn0zDts2RleQqFQqE8VkzYB36vWIfSnAzcqLJED0cHdFI9RMnKcpF+2wz2PRIhcTqCHwu/VV6QS3EjoxSWffo0lm2GTIrr6fmoe6oPHDu3UZ1Uo64UOem3Ye7QH3ZWXEK5j+KsTNxiOqOfUxc01JBJryM9vw5P9XGEdjMySK9noczKAQ6ag+Daz7iBKssecHTopPx9LC+1KMnJwm2ZLXr3eRpWItXpRrg+0pFf9xT6OHZWjYuzVTpumzugv52V4malrjQHGTeqYNnDUXssOiHt3/gDUmsH9O5orjpHoVAolCeJv5Bc9fDnTvg4qiVXCoVCoVD+R3h4yZWRIvfaPfR+ppfqBIVCoVAo/xs8vORKoVAoFMr/KOp/rkOhUCgUCsUI0ORKoVAoFIqRocmVQqFQKBQjQ5MrhUKhUChGhiZXCoVCoVCMDE2uFAqFQqEYGZpcKRQKhUIxMjS5UigUCoViZGhypVAoFArFyNDkSqFQKBSKkaHJlUKhUCgUI0OTK4XSIuSQNwgVU/5RyOWM6hOF8tfRmVyZOyk4tHcvYmNjyc9eHDiTRyIwF9FBAdiUSXcYDqboOLZ8eQyFT9q6ZIpwfMuXOGbsgf0v+58pwY8zhyJg1w2SYh+A6njM8whTfHw0ccOg6PgWfHmsUIff5MiNDkLApkzV8ePmcYyHwe09k/FScAxuGeCPusKz+P7ztVj9cRT2Jd+BTHVeN9WIn+eBsOO1quMH4VHYRi1mKH8Jncm1MmEVglbsxpnz53Ge/Px+rQhga1B8PQfFNUYS06k9gcWD/bGzVHX8iKk9sRiD/XfC8O5rcWLxYPirBsxWl6CgoATGMofRYKtRUlCAEmMPzAD/t9ymTxrNfdyA/I8DONIxHJuCe0FLI98QGCnyM/MVHx9N3LCoLilAQUmNDr+xqCm+jpxiUuaJ4DGMR3YVe0/Y48NP/dFVz7u8qvMReNX9XewrMEMHyxL8/MEMrE02JL0ykOZnIr/8rzjcANs8wH7afL2qxQzlLyFaRVB91qI2dQ82V07GT18txJhXX4Xn891JjJTg5PYfwXjPwsguDZHIoPS3ndifXYaTn6xEzD1XvOoCJO+KwIr1XyP+QiW6Pu+Krq1NIMv7GZHLVuHzH06h5KneqEn4HNH7k5D/ZwmKGQe80O0OEjatw/pNW0nA58HqGTc4tAPunNiKmIKeGNijDUxkVxCz6Sxc3Ppp9+twFwd56nPlDtyoQ+Y3EVi/4xQqe7phgOg8tqyPxv6kfPxZUgzG4QX0tS7nHXfDPEtObsH66P1Iyv8TJcUMHAZ3QnmxFVyf6wlLtoynLsvb98AurUhzfOWb+io7vR1br7bHoL425C5IjrzDUYiX9kTri19h3fpN2Lr3BPKsnoGbcoLYuT8bZSc/wcqYe3Ad9QxM84tg5focelqyKCe+/HjVOkT/cAyZbG8M6t8J5rI8/By5DKs+/wGnSrpgyCA7NHVfit92xuFm/RVsXfkxdp4oxlPPD4Jd67tq/r+PrIObmo3lhbZp+ErLphVI3fMxVq2Lxg/HMsH2HoT+nczJpqajfzLf28c/x/JVn2P/VRHaSU8h1eRZOHUowYmtMSjoORA92pB4uhKDTWfN4ObUkZgzGbsiVmD91/G4UNkVz7t2VWuPg9g0eRciVqzH1/EXUNn1ebh2bQ25ekx2GYxe179p7uMXuuFOwib8e9tZFN0rQqm1ms0P3EBd5jeIWL8Dpyp7wm1gFxDPNiG/hcSNZI7RCcgRmyD3cDGCFvmSPawceUXKuGl1U73/IRjUJgU7426i/spWrPx4J04UP4XniW0syVyY8lTs+XgV1kX/gGOZLHoP6o9OYs5XB3CjLhPfRKzHjlOV6Ok2EFyIseV5KLJyxfN2VQq/VTpY4vTG9dh5qhRdBj+H7iQ+S05ux4+MN2aP7MJvQ7kuP3FhrF2nVZkBtuH1RyvcVRtPA4wivm+g9tp2rImMwdXWAzDgfgLWhK/DnlQRnnnJCe3JHQ/v+FkB+5jdUcaS/auY6D+K+D22MZZ4kWdj05R3cfOtozgQ9i+4ub2CscGTMLxLLf441HwdcPHBrdlbiRuxbFU0EnLEMMk9jOLn34Ovc53WulGWb0C5n8bdrMeVrSvx8c4TKH7qeQyya61mm7babdjX4bct65vvp32tUcG39ht6KjmptQf2YfOVMdPTsmX2VGxputcgc+cEtsYUoOfAHmhjIsOVmE04azYY/XDGgHj5e6HnPg2ov5WMH7nXwnt/QnKR0DsT7lXCZiyc/jHyhs+A70Br5G2bgWkxbSFZsRR+4l2QzIkl5coRG/IezjovxJolY9HbXIwujvawbWWN7i6ucOnRFkx+GjLNh+HN8HAEWMRgZhjZEEj7+UeiEH3sFvlEuJ+C79Zx7Wn2awO5QH2u3HvBy3Culx8C+11C+KxImLbpAkd7W7Sy7g4XVxf0aMsIjLsBU7Tp4gh721aw7u4CV5cesCpKxJaooyhkSPLjrcvfN5c89PVlWZ+Kz5dvx2Xuxlh2DTtWbcFVWTHSMs0x7M1whAdYIGZmGH6sJL0UHcfmhdPxcd5wzPAdCBv2NhK3ROFoIQP5ja2YOvELVLjPxnyJMy6He2N+vBTlsSF476wzFq5ZgrG9xahXdqyEe628eS4mh51H76BZcC/9DEFL4okH1ZDna40lXq5t0xtbp2LiFxVwnz0fEufLCPeeT24SSDTo6F+e/QWmTD8Aq/FvYaz5Lrw5dQX2XiMlmHwciYrGMdX7u/sp32Fd7FVSIQ/bZkxDTFsJViz1g3iXBHNiSxRlGpDnbcOMaTFoK1mBpX5i7JLMQWxJWfOYFMu1fNyW9Clo8/eCsexcL/gF9sOl8FmITFN/ipEje9NUTI+zxvgZXmC+3YJE1VtB5nZD3GisCXG9st25kxF2vjeCZrmj9LMgLIknlpffwNapE/FFhTtmz5fA+XI4vOfHQ6rw1XsIXnYOvfwC0e9SOGZFpnG94HbiFkQdVb3ik2Xiuy8voO/kmRhe/B8ELvoJ95RXlAjYUGecCNTRbxshf/DvMYr2FkzDqotOmPgvM8RO88Co8BT0D/SB9cF38P53JDEIxYCQfYRiSYiy4zia9gzG+tipbZymMCXJiC8+5NmbMHV6HKzHz4AX8y22NDifZ91w5ZtQ7hlzJ4fhfO8gzHIvxWdBS8CFQCN8bVS10d5PBdZ+A9p7INsUMy21pwFrkMk/gqjoY6rX7/eR8t06xF5VxbyeePm7oTe5MnczcPb0aZw+fQ4ZAoGvxAS2PkuxOmAEhjrJcSgmCXZD7CFNz0KNgzOsziWSMmJYWzHITU5BcYeh8HqhN/oNdyNPIJ3gOsYXo11sYOY4EQunusK0KB+1tl0hKsxDqa5u1fvt3xEiwfqm6BG0FuskHnh9TiAGF2QAlv0w3I3cQXVyxRjf0XBpe1dg3E1Y9hsON/L03Ml1DHxHu8Cm8eG9WEddnr51llfSamggxt4/iH0kyGTX9iGBGYdJQwZg4sKpcDUtQn6tLbqKCpGnMpCJrQ+Wrg7AiKH90bHRswxuxX+PtOGhWBPkjpe83kHErG44EncGMmsrMLnJSCnugKFeL6CzZjSY9kDQ2kgEe4zE1EWB6HTmKC6q/8pI5Kg9lvt9NGxahPjv0zA8dA2C3F+C1zsRmNXtCOLO3IdYsH8GJUcOIX3oXIT6uMM7ZCtChptC1ws1pvgQYpLsMMReivSsGjg4W+Fc4gXVVQ4GxYdikGQ3BPbSdGTVOMDZ6hwSL7AaMdlZ28dmPPNU2dy0RxDWrpPA4/U5CBxcgIzMOsV5BUwJjiSk4+W5ofBx90bI1qXw0LoV11wTnRVnFe1GBsNj5FQsCuyEM0cvouZWPL5PG47QNUFwf8kL70TMQrcjcSCmVPlqHSQer2NO4GAUZPD8Xk7UB9P+/W9MGemBYM6fp4/ggpo/hWwo7CfddtdpG0F/NEvdzTDtMQmrIwIxyncmvO0s4bl0LYI8fTDzjR64nn4ddbpiwBD76EEuLUW5qQ06tNVYKHzroFRGYjgB6S83xfDSBufzltfc5JR7RmSwB0ZOXYTATmdwVH3x8bbRWmM/bYsigbXPhYwCzT2wcUPT7Vs+e+pfg7rRHS9/PzS3Uy1auUqwbsMGbPg0ApIBYtVZPsiTVrt2ZKsgsFJIK2SouJWJjIwMZBTawT80gFywgvfGOCzvdQILhj2HoB3ZXOlm1KVGwsttEjYcTsLVvHLUsyzI/0gKFUKtX4JQfa4FU5GqlKgVzE15MrbguA1AZ12evg3py3wIAsaxOLgvGan7EiAa649nmFREerlh0obDSLqah/J6bn7KtGNq2Q7ttFzEoFxaCUub9iobiWDbsR1qq6rRxnsj4pb3wokFw/Bc0A5ka/6ti4kIZqr3RyZWVmhzvwbV6hmuTngsjZAnM2mlJWzaN8zfFh3b1aKqmoGVYP8s7t2rgmX7DjBTHJtB3Dgv/khgpVJUyCpwK5PYktiz0M4foQHPqK5ysJBKKyCruIVMzt4ZhbDzD0XAMzZ6Y1LXPE1MRY12bWVuSp6eFAdK2Hu4V2WJ9h2Us4CZuDFOm+BfEyYiM9WrOxNYWbXB/ZpqyMulqLS0QZMpO6JdbRWIKbmBoCnEzGHabCAq1P1pba3lTyEbCvtJt9112kbQH9oWaqCxPRMzmHG2FHHblwnEZmZgSeM6Y4DXPsK7Ch8i287oyNxBYbHG3sEbH4xwDBuybsjYRE2LD1Zt7qNG3VkGtSG89nl2Py1aak/9a5Cgw+S64+Xvh97k+kCIuqGvvTksXCQICQtDWFgoQmZ7kAty1Jk7wW/lbpyMdkfSznhyzhxmojqyeXAV5cg9fAA3R32EbZGrMO81e9U7d26DscDdwkLUcXe8p84ig/eNgVB9HZibQVRHApf7LDju5pibiVCnHHATBtZtxKDyYjwbMBZm8R9hzcE28PF3Vvze5sDNUfhoWyRWzXsN9nonKIadYy9UpCYhXxGsUpw6k4W+zw6AuM4cTn4rsftkNNyTdiI+X2PJyYtw8fdcYnPgXvIF3LB3hpMqT3DIhcaiblOxHRx7VSA1KZ94hyA9hTNZffHsgFaQC/YvQlf77qjOuILb5BQjTcbFbJXDuY3G4i4KC8moyNP/qbMZir/WFHXrC3tzC7hIQogtiT1DQzDbo5uyjgIRuvW1h7mFCyQhnL3DEBoyG1wR7Zhs7mPBeepD1BX23auRfvk2mTsDafJFNEyjCb41wZn+In7PVVgeyRduwN7ZCa3tHNGrIhVJSkcSU55BVt9nQUxpGMSfaUl5CnvdS9H2p5ANhf1kiN2FEPLHA/2pmIIWj0Ugljhkty/i17Q7qiMVNqPwxtBM7I4+i4a3uLJbl5B27hBPfKhiOP0ybhN3qcewYfEkR9HF36EMgWRcuGEPZzVnCbehvp8Kr/1mXaqvVzVaak9DynM36RZ3C6E0+Smc5d/I/xHoTK7cHUndL+/jOScnODk5Y+D03dztBUzJHYZps5rkyYycEDWebIdxxLBWUa9j5AQJJvt6YsSCOBKJ6djoOwSefoGY8MEpOE7wIjd0TnAbkIUNAW9g5uar6D7CE+0Ph2DyFD9ItuWgNdnkTMkdt8PYQPRJmI1XXh0N/69K8XRHLtA0+xWhF299zXLks1i5iM2c3DAgawMC3piJzZcs+cfdDDM4uQ1A1oYAvDFzMy4zxB7kDtpUaM5aY2zoW6h8c8QugfCzOYpjNhMwsY8Iol4j4Nn+MEImT4GfZBtyWpOFYWpC3NIwDhVqfrLxCcMii83wenkMxo4YhkU5kxDxVh9kbfTFEE8/BE74AKccJ8Cre2NtJcRu+dslGOHliVcWX4PPB8GwFze1KzSW5ja1gk/YIlhs9sLLY8ZixLBFyJkUgbecWKTr6N/aex5mVv8bXh5j4PnGOlxQ5hPSqQPGBvZBwuxX8Opof3xV+jQ6mpF67caRzdkKUa+PxATJZPh6jsCCuGa/yCJFyA2MVRReHzkBksm+8ByxAHFSnpjU8PHV7obZnHs7IWqWG6zhPW8maiK9MGqMJ8b9Jx+2nZQbZGNdvjXBXTfJx3bJCHh5voLF13zwQbA9RDY+CFtkgc1eL2PM2BEYtigHkyLegpOaTxRwTwCKgajFHrcGzDqicl8AXvTwwIgGf4rUyvDaUKrTT0J2128bAX9Uaq4XJc3bI9e5z6onJ+4J1pRrXCgGNPesBvsIxRJJbHl7FsI/XGM9mvbAjI2f4LmfA/DsS//CeG93DB77EZLavcIbH4oYromE1ygSw+P+g3zbTuCaF1o3zSHxlb8dkhFe8HxlMa75fIBge3GjbQTbaLafXoIV79p3IjtlE83Xq1xPPOiwpwFrUOQwFoF9EjD7lVcx2v8rlD7dUWETQ+Llbwf7MKm9y2anJbNp2cXsfdUptr6Mzb2UxmYUValOELhyqZfZm5VyxWF92XX2Ws5dtlZx1ISMnL/yh1pbAgjVF6L2bjabevkmq+qef9zNqGXvZqeyl29Wsg1VGtFbV4OWlucgNrx+LYe9a+gEFdSwdzJT2Yvpt9kmy9ezZbmX2LSMIrVzKuqvsB++OIhdfkHKFlxNY7OFOhMYi5ZNa+6wmakX2fTb6j3p6J+jvpTNuXSFxEUFu2NcV3by/hrVBRlbdv0K+0extsW4ftOSyXh5rinhfJfGJqdls41F+GJS08cPZHMl9WW57FVd/tXov/7Kh+yLg5azF6QF7FUyTs0+a+5ksqkX09lmpjSYP3X7k6BtQz1+Iui3uxA8/viLtGwswrEkTBV7Oz2VTb1W2BTfQvHB+fYqz9x0xlM9e+XDF9lByy+w0oKrZG8Q2MuE2tDYT/nXfnO01qsaLfWt3vIyMu4rfxjN308qJtx/VHmWQmlCdhWrhwejPuocPny24ZdFj4s/sdPHEUeCc/DteAvVuX8usqurMTy4HlHnPsRjNz3lMSDD1dXDEVwfhXMfPqv6PSTl7wZNrhQB6lCUkQvYOyn+/drjhYE09xrudeyPXu0aXhz9g6krgtL0f+9/50d5cOqKMpALezg9/sVHeUBocqVQKBQKxcj8DzwGUCgUCoXyaKHJlUKhUCgUI0OTK4VCoVAoRoYm138acjka/kkohUKhUB4Pjz65/l31QNW0OI3KA+qucl90rakHytyJRfBLEnyv+U1L/xi4LzSnWpMUCuXJ59EnV2PrwT4q1LQ4jcoD6q6yWnqgMmTsS0S3lRsxye6f+kKCak1SKJS/Bzr0XJWagvw6pOW8+pwGaS6aKPVgtXQlW5Xht537kV12Ep+sjME911EYYKNLW7U5LdcJrNajqUgQ0uIU0GFtplXbZQhesGuFolPRiIjYiJ0JVyDvPRjOpr8L6q7a3T8toONJntg02ulvW92oB2rJcv5Yjy8SC3E3vwBQ94cOjUSm7Dds//oK2g/uq1D3kd9IwOZ4KYYMbPg+UEZAR9dJb9tcXSFNyjJyvpkG7wAbXp1VE/JUfyo6AhEbdyLhihy9B/eHbbVKn5TTmuTTNm0QqqRQKJTHiI5HHKWmIJ8OqZA+p0Gai1zTfLqSCo3AhZj+cR6Gz/DFQBt92qrNabFOoF5NRSEtTiEdVm1dTnnW55BMi4HIazbe9GyDjJQ81HHjEdBdVYyVR8eTt51GPVA9/tChkWhqyeDSF8uwNZU7J8Pl7Svw1TX1J2ghHV39bXN1+TUpleebafDy6nrWI+tzCbGzCF6z34Rnmwyk5NWpaU0KaJuqeqdQKJTHiZ73h3w6pLcE9TkVNfRoLiq2XyFdSRNb+CxdjYARQ9G/vX5tVUPh1QnUp6kopMUpqMOqqcvZCYWH45AzcjGWTRgO9wmLsXxKf8VXmfHrrirR1vFMIU/M/O0o0OsPHRqJrYZisi+DuJgU1MkuY98hwCdwkOqifvTrLwppUqpr8Lbn1/VMvoHDcTkYuXgZJgx3x4TFyzGlf9MXwTG6tE0pFArlMaMnuZoo1AkUNOiQ6tDn5NCnuahASFfS1BLtGgRJW6qt2lKdQH16iEJanAZr1WbhnvRPWNnYaBmZX3dVibaOZ5VgOwoM9Yf63BsR47mgCWhz8AecSdqLBHMf+Gto9uowq562OYQ0KdU1eAV0PftXQfqnFWzUxJvVYXRpm1IoFMpjRk9y5UGHPqfB6NGVVCCod8qg7MoJ/H6z+VNSS3UC9WoqCmlxGqxVm4BuDt1ReiEJBZyhyJNwRsYd5etVHWjreLqgp652/qI/xM5B8O98CP+39CdYj/eHUzOZJ0N1dIXQrUmpREDXs2cPOHQvxYWkAsW8mBKSeO80WU+sQ9uUV4uTQqFQHiE6kqumriL5rNAhtRHQ5xRpaPKR8nyai0K6kpqalIJ6p/dxdLUfluxt/s8xWqoTqF9TUUiL03Ct2g7jF+Nt2ScYPew1jHYbjdCjZWQAzcdDBths3nw6np10tmOoP5rm3gyRPQICeuPCeVuMn+jQTOeRS3z8OrrCdm2Obk3KBvh1PTtg/OK3IftkNIa9Nhpuo0OhnLaqrpC2qUhAi5NCoVAeIQ/+xf33i5GVeQtM535w6tJGdbIlVKHwWg7ud3aCQ0cdf+JZV4qcjBuosuwBR4dOaFX+E2a9+i1G7NsDieY/OZFLcSOjFJZ9+qCTIQ9uMlL+DymsHXpDaAgy6XVklVnBgetbdU6B5ri4c6S96+n5qHuqDxw7q2wir8TNjFzU2DqSc7rl0hqkxjYffQutbt5HZyeHpnHpa+cv+KN83xQ8/9VQnEh4B3z/ikcuvYGMUkv06aNhA500yGZtxtG3WuHm/c5wcuioeuXNRx1KczJwo8oSPRwdGv0nr7yJjNwa2Do6gn/aWci8xaBzPyc8UBhSKBTKQ+Bvp4pTdfoLfF7qg5Cx3Zqe/v4hPBYdT6YE30x8Ht97ncdPs7sa0aZUk5JCofzvQiXnniQei47nfdwmT+AmD0G3lWpSUiiU/1VocqVQKBQKxcj8096sUigUCoXy2KHJlUKhUCgUI0OTK4VCoVAoRoYmVwqFQqFQjAxNrhQKhUKhGBmaXCkUCoVCMTI0uVIoFAqFYmRocqVQKBQKxcjQ5EqhUCgUipGhyZVCoVAoFCNDkyuFQqFQKEaGJlcKhUKhUIyMzuTK3EnBob17ERsbS3724sCZPECei+igAGzKlKtKCcAU4fiWL3GskFGdeFKoRvw8D4Qdr1UdayPPjUZQwCbom+Ljgik6ji1fHoO2aRkUHd+CL481F5J/+MiRGx2EgE2ZqmPK34Hq+HnwCDuuY63qXystojoe8zzCVAd6MHSfaQlqbQqvocdEXSHOfv851q7+GFH7knFHpjqvj5bY9C/RFAvCtjNyvDwQT8IYlOhMrpUJqxC0YjfOnD+P8+Tn92tFAFuD4us5KK7RI6bDVqOkoAAlAuVqTyzGYP+dKFUdPzoYSPMzkV8uPH62phjXc4qhb4qPC7a6BAUFJYrxNbcji+qSAhSU1CiOHh0saoqvI6f4Uff7mKg9gcWD/bHz0QevUWGk+cjML9exVvWvlRbBSJGfma860IOh+0xLUGtTfQ21FKPvXVXnEfGqO97dVwCzDpYo+fkDzFibrLqoh5bY9C/RFAvCtjNyvDwQT8IYlOh9LdxqwCREREYiMvLf+GiWm+qsNrK8n7F+rgSBwQsRdbYMMLFBN3t7dG1nwl3Ez+vnQhIYjIVRZ3H3zkl8vf1X5KbuxdoVG3D4JrmTLEvGzmWzEBQ0C0t3JEPK3RUxpfhtx7c4ef57rHp7Gt5d91/cvHcFe0g5yZsfIi63TtF3ddZBfBoyC5MDp2L+J0eQr3WzK8etxE/xXvA0zIv8Bbcb7woZlCXvxLJZQQiatRQ7kqXkTANVSN+zArMmT8OSLedQprigqzxBMd49+C1pD1bOmoxpi6JwpkRVgilD8s5lmBUUhFlLdyBZOUGU/rYD3yYmYtPcqVi85w/l8cnz+H7V25j27jr89+Y9XNlD6knexIdxueBmbGLTDfb2XWF9V9OODGy62cO+azvVWL5FYuImzJ26GHty1I0ix+3jG7EgeDJmr/kRJ+O+Qhz3hMDcwYmvt+G3UuWYZVdi8FlcluIzr38EYMpT8R0Zv2TSFMyJ2If0KuV5rRhRgyn9DTu+PYnz36/C29Pexbr/3sS9K3uIrSV488M4qFzNPw6N+FL4yiB753CDRep3pE/JJEyZE4F9TYPVbpODKcHJr7fj19xU7F27AhsO3yTWZFCe+h2JUQkmTZmDiH3pJHq4sobFL+9YFXV34+TvsVjzbjBmhO5CaqWyeCM64k3IX/Jbifj0vWBMmxeJXxoWgvpaFVwrpE1ev8qQ9/N6zJUEInhhFM42GkqF/BYSP30PwdPmIfKX26S0Cl7/CCFgXyEfqWCKTuHLsNmYMuUdfBh7TVlHRcMaUkxZR6zsPvk7Yte8i+AZodhFHMCUaO9d/PX12KURObKjP8AXrZfgxx/WYcmceVjx1TH8tOx5bmPDwU9DyB4UiKnzP8GRho1NwKb69kHFGtvzG5L2rFTsa4uizqBpe+KLF/5YaGY7wXgR8JkaQuNh7pzA19t+g3IbkuFKzGeIy+ImI7T/6ojZFuxbxkZvcq2/lYwfudfCe39CcpHQyMoRG/IezjovxJolY9FbXE9mdRuJW6JwtJAYOTYE7511xsI1SzC2txjyNl3gaG+LVtbd4eLqgh6WN7FtxjTEtJVgxVI/iHdJMCe2hLRRhOObF2DaqotwmvgvmMVOg8eocKT0D4SP9UG88/53KGbkyE/LhPmwNxEeHgCLmJkI+7H5LiTP3oSp0+NgPX4GvJhvsSVR+cpAnrcNM6bFoK1kBZb6ibFLMgexqmiTZX6HLy/0xeSZw1H8n0As+umezvIKFOOdi8lh59GbONO99DMELYkn1pEjb9sMTItpC8mKpfAT74JkTixXAUXHN2Ph9I+RN3wGfAe2VRwvmLYKF50m4l9msZjmMQrhKf0R6GONg++8j++KGWLaRGyJOorbFhp2bMviduIWRB0tVI1lIaZ/nIfhM3wx0EaxEhTIs7/AlOkHYDX+LYw134U3p67A3mucz/JxJCoax24p53Q/5Tusi73KGYrfP3zIb2Dr1In4osIds+dL4Hw5HN7z4yHlixE1uFdNmxdMw6qLTpj4LzPETvPAqPAU9A/0gfXBd/D+d8VgBMahGV/1BtvbGje2TsXELyrgPns+JM6XEe49H/FSEtFabaowbYMujvawbWWN7i6ucOnRFsyNrZg68QtUuM/GfIkzLod7Yz7XiIHxyztWRV2ygS47h15+geh3KRyzItNUg1AhFG9C/pJnY9PU6YizHo8ZXgy+3ZIIxUpQW6tCa0XQr+WxCHnvLJwXrsGSsb3R3K0kcWyaiulx1hg/wwvMt1ugbE7IP/zIBewr6CMOeRY+lxAbiLww+01PtMlIQZ76pqtaQ4VC9lfFynvBy3Culx8C+11C+KxI4n7NNcfw19dpF3XKcPxoGp4Z6wM7td3Y1NQU8vw0ZJoPw5vh4QiwiMHMsB9RqcOm+vZBxRqbOxlh53uT5OSO0s+CsCS+nFTljxehWGiyHakqtLcKrQk1hMbD5B9BVPQxKLeh+0j5bh1ir5JVLbD/CsdsC/ath4De5MrczcDZ06dx+vQ5ZKgnkmaIYW3FIDc5BcUdhsLrhc6q80rE1lZgcpORUtwBQ71eQGfrfhju1gNtOrlijO9oONcdRkySHYbYS5GeVQMHZyucS7ygrGzaA5NWRyBwlC9metvB0nMp1gZ5wmfmG+hxPR3XZSI4TlyIqa6mKMqvhW1XEQrz1F/YMCg5koD0l+ci1Mcd3iFbsdSjleJ88aEYJNkNgb00HVk1DnC2OofEC8pVIOozDf/+9xSM9AjGosBOOH0kGfk6yjdCxhu0NhLBHiMxdVEgOp05ios1xTgUkwS7IfaQpmehxsEZVucSVRVMYOuzFKsDRmBo/47k2BQ9Jq1GROAo+M70hp2lJ5auDYKnz0y80eM60q+r7RCWze3oYqPhThNb+CxdjYARQ9G/Y8M1zh6HkD60yR4hw02h6yUKU3xI2D8aMLfi8X3acISuCYL7S154J2IWuh2Jw5n7umOEw7THJKyOCMQo35nwtrOE59K1CPL0wcw3euB6+nXUCYxDK75goL2dahH/fRqGh65BkPtL8HonArO6HUHcmfvabTaa1hL9hruhR5tOcB3ji9Eu5IYo/nukDQ/FmiB3vOT1DiJmdcORuDNkWyDoi986HWNVxNI6SDxex5zAwSjI4PmdNk+8peTz24kpOYKE9JcxN9QH7t4h2LrUA9xKaEJorejwq8waVkwuklOK0WGoF15oMhSpVIIjCel4eW4ofNy9EbJ1KZRLT5d/NGFwS8C+MkEfkVqFhxGXMxKLl03AcPcJWLx8CvqLVRfV0TkWshaD1mKdxAOvzwnE4IIM7TXX9i5/fbEOu6gjl6K03BQ2HdpqbcYix4lYONUVpkX5qLXtClFhHkplAjaFvn1QiWmPIKyNDIbHyKmKfe3M0Yuo4V1XyYKx0ITw3irkM8WaUINvPKrUqIHQfl0rHLMt2LceBgIeb6KVqwTrNmzAhk8jIBnAF50cVvDeGIflvU5gwbDnELQjW3VeiZX3RsQt74UTC4bhuaAdyNZ4XcFKpaiQVeBWZgYyMjJQaOeP0IBnlBdNTCFSdGsCMzMziMUixaBNxGYwY8ldC+qQGukFt0kbcDjpKvLK68Gy6qmCxb17VbBs3wFmimOuDeV5qbQCsopbyCR9ZmQUws4/FAHPKOdoIjKDufITrK3b4H5Nlc7yjZiIYKasCBMrK7S5X4NqRgpphQwVtzIV88sotIN/aICyEJmNZbt25PakAROYKicMEzJfMzJYkXLCZP4seXpTXDIMU0u0a6cxPkF7cDQ93aqj0z8aMOVSVFraoL2qTZFtR7SrrSI20B0jHCamIqUdTMi8zcQQKycOMbEDSyYuNA6t+JIZaG+mHNJKS9g0DRYd29WiqprRG7NNMCiXVsLSpr3KhyLYdmyH2qpqcoWgL35ZHWNtrEtabWUOUz7n88RblYCd2Hv3UGXZHh2UjlfEVnOEY0PQr228sTFuOXqdWIBhzwVhh7qh2Hu4V2WJ9k0dKm2ka85aCNu3jQ4fMfek+NPKBpr3m1roHEvTWiQOgLkpz8OFUH0rHXZRh8Rc544M7hQWK+NFjbrUSHi5TcKGw0m4mleOerKvsYyATfXug0rU9zUrK25fI3HKGy8uOvaJBoTiRc+aUINvPCzvNiS0X4sEx9mSfethoC/0DISkOHMn+K3cjZPR7kjaGa86r0ReZw4nv5XYfTIa7kk7EZ9PTGxuBlHdfXB/AiPq1hf25hZwkYQgLCwMYaEhmO3RTVlZH/JcHD5wE6M+2obIVfPwmr3m3ZUIXe27ozr9Mm6T+GakybiYzT39idCtrz3MLVwgCSF9kn5DQ2bDo5tIUUtelIYkxXuke0i5cAP2zi7oqaN8I/IiXPxd+bvRe8kXcMPeGU4W3dDX3hwWLhKEcPMLC0XIbA9l+b+Kmh0NQ2WPjCu4TdzQZA+CiRWsLO6isJCMntzRnzqbofh9Tkv8I7ZzRK+KVCSpfuEjPXUGWX2fxYBWumPEEITGoRVft542zN5iOzj2qkBqUj6JYIL0FM5k9cWzA1rxx2wj5jAT1ZGNgPsshp1jL1SkJql+xyXFqTNZ6PvsAI2nQgFEfzE2eOLNpSe/nURd7dG9Oh2XlQsByRezm34HqkBorejwq7gO5k5+WLn7JKLdk7AzXu2Pa0RdYd+9GumXbxP7MpAmXyQ3Ptz5lsxZ2L5iHT4Sd3NA99ILSCrgKpEnLLK53tHc2TkexP7qa06ovpzHLrLbuPhrmsY4bDDqjaHI3B2Nsw1vcWW3cOlKAXIPH8DNUR9hW+QqzHvNXhlPQjbVuw8qkRddxO+K3/XfQ7JiX3OCBe+66iEYC00IxYvha4JvPObkJtHibiGU29ApnM1QBI3Afm0uOM6/lFeMgM7kyt0t1/3yPp5zcoKTkzMGTt9NNmBTmJInDFP1mrJ0bPQdAk+/QEz44BQcJ3iplZMhfaMvhnj6IXDCBzjlOAFe3U1h5uSGAVkbEPDGTGzOG0MMZYWo10digmQyfD1HYEEciTSNvkxF3GfVbQn3BECuiUS9MMKzPQ6HTMYUPwm25bQmG1/zaVl7z8PMGnIXOGoMPMf9B/m2nWBGirQbRxaCVRReHzkBksm+8ByxAIpuSb9mHSuxL+BFeHiMwOJrPvgg2B4dBMo3w8QE+dslGOHliVcWX4PPB8GwF7XDOOJYq6jXMXKCBJN9PTFiQRxXmMyBPJ00GlPjmJsf+aycMfcES66RXG5C/t+UzJEr1cyOl+RN9fn8pEJhj+p/w8uD2OONdbigWAAEkQPGBvZBwuxX8Opof3xV+jQ6Kg3F759G1MZt44OwRRbY7PUyxowdgWGLcjAp4i04sTwxoob6nLiwFHGfG13NXSMT5x2HlCe+2htobxv4hC2CxWYvvDxmLEYMW4ScSRF4y4nljdlGzJzgNiALGwLewMzNl2DlE4ZFFpvh9fIYjB0xDItyJiHiLSeIDIlfCMSGpv/IZzFnA0344q2DgL+svTFvZg0ivUZhjOc4/CffFp04/6r1JbRWhPzaJ2sjfId4wi9wAj445YgJXt2V41JgDe95M1FDnqhGjfHEuP/kw7aTGTkvtB7UUBuTDa99+yBLl486jMfit2X4ZPQwvDbaDaNDj6KMxFVDm03xZujaJJ+JzziarzlL3vqydG27yPP2YKF/OOKaZVdT9JixEZ889zMCnn0J/xrvDffBY/HRuT/Ra4Qn2h8OweQpfpBsy0FrMzJ2EwGbGrAPcpiY5GO7ZAS8PF9p3NdEAutbKBbU16pQGX6fkTWhHEYjfOMxdxiLwD4JmP3Kqxjt/xVKn+6oc78WjFm9+9ZDhjUW9WVs7qU0NqOoSnVCnXq2LPcSm5ZRxKpfrb2bzaZevslWypuO05LT2Ozi+8oTBkPav36NzblbqzrmgRvf1WxWu+la9m52GpucxnPtzwL2KjnfvFkd5euvsB++OIhdfkHKFlwl89AcT+1dNjstmU3LLmZbOkNdaNrRIOpL2ZxLV9iblRXsjnFd2cn7a1QXZMSWV9g/eHzQEv/U3MlkUy+ms7fVHa4zRgxHexz88WWwvWvusJmpF9n05oPlb7MBru3Uy8R+DUavYe9kprIX02/zl9fHg8SGnnjj9xc3r6u6fSi4Vvj9Wl+Wy15Ky2CF3Mpdv8o3rxbNmc++enxEYrki7wqbSq43RLcgLbS/1prjqa/PLppU3U5nU1OvsYVqC7m+7Dp7Lecu2XWaw29TYg8d+2D9lQ/ZFwctZy9I+fY1gXjREQuNCJbRvSZ0jkdWxl6/8gdPmwL7r45xtmTfMiYm3H9UeZbyV5FdxerhwaiPOocPn1U9oTzx/ImdPo44EpyDb8dbqM5R/hb8LeON8riQXV2N4cH1iDr3IZ6EcHnSxmNsaHI1KnUoysgF7J3QxaBfuD0JMJDmXsO9jv3Rqx33LoXy9+HvGG+Ux0ZdEZTh0sWwvwd42Dxp4zEyNLlSKBQKhWJk6KMKhUKhUChGhiZXCoVCoVCMDE2uFArlsSKX8/0DVArl742O5Mp9t+YDyJcZIhXFfSfqQ5Wje8CxG8CTLkdnOMaQZpL/jaTmnhwpKm3U7Khnbfw1qbTHZAM1WbRm469NwsejHNH/hRFYklCtuP6/gfD+1CgDaCAtLU95dOhIrg8oX2aIVJQeObq/zsOTXtMvR1eLE4sHw/+J1yMzhjSTAVJzT4w825MjRaWNmh31rA1huUFDeEw2UJNFUx9/Xdp+/FAtwf6kk/j3v9oorhudJyT+DJWGbJQBNJCWlqc8OnQkVxM0ly/jl7/SJeskKB2kJnGllBpLROKmuZi6eA8alNGYstPYtukwbqiO5XmH8cWu38mtGp8Mk6aUWG7T2LmrLZZAU7a357ck7Fk5C5OnLULUmRJytjnaEk8MSk5+je2/5iJ171qs2HAYCkWqB5HqUsGU/YZtnyc02eFGAjZxdlCHPO2c+jIMs6dMwTsfxuJaVTWyDn6KkFmTETh1Pj45ovp6P/JffmkmofINGGIPnjZaIs/WiHBfxpOi0iMdSOCLDT75KqH45eBtQyAWG2km/0aecE59ibDZUzDlnQ8Re62qUe5LW26wsoU+N2AsAnZSzHn3SfweuwbvBs9A6K5UaH3vjYAsWuP4pSSutxxHYck5fP3hTiRV6eirmX1bMCaB+OP1vU75Om0/6NqH9MvUqUlDEnhlAAlCEnJC5fnl1QyVvqMYG52vhZvLl/HIX+mTdRKQDlKXuFLIDi2cjo/zhmOG70A0KKOZWtYj9fPl2H6Za1CGaztWYctVVkCGiXvN0ly6rXHsDySBpmxv7uQwnO8dhFnupfgsaAk4daYm+CSeqtCmiyPsbVvBursLXF16oC3zIFJdTZhaMrj0xTJsTVXa4fL2FfjqmvqThxxZn0swLUYEr9lvwrNNBlJyryMt0xzD3gxHeIAFYmaGgVOfEpZmyuct34QB9uBro6oF8myNCPdlLCkqvdKBfLEhIF8lFL/8bQjFohrq8m9Zn0NCxinymo03PdsgIyUPdUJyg5YFLfS5/rEI2UkxZ7K5LzvXC36B/XApfBYi09QWPolJflk0bnoN438a/Xp3IuPvBpeBfdDhlo6+1OxrfbMFY7psrh1/AnPSJV/H54daHfuQfpk6NWlIIRlA3v1F4VD+8kLyagZL31GMjeF/0MQjf2WwrJMeTGx9sHR1AEYM7Y9GZbRWQxE49j4O7kuDTHYN+xIYjJs0iF+GSbEvakq3KXlwCTSl3FRksAdGTl2EwE5ncPSiaodQwC/xZNlvONx6tEEn1zHwHe2CtkUPINWlDrHDZF8GcTEpqJNdxr5DgE/gINVFAlOIw3E5GLl4GSYMd8eExcsxZYALJi6cClfTIuTX2qKrqBB5pTJhCSmRI095zTtcPfbgbaN1y+TZGtFne3VaKkWlW2pQiXZs6JKv4o1fvjYEY1FVpRkMCg/HIWfkYiybMBzuExZj+ZT+qu+ZJmhKn3V0bpHP9Y9Ft50UUmHrJPB4fQ4CBxcgI5P78nUVQlJz6lg44OWh9rCyHYDXfV5CmyPCfTXZ1wnywy0Zk5lW/N0VmJOwxCC/H1oJ7kMGyNSpSfUIywDy7y9C5QXj01DpO4rRMdzSJtwXVys/Nshf6ZV14lcw08LUsh20lNFgjiEB48Ae3Ifk1H1IEI2F/zNifhkmxYOcpnSbkgeXQDOBqEnLC1Zt7qOmWv2J0TCJpweS6mqGGM8FTUCbgz/gTNJeJJj7wF9d+o+5B+mfVrBRd0JdKiK93DBpw2EkXc1DeT1nI0ZYQoq3vOZc9NjDoDYMlaIS6MsoUlS6pQaVaMeGLvkq/vjVbkM4FpXHzSH+kv4JKxsbwxZpC32ufyx6JBk5IQHFJxFamZs2l0IUkpoTRHdfTfb9C2NSIFxfWGKQ3w/C+5AJ9MrUqSEsA8i/vwiVF4xPQ6XvKEbH8OTKgz5ZJ05fUls6yHDEzwZgrFk8PlpzEG18/OEslvPLMOngwSXQ5Ci6+DuUakjJuHDDHs5Oqojm0CHxZG4mQp1Sj6xlUl1MGa6c+B031R4COMTOQfDvfAj/t/QnWI/3h5O6tIS4Gxy6l+JCUgEZMWmiJANXfz+EAzdH4aNtkVg17zUohyYsJybPPcxTXhPd9hBu40Hk2fj74o+nlkpR6ZYaVKIdGy2Xr9JuQzgWFYcaiNHNoTtKLyRBubxKyKZ5p/lNiJr0Gb/9H0BCrnEshthJACFZNEEM7etBxqQef8L1hSUG+fxwC9kt3IeEpCEFZQAF9heh8oLxySN9J7t9Eb+m3VG0R3l46EiuapJLQvJXemSdRALSQertNZca00DsgkA/Gxw9ZoMJE/uQpSESkGHSlIdSO35ACTSuDZP87ZCM8ILnK4txzecDBNuLmsYrKPFkBie3AcjaEIA3Zm7GJasWSHXdP4rVfkuwt1C54TUiskdAQG9cOG+L8RMdiBXU6YDxi9+G7JPRGPbaaLiNDsVxq1fg2f4wQiZPgZ9kG3Jak4VtaiIozSTqNYK3fHP47CFutLNgG4bKs6l6UcJve6F4aqkUlVD5RvgkFAXkqwTjl68NoVgU8a+1DuMX423ZJxg97DWMdhuN0KNlZO019acufRZdOaxFPhcei2L0CgQlGTXmzD2pNVfDE5Kaa17XhFTi5sx9NrSvFo9JI/4seevzy2I2oO2He+hp0D5EPvPK1KlJQwrJAArtL0LlBeJTW/ruaeTtWQj/cA2JP4rxYf8yemSdBKWDHhwhGSZdtEwCrZ698uGL7KDlF1hpwVU2LVuoLyGJJ04WKZW9fLOSbRQkM0CqSxo/k33B/xv2Jo90nHSvhLX32sx7jUNWkcdeSSVtNTiBzO36tRwtWSlBaSah8goMtIdQGy2SZ9PTl9GkqHRIB3Jw9Xhio0XyVQJt8MaiELIKNu9KKmmDXzStmfSZkP0FbWDIWPTYSQeCUnOCGNpXC8ekFX989et1y9fx+KGl+5CWTF0jXN98MoDkPO/+IlRe2YdmfLZU+o5iHOgX9/Miw9XVwxFcH4VzHz6r5/dFxqIKp7/4HKU+IRjbreHOVwVTgm8mPo/vvc7jp9ldG+/OHx2P0h6Pw/YUCoViXGhyFaCuKAO5sIfTE6HldR+3M27A5DFKiz1KezxZtqdQKJSWQ5MrhUKhUChG5tG/YaRQKBQK5R8OTa4UCoVCoRgZmlwpFAqFQjEyNLlSKBQKhWJkaHKlUCgUCsXI0ORKoVAoFIqRocmVQqFQKBQjQ5MrhUKhUChGhiZXCoVCoVCMDE2uFAqFQqEYGZpcKRQKhUIxMjS5UigUCoViZHQmV3nh7ziSUoQGTX5jIs+NRlDAJmTKGRQd34IvjxWqrvwzqI6fB4+w46qjfxKPy19y5EYHIWBTpuqYYmwaY5YpwvEtX+JY4cNY+YbTtEc8Ht8zd1JwaO9exMbGkp+9OHAmT3XlwWiaj+rE46A6HvM8wlQHlIeJzuT65y+rMXn9SdxXHRsTtqYY13OKUcOyqC4pQEFJjepKS6jFicWD4b+zVHX85MBI85GZX646+ifxV/z1V2BRU3wdOcXG6vcxx07tCSwe7I8nKXQbY5atRklBAUpqHq9glvoeYVzfG0ZlwioErdiNM+fP4zz5+f1akerKg9E0H9WJxwEjRX5mvuqA8jARrSKoPmtRm7oHn2cPxIKJLjBTnQNTjtQ9H2PVumj8cCwTbO9B6N/JHLK8nxG5bBU+/+EUSroMwQt2rVUVOMjTzqloRERsxM6EK5D3HgxnnMX2Hxl4zxqJzhV5KLJyxfM9LcGUJWNXxAqs/zoeFyq74nnXrmhV9ht2HriBusxvELF+B05V9oTbwKdQcXIL1kfvR1L+nygpZuDwQl9Yl2vXby3Pw8+Ry7Dq8x9wqqQLhgyyQ2uThqGV4redcbhZfwVbV36MnSeK8dTzg2DXuhgntsagoOdA9GhjAtmVGGw6awY3p46kThmSd0VgxfqvEX+hEl2fd0VX0qD8ViI2EhtEJ+RAbJKLw8XPY5GvM3/5VmWk3wO4UZeJbyLWY8epSvR0G6il18oUnUJ0RAQ27kzAFXlvDHbpiGril49XrUP0D8eQyfbGoP6dYK6YB197MuT9HIllqz7HD6dK0GXIIHSrOImtMQXoObAH2pjIcCVmE86aDYZTeylpYz9u1F7D9jWRiLnaGgMG3EfCmnCs25MK0TMvkTIisOUqf9ndV5TPLjuJT1bG4J7rKAzo0HC/xqAseRciVqzH1/EXUNn1ebh2bQ22lM+XXdBs2rz2ZVFycjt+ZLwxe2QXVUFSlGtvfzbKTn6ClTH34DrKBbig3a+8WXwORq/r32jETjfcSdiEdes3YeveE8izegZuDu2AOyd4bdUPZzT6dcBdvvp88x0gwvkt6xG9Pwn5f5agmHHAC32tUc5jr4Yw5WDKU7Hn41VYF/0DjmWy6D2oP8jSa0Ioli1NeNcVtwb4Y9YJ5XlFsHJ9Dnb3T2vMcwCULmbI1HYi7mY9rmxdiY93nkDxU89jkJ0lTKqzcHDTOqzftBV7T+TB6hk3KE2xE/uzy3Dyk5WIueeKYa3OYNO69di0dS9O5FnhGTcHtFO73WdKTqr2iFcg+q3J91pzecYCF3ZsxdX2g9DXhjRA1vvhqHhInfui6oiAT3jn1Bxu/9tcORk/fbUQY159FZ7Pd1fZ2IB1y7eP3W2Yz0h0UZ+n1hq3xI2D2uM2lfHsYyz/ftwM+S0kbiT1ohOQIzZB7uFiBC3y5QbJu481ob1vu3QSo/wx7z9COUgd3nhnDfOdseAJKV3IcWPrVEz8ogLus+dD4nwZ4d7zES8tR2zIezjrvBBrloxFb3G9qrwSedbnkEyLgchrNt70bIOMlDzIVNc4B95O3IKoo4WKRbFtxjTEtJVgxVI/iHdJMCe2hATfcWx+LxjLzvWCX2A/XAqfhcg0Bm26OMLethWsu7vA1aUH2jL89ctjQ/DeWWcsXLMEY3uL0Wx03CuwzXMxOew8egfNgnvpZwhaEo9yJh9HoqJx7Jby1dj9lO+wLvYq+SRH3rYZmBbTFpIVS+En3gXJnFhyOhubpk5HnPV4zPBi8O2WRPJsxCFQXtHvewhedg69/ALR71I4ZkWmKWo0Is/C5xIyH5EXZr/piTYZKcjN3oqpE79AhftszJc443K4N+bHS4XbK49FyHtn4bxwDZaM7Q3ONUz+EURFH4NyaveR8t06xF7lLnBtLMC0VRfhNPFfMIudBo9R4UjpHwgf64N45/3vSCJQ85ei/EJM/zgPw2f4YqBN08KU523DDOLztpIVWOonxi7JHMSWMKQKny+bokHQXgIo2ls4HR/nDccM34GwvsnXb5lGfMp5YicfaZnmGPZmOMIDLBAzMww/VgrbSrNfG6H6fPO9bI4ujvawbWWN7i6ucOnRFoyAvRqR38DWqRPxRYU7Zs+XwPlyOLznkwSiuqxAKJYF1pVgzDK3kbglCkcLVf5Sn2eji7lfD2zG3MlhON87CLPcS/FZ0BLEkwdfeX4aMs2H4c3wcARYxGBm2I+oVJVfOP1j5A2fAd+B1shPy4T5sDcRHh4Ai5iZCOMMpg++ueyrRn3q51i+/bJiX5Fd24FVW66CFevwCe+ctKm/lYwfudfCe39CchHxh0HrVsDefPCs8bxa/nFr72NC+7GqbQVyZG+aiulx1hg/wwvMt1uQqHCy/nXGt2/X3njc+48BcxayvyG+MyItS67MLcR/n4bhoWsQ5P4SvN6JwKxuRxB3RgZrKwa5ySko7jAUXi90VlXgYFB4OA45Ixdj2YThcJ+wGMun9IdYdVUdpvgQYpLsMMReivSsGjg4W+Fc4gXFNdMeQVi7TgKP1+cgcHABMjLrYNlvONx6tEEn1zHwHe2Ctnf564utrcDkJiOluAOGer2AzpqzNu2BoLWRCPYYiamLAtHpzFFcVGZGbZhiHIpJgt0Qe0jTs1Dj4Ayrc4nkLvsIEtJfxtxQH7h7h2DrUg/l05hAeQWKftdB4vE65gQORkFG898pMYWHEZczEouXTcBw9wlYvHwybBK+R9rwUKwJcsdLXu8gYlY3HIk7o3x1z9ee2BpWTC6SU4rRYagXXtCavAakjUmrIxA4yhczve1g6bkUa4M84TPzDfS4no7r6nmQw8QWPktXI2DEUPTv2NA2g+JDMUiyGwJ7aTqyahzgbHUOiReUtzV8vmxEl70EMLH1wdLVARgx1Anyw3z9slrxqRk7NmaOmLhwKlxNi5Bfa4uuokLklaolNx6a+u2Pjjrqa8/XDP2Gu6FHm05wHeOL0S5tcVeHvTiYW/H4Pm04QtcEwf0lL7wTMQvdjsThjObvbHhiOSWff10IxqwGzebZLHxM0SNoLSKDPTBy6iIEdjqDo2ThiBwnYuFUV5gW5aPWtitEhXlQmsIEtj5LsTpgBIb2fwqOExdiqqspivJrYdtVhMI8/e/I+feIqxgaOBb3D+5DmkyGa/sSwIybhEGthX0iPKfmMHczcPb0aZw+fQ4ZDTc7+tatjn1ME+01PgX9W/GPW2sfg9B+rBYUTAmOJKTj5bmh8HH3RsjWpfDgnKx3nfHt204ojn/M+0+d/jnrtL8e3xkTPTPVgDyOSystYdNelRpFtujYrhZV1W3gvTEOy3udwIJhzyFoR7byugIG96R/wsrGRm9nrFSKClkFbmVmICMjA4V2/ggNeEZxzcRUpErIIrQyNwW5gdFCqL6V90bELe+FEwuG4bmgHcjWrGsigpnqrYKJlRXa3K9BNStwO8tKIa2QoeJWpqKPjEI7+IcGgL13D1WW7dFB9f7cTKyykUB5BSamEDWYspU5TDUmxdyT4k8rG3BvupQwKJdWwtKmfaMtbDu2Q21VNblC4GvPyhsb45aj14kFGPZcEHZwk9dxp97UhgnMzMwgFosUfjMRm8GMZcj9rgamlmjXTtVpIyyk0grIKm4hk5tzRiHs/EMR8IyynE5f6rKXAKaW7aAcglC/NjriU0VdKiK93DBpw2EkXc1DeT0LlmV12qqpX4JQfYL+2NVtLw6mXIpKSxs0Lb2OaFdbhWrVft8ITyxXCawLwZjVoNk8m2ECUVNnsGpzHzXVLDFFJLzcJmHD4SRczStHPbGD0hSmsGzXTmWLOqRGesFt0gYcTrqKvPL6RnvpQmiNmw8JwDj2IPYlp2Jfgghj/Z+BWIdPhOfUnFauEqzbsAEbPo2AZICqgp51q2sf00R7jRMExq21j9UL7cdqQcHew70qS7RvcrLS/nrXGd++/QTsP4I5qGnOOu2vx3fGRN2l+hHbwbFXBVKT8pWbrPQUzmT1xbMk6OrMneC3cjdORrsjaWe8orgSMbo5dEfphSQUcJXInVRGxh2lMzQQdesLe3MLuEhCEBYWhrDQEMz26Ka6yo+5mQh1ZAPhEKovrzOHk99K7D4ZDfeknYjP1+hdXoSLv+eS5Q7cS76AG/bOcDInm4XFXRQWkrPkLu/U2Qzlq2xRN/S1N4eFiwQhXB9hoQiZ7QFRV3t0r07H5dtkkowUyRezdZY3BHE3B3QvvYAkpeFQkpGNVn17oSI1CflKB+DUmSz0fXYA7xOHAnkdzJ38sHL3SUS7J2FnfL5i07W4Wwjl1E7hbIbm4+hfRYRufe1hbuECSQg35zCEhsyGRzeR6roO/oK9hPsl+xVPfKrHjjz3MA7cHIWPtkVi1bzXYK8yqKG2EqovjDnMRHVQdq/fXmI7R/SqSEWS0vFk6Z1BVt9nMUCzH55YdunJvy4EY9Zg5Ci6+DtylZ3hwg17ODuZIvfwAdwc9RG2Ra7CvNfs+WNTnovDB25i1EfbELlqHl7TbzAFgnuE+FkEjDVD/EdrcLCND/ydxS3wiQy3L/6KtDt8u1LLack+pr3GM3Arm3/cWvvY7W4C+7HaREVdYd+9GumXb5MyDKTJF5HNOVnvOuPbt0vRzfEx7z+COahpBA+SRx4GOpMrl9nrfnkfzzk5wcl5ACZ+WQqfsEWw2OyFl8eMxYhhi5AzKQJv9cnCRt8h8PQLxIQPTsFxgpeqBSUdxi/G27JPMHrYaxjtNhqhR8tIz6YwFZEfcodiSj6LyA/ajSObihWiXh+JCZLJ8PUcgQVxleRmo6GsElNy6yFS7DtmcHIbgKwNAXhj5mZcsuSrL0X6Rl8M8fRD4IQPcMpxAry6a0zbxAT52yUY4eWJVxZfg88HwcQ5Dhgb2AcJs1/Bq6P98VXp0+hoxtVrh3HEWVZRr2PkBAkm+3pixII4wNob82bWkDvOURjjOQ7/ybdFJ13lyR2UKXmi4aatgHu6UU6qiQ7jsfhtGT4ZPQyvjXbD6NCjkI8LwyKLzfB6eQzGjhiGRTmTEPGWE0QC7cnSN8J3iCf8Aifgg1OOmODVHSKHsQjsk4DZr7yK0f5fofTpjlAMVaMNU1Lf1FR1m8fdQZJrInV/afapRrtxZLFaReH1kRMgmewLzxELQFypw5cNCNhLvV81NNvj7VeazhOfzWPnavcR8Gx/GCGTp8BPsg05rc1IX+TJTMBWmv2KevHXF5yvmRPcBmRhQ8AbmLn5EiwF7NWIjQ/CFllgs9fLGDN2BIYtysGkiLfgpBEyvLHcgX9dCcasml81x98cMr/87ZCM8ILnK4txzecDBJMNu9cIT7Q/HILJU/wg2ZaD1uQmxpSMq5n/RL0wwrM9DodMxhQ/CbbltCY3G817aepb/x7BJQOXQD/YHD0GmwkT0YfYxVCfcL+j27PQH+Fxd1QnlDTb/5ycMXD67ma2UUA+a61bA/cxBTxr/F5PvnHLefaxDvz7cbOgsIb3vJmoifTCqDGeGPeffNh24p5ihdZZE3z7djufx73/2Oifs1CMGOI7Y8I+CDV32MzUi2z67SrVCUJ9GZt7KY3NKFI7p46sgs27kkqu16hOCFN7N5tNS05js4vvq87oopa9m53KXr5ZycobzmjVr2fLci+xaRlFrNbo6q+wH744iF1+QcoWXCV17taqLnDI2LLrV9g/+MZRe5fNTktm07KL2aarXD9X+cfNW94QZGxF3hU2lYy9yXI17J3MVPZi+m3t+fBQX5bLXkrLYJu5RlbGXr/yB2uQiR8YzjdpbHJadsv7eWB7cfD0yxufGrFDyly/lsM2CwEOQ20lVF8Ibo6pl9mblY2Rq9deNXcy2dSL6az60mtEZyxz3fGtKx0xq5N69sqHL7KDll9gpQVXiZ/uktE3UV92nb2W0/ycNqTv69fYHIMN1oTBe0RLfWJEDN/HeNY477g5X/HsY3z7sQbcHnCVby3pW2e8+/YTsP8YMOeW5RHjY8L9R5Vn/zeRXcXq4cGojzqHD59V3SVRKH9HHmksy3B19XAE10fh3IfPqn4HR6FQGqDJFXUoysgF7J0e2r93olAeDY82luuKMpALezjRhUOhaEGTK4VCoVAoRqbZ79YpFAqFQqH8dWhypVAoFArFyNDkSqFQKBSKkWl5cpXnIjooAJseq27Sk80TIS31MOC+m/MJkCL7O/EwYqFJzpD7vl5++b9/ruQhhfL3oOXJla1B8fUcFBtNN+mfJ/31REhLPQyeECmyvxMPIxaa5AyF5f/+uZKHFMrfA52Sc7ySRK3u4uT2H8F4z8LIRt0kpfyUupzUqy7glTNqLk3HI/3lwuLUZm25qjsntiKmoCcG9mgDE9kVxGw6Cxc3J23JsZda4QxPfW58B27UIfObCKzfcQqVPd0w8KkKnNSU/nKQ44JOGabmGCwtpZBkMkROiV8Gik/Sj7dvTp5PQ4LN9BKPRJRqWAp4JcJMtfvsbtEoRdbT8h4ufrMWqz7ZgYQzKTh/OhOmTr1QsO9HXkmn6qyDuuXFdEm78UnUCYy5EaPbm0UWnwyYqjsOvjlaC8YCvzSc0HiEpOEa5f96WgpKHuqVqqNQKEZHfW/QoCXSX9pyUvx1NaXptKW/LAv45aryj0Qh+tgt8olwPwXfrVOORUtyTKA+N773gpfhXC8/BPa7hPBZkWT2bTSkvyxxswVyZy2SljJQTskwu9UL9q1ljzwBiSg1+CXCePpUkyK7n7gMkqh6+IUuhHvZfuy9boWnWhcLSDrJ9cqL6ZR245Go4x+zGka3N78MWBP659iIYmw80nBCa05QzlBdrlGgjCFSdRQKxegIJ9cWS3+pyUk5yQXqivVKf3V0FpKrEkZdPuopwfpKeax1Eg+8PicQgwsyyDnL5tJfznU43II5t0RaSoFeOSUhm2vbTVff6hJstQd1SESp4JcI0+5Tnapc8jQ5YATc+z8Lzxd7Q9b6KThYkQu8kk6iB5IXa4BPok5Y1kwNI9qbdKhHkq6Fc1TYSUPmsIZ/PIZIwwmVMViqjkKhGBXh5Npi6S81OSnBulZ6pb+E5Kp0qRSpy0cJy12ZgPvSdAWiVjA35cnYLZxzS6SlFJiY6pZTaoHddPXdZA89ElEq+G2m21fWrgNguf99jJvsj/GfVSBoysvKDb9xjpyZGySdDJAX0+FgPsk2YT+rYUR7C8mANdFCCTU+mUOGfzyGSMMJlTFYqo5CoRgV4eT6V6S/BOvK9Uh/yQXkqkxgZWWBu4WFZAtjUHzqLPhVioTq60JN+kvHnJmyKzjx+03F5waMLm3UArsZ1rcYdnolooRsxu8rJTL88d9fYTFjPVa8uwQ7Tybi/4Zxj60CGCAv1jIZqgfxMw8tsLde+bKWSqjxyRxa8I/HEGk4oTK6pOpkty/i17TmSjAUCsU4CCdXQ6XSFGjKgQnUlemT/opG5TA+uSoRHMYGok/CbLzy6mj4f1WKpzsqb9GbyziJDJO7IqVF5ClGQTPprzyMEZBhun90NfyW7FV8bqQl0lIaduOXU2qB3Qzs20ZIIkp1XdBmcp4+G+cgRs8Xn4V09zIs/78wzBg9AK6+m3CpvvkcyUCUkk4GyIsZKu2mlGwT8rOqEIeR7S0kX9aIwBx5Y4GDTxpOJDAeQTlDtbgWKiMoVSdH3p6F8A9XxjeFQjEy3HcL6+SvSH/x1TVA+ktIrkpGzl/5Q/84DJO7UkNT+ktr3FI2fuYLrP83NxVHmhhd2shguxnat36JKF6bCfTJspXsHv9ebMD35crD+0fYtx3c2X/nyJTHvBggL9ZCGaoW+1kIQ+3NKwOmjoESanqk4XjHo5Ab0ycNJ1xGp1QdhUIxOvSL+w2h6jS++LwUPiFj0U3rEeR/ERkubfCG/w5TuLnZgc1LQebTC/H915PJ05eqCEUYKnNIofzjocmV8sDUluQg82YFxE/1gaOdtdqrZopuqMwhhfJPhyZXCoVCoVCMDH3JSaFQKBSKkaHJlUKhUCgUI0OTK4VCoVAoRoYmVwqFQqFQjAxNrhQKhUKhGBmaXCkUCoVCMTI0uVIoFAqFYmRocqVQKBQKxcjQ5EqhUCgUipGhyZVCoVAoFCNDkyuFQqFQKEaGJlcKhUJRIZczqk+UfxxyOeSqj48CncmVuZOCQ3v3IjY2lvzsxYEzeWSAuYgOCsCmTD3DZIpwfMuXOFb4pAVrNeLneSDseK3qWBt5bjSCAjZB3xSNDVN0HFu+PIZHYzI5cqODELApU3Wsi6ayj8ok1fHz4BF2XHXEg6Fx2BKq4zHPI0zxUdAXamUeGg9jbvr4K/PSW7clsabBI9xH6pKX4xXfr3HrYXXVaCcGRce34MtjhcrzFKPCt3aZO7EIfkmC7/MfyeaqQGdyrUxYhaAVu3Hm/HmcJz+/XysC2BoUX89BcY0eMR22GiUFBSgRKFd7YjEG++9Eqer40cFAmp+J/HLh8bM1xbieUwx9UzQ2bHUJCgpKBPqtxYnFg+G/01gWY1FTfB05xTWqY100lX1UJmGk+cjML1cd8WBoHLYERor8zHzFR0FfqJV5aPzVudWewOLB/mhRqPyVeemt25JY00DPPmI8qpH4dTy6+vuh68N6n9doJxbVJQUoKHkAexh9H/jnob12ZcjYl4huKzdikt2je1mrt6dWAyYhIjISkZH/xkez3FRntZHl/Yz1cyUIDF6IqLNlgIkNutnbo2s7E+4ifl4/F5LAYCyMOou7d07i6+2/Ijd1L9au2IDDN+VgypKxc9ksBAXNwtIdyZByNxhMKX7b8S1Onv8eq96ehnfX/Rc3713BHlJO8uaHiMutU/RdnXUQn4bMwuTAqZj/yRHka93wy3Er8VO8FzwN8yJ/wW2Z6jRJtGXJO7FsVhCCZi3FjmQpOdNAFdL3rMCsydOwZMs5lCku6CpPUI03MXET5k5djD05ZCBMGZJ3LsOsoCDMWroDyYqJAeUXv8GKt6Yi+J0lWLZ8JaJ+vUNM1g329l2hNJm6Pe+i5OTX2P5rLlL3rsWKDYdxs16zr0pkHfwUIbMmI3DqfHxyJF/xlMmU/oYd3yYicdNcTF28B9yQtKnmravF/SzEfvgOps4Ixa7USuU5phyp363C25JJmDInAvvSq5SnNfutzMLBT0OIPQMxdf4nOKLtJMhvJeLT94IxbV4kfmlykqANtWFQ+tsO7PktCXtWkniYtghRZ0pUPhLwnfwWEj99D8HT5iHyl9tkGSpR94VQGaG5N8CU/YZtnyfghmqq8hsJ2LTrd+VBAwbPjcBbVoa8n9djriQQwQujcPbuHZz8ejt+zU3F3rUrsOHwTcirBWwvNC9imfLU78iak2DSlDmI2JdOVoMGgjYxfD7KGDmJ898TG057F+v+exP3ruwhPpLgzQ/joFjeOvaRMkbp729Pnsf3q97GtHfX4b837+HKHtK/5E18GJcL5Q5hwHxqz+KnX7vBY5QNNzCytvbgt6Q9WEnWxLRFUThTopoH3/wU5Xfj5O+xWPNuMGaE7kLD8uC3kwlsutnDvms7xZHw3qfZJqO9DxBX8tYXgtc/SjvuPvk7Yte8i2D19d2AoE1UPkhMxKa5U7F4T47OPvjWJu/+rbWX8u9vXLtFp75E2OwpmPLOh4i9VtV87SrW6Bp8dqYc+Qlf4YD6/rT7JH6PXYN3g2cgdFcqNGb8l9GbXOtvJeNH7rXw3p+QXCTktXLEhryHs84LsWbJWPQW15PR30biligcJc/m5bEheO+sMxauWYKxvcWQt+kCR3tbtLLuDhdXF/SwvIltM6Yhpq0EK5b6QbxLgjmxJaSNIhzfvADTVl2E08R/wSx2Ggn+cKT0D4SP9UG88/53KGbkyE/LhPmwNxEeHgCLmJkI+7G5meTZmzB1ehysx8+AF/MttiQqXwnL87ZhxrQYtJWswFI/MXZJ5iBWtYhkmd/hywt9MXnmcBT/JxCLfrqns7wCxXgXYvrHeRg+wxcDbRjkbZuBaTFtIVmxFH7iXZDMiSVJKhHLJFGo9wvFQvcy7N97HVZPWRKTJWJL1FEUkoBobk852nRxhL1tK1h3d4GrSw+0ZTX6si5AWqY5hr0ZjvAAC8TMDANnBu4VyeaF0/Fx3nDM8B0IGy7gNJHn89ZtDrn727UJSb0nYlK/SwifFUnOyXFj61RM/KIC7rPnQ+J8GeHe8xEv1e7XuiANmebD8GZ4OAIsYjAz7MfmwSzPxqap0xFnPR4zvBh8uyWR3KMrLvDbkBfuddtmzJ0chvO9ycJ2L8VnQf/P3pkARFV9f/zLDJsCgYpLIiSiApJouZAKiIihSYqIgIhgbmUuaSqBey6VZWZlmpamllku9cNM+6dRLrmBCihrAiKCCMIgyD4z93/fzAjD8N4w6FRW9/P/02/ee3c595xz77nvvXHOYhymN8D8tqvD9c3heCnGAuOm+kL+1XaoXEPNFjKBMsJjf4DITI6kT5ZhRwK3pEpx9YsV+CxF/Q6sJWMTKFt6AJGvnYPzgrVYPKYbDGWt0cnRHtYmFuji4goXuycgz+XTvdC4aE83diB8wico85yJeWHOuLrED/PUByZYtyXjUfnI/ClYdcUJE14wwoEp3hi+5BJ6hfjD4sgsvP51IeRa1pE6lb3nT1mFK04T8ILRAUzxHo4ll3ohxN8CR2a9jq8L5TqMh0qeE48ksROebkuXRMU8noNJ0RfQjQYsz+KPELr4MF3lBManKE8D6LLz6BoYgp5JSzB9QyLXqoCe5Lgdux1bT+RxHWtZ+zTbvNp0HZAL1OdFyD5KPb4WsQznuwYipH5+qyGoE2XdBS+9gxyPqQjoY6G1j6ZzU2D91lxLBdY3WcbHCKPzWuw7EzN8WiPtUg5q1eau1vWJbuSXne+KwJCeSFoyHRsSG7aX+qDZ4Cq/m4Zzv/+O338/jzT1QNIIQ1iYy5EVfwmFbQfDd0BH1XklhhbmkGfF41JhWwz2HYCOFj3h4WaH1u1dMTpgBJxrj2F/nC0G2kuQmlEFB2dznI+9rKwsssPENesQMjwA0/xsYeazFG+F+sB/2ouwy05FtlQMxwkLEO4qQkFuDaw7i5GXo/7IhO72jh9F6pA5iPL3hF/kDiz1NlGcL/xxP+JsB8JekoqMKgc4m59H7GW6MaCIu0/Be+9NxjDvCCwMaY/fj8cjV0v5egys4b90DYK9BqNXm7v4cX8cbAfaQ5KagSoHZ5ifj6U3xVm4UdsbXp690NfnOXSTtkIHB3NVAxxN9WnW0wNudq3R3nU0Aka4wIqznHpfHZwxYUE4XEUFyK2xRmdxHnKKlfYysPbH0jXB8BrcC+34LC52FKzbgBg9p23Eu2HeGDU7BP1vpVEV5uPwN4nwiFqLUM9B8J21DtNtjiPmbLWihnq/HZwnYEG4K0QFuaix7gxxXg7Uu5AXHcfR1CGYE+UPT79I7FjqDc5KkBfy61AQEexC38KGCG8MC1+IkPZnceJKFb+t4/Nx/GgqhsyJgr+nHyJ3LIXCNdSRF/GXaWbsCkwGY1KAHDH7L6FWehWHfgT8Q/qpLlJaMjahsoYWMJdnIf5SIdoO9sWAjhbo6eEGu9bt4To6ACNcrGDkyKN7qcC46LzIP/wNEj2isDbUE4N8Z2HddBscjzmL+pEJ6qSltuKm90SsWReC4QHT4GdrBp+lbyHUxx/TXrRDdmq22t00zzqi8GVq74lrsC5kOAKm+cHWzAdL3wqFj/80vGiXjdTs2ubHQ5EV3MZdq/ZoL1adoOtO6FsbEOE9DOELQ9D+7AlcqdIyPkX59QjzHoXZIf1xKy1dWE9qyAt/1Lr2abapuQ48cVdLfU202kc5b9arz29N+HSi2CwYwNp/KdYEe2Gwk6zZPhrPTanw+t3s+iZF3rEYZA5bhGXjPeA5fhGWT+5FV08VzcxRkV0o3lofBu9RsxHS/xbS0pXPOfRFs8HVxDUM6zdtwqYP1iGsd73YGpjD78MYLO96EvPdn0Horuuq80rM/T5EzPKuODnfHc+E7sJ11VOpBxCJBGXSMuSnpyEtLQ15tkGICn5aedFABLGiWwMYGRnB0FCsENrA0AhGhO5KUYuEDb5wm7gJx+KSkVNaB0LU7w4I7t2rgFmbtjBSHHNtKM9LJGWQluUjnfaZlpYH26AoBD+tHKOB2AjGyk+wsGiN6qoKreXrEZnB0lJ1jkggKZOiLD9dMa60PFsERQUDFq7obfYdXh87CUHjPkJZ6GQMaTTptOuzHvW+ahOwwdcNEzcdQ1xyDkrrSL0eRGaWeFCMFy11GzCASGkIGmdNYCyikZHeYUvKzWDV5sF5a7SzrEFFpTJqqvdbm7ABvm4TselYHJJzSlFH21fvgty7hwqzNmirNBKMlEYS1qEgBhAbKS0HA3OYt65GFZWH13YuFbhXYYY2DZ02TMwHkHv8ZZoZuxJD6u/j0frItzgbdxBHjf0RpD6HWjI2obLmfvgwZjm6npwP92dCsUtzclF4dS8XGBcNrqWScphZtVEdi2HdzhI1FZX0igohnbTYVtREIrGyrgGdz1w7YsXshiGd64TeeajDv440+KUBrcP5jbIJQ9oegVymw3gUUGfk9KI6ogsAGtzIHK2rq1Ap1zK++nWKmx7GEHGyC+lJDd3WPrU2NdBaXxOt9uGZ35rw6UShMBHMLC118AG+uVkjvH43u77JcE9yH+ZWVvyBrJk5Wu971CdMjEXUVxQHeqPZ4KobNMQZOyFw5V6c2uaJuN2HVeeVyGqN4RS4EntPbYNn3G4c5r6xZWwEcS1VLr0utukBe2NTuIRFIjo6GtFRkZjpbaOs3ByyLBz7/iaGv70TG1bNxUh7ja0hVVxn+y6oTL2K21R5ckk8rlzn9sNi2PSwh7GpC8IiaZ+036jImfC2UW5dZQWJiMvhyt3Dpcs3YO/sgqe0lOdFbIMe9sYwdQlDJDeu6ChEzvSG9I//w2+mU/HuilexePcpxL7pTsOpOvz6NDYSo5Y6NB+yrGP4/uZwvL1zA1bNHYkmatDCQ9c1tIVj1zIkxKnef0hO42xGD/TtrdmADFnHvsfN4W9j54ZVmDvSXnlXqoa4sz26VKbiqtJIiL9yXXnXIqBDYWQouHJR+b7uXjwu37CHs5Mpv63tbGHfpRKpV2/TWjQAx1+BwjXUEXfmL6Pj2A2dQxHU8Ue8ufQHWIwLgpO6u7RkbEJlZbUwdgrEyr2nsM0zDrsPc1+YMYaRuJZuCLmKAroXGhddbmwdu6IsIU713QUJTp/NQI++vRtsJlS3xbZqGbzrSLPoMB6KuGMntC25gzuKMhRZAa5cVL6zvRd/GTfsneFk2sLxCeq4gYdZ+9TXAcH68hJcO3kRN9Vvxh7VPnw6Ue0b6tHaB8/c7JHbzPqthH+NMoSNQxcUX47DLc5u8iIa0O9QTavQeX1Sg09vD4nW4Mrtlmp/fh3PODnByckZfV7ay4V7iGjEF6nXlKbiw4CB8AkMwfg3TsNxvK9aOSlSPwzAQJ9AhIx/A6cdx8O3iwhGTm7onbEJwS9Ow5ac0XSxM8fWUcMwPmwSAny8MD+mvElfIjH3WbUL4e5g6TWxuCu8fNrgWOQkTA4Mw87MVnRhaTwsC7+5mFZFd+/DR8Nn7EbkWreHES1iOZYa3nwrRg0bj7BJAfDxmg9Ft7Rfo3blOBT8HLy9vbAoxR9vRNijrUD5eproxhJjqbObbx2FYePDMCnAB17zY2D41HPoK9mLZcvfRPTUEejtGoDNSbW0Oq1PZRfx6ZPecTu59UbGpmC8OG0LkmSN+xJ39YJPm2OInDQZgWE7kdmKbl5EBg1tKoupQXeq9JqY+xOo20BDWSX0M9U/YAX/6IUw3eKLIaPHwMt9ITInrsPLNII07leMrl4+aHMsEpMmByJsZyZa0QWiURcWfpg7rYruTodjtM9YbMy1RnvOSAI6bKrrB9Ax536BMC9f+AxdhBT/NxBhLxawtQX85k5DFd05Dx/tg7Ebc2HdXrlaNMgvVEZ47I0Q2yM4uBsuX7DGuAkOVBPqtGRs/GWlqR8iYKAPAkPG443Tjhjv24W6ihPcemdgU/CLmLYlGV14dS88div/aCw03QLfIaMxxssdCzMnYt3LTmqyC9UVGE8T/1HS2Efode5z/fTmrtEe63XBt45w59XapeW4z8omuDtYrk1dxsPNn2fgUpeCpAevvgwMkPtFGLx8fTB0UQr834iAvVhHe9HPhlzHgnpS04flWJ3WvoY2NdYBM4H61SewJnAxDuY92C1w6Gof+lkxvzXg1YlmXaE+OHjmZncH/vVbY/xCa1TbcYvwivR9jHAfiRFuIxB1ooSKz/kO/dN5feLUS/2FGzKv3h4SeguuH+pKSFZSIkkrqFCdUKeOlGQlkcS0AqJ+tebudZJw9SYplzUcJ8YnkuuF1coTOkPbz04hmXdrVMc8cPIlXydNm64hd68nkvhEnmv3b5Fker5xs1rKC1Fzl1xPjCeJ1wsJV6V8XxDpGvwNKVVcrCbHX3Egnu9lKo7q4dUn13cCuXqznKhU1hhaJzslU0NeHXmUulV3SHrCFZJ6m8/2DdSVZJOUzLt0FEJwfpLMb38NHfJTR66tfo70W36ZSG4l07KaffHbrq4kiyRrbVdLGR3GLjkYRux9t5CbvEaj6DQ2FTxlOdmSEtNIY1eh5RKukpuqySWke+GxV5E76QnkSurtRnNWHcG6LRlPi+D8o+k6ohvNjaecxLzUk/h/cYfI6q6R1c/1I8svS8itZLoeaU6KFo5PF/9q2drXdB3QrC85PI0MCPqS3+cexj7N6USTJn1om5vUrs2t3xxCa5S0jORcS6BrZZXqhAY6rk8cWvXWQgy4/6jiLOMvQpq0CX5BuyByc4MtycGl9Cex4JvPMYneYTEeBSmS13ggom4rzq/uq7qD+ZuRF+HLCc/iG98L+GFm5/qdMuPxo/bCUni9ZYcDB9yxc2gE6raex+q+j4UXtZAK/P7Jxyj2j8QYGz15nDQZazweRSeP4dxsgn71xoLr30VNETLTb6LMsAO6O9rCgsVVvVBbkIYs2MOpk5b3Kn8p1biddgMG9k54bERiCMM9FRbVoiAtC2A2U+PRdfL4zc0/FxZcGQwGg8HQM+wpFYPBYDAYeoYFVwaDwWAw9AwLrgwGg8Fg6BkWXPWFjPtn4gwGg8FgaA2usoYcjNyPKD+WuVn/GprNLQoprrzphRe33GABlsFgMBjagqtaDsbHKjfrX5/PsNncojCEa+gLKP/qS6Ro/nweg8FgMP5z6PZYuKW5WUsT8PWqVxA2cTJmrzsEjTSXTeDLR8ifb69pPsMbhU3zlfLnNyzFlS9X4OXwCMxavAzLV27Fb3fkgrlghXKLCo1N3H0EPGp+xg88P5zOYDAYjP8WugXXFuVmzcGO8An4pMwTM+eFwfnqEvjNO4zG2RPVEMhnyJ9vT94kn6H5ncZ5Q60E8htWxy5D2NY6BEYtgGfJdziYbY4OZoQ/l6BQblHZDeGxGTrh6W5c6q9K7ojBYDAY/2Fa/IWmZnOzVh7BN4keiFobCs9Bvpi1bjpsjsdAPc2lOtryGfLl2+PLa6qeN7SNQH7DiqwbqO3tBc9efeHzXDdIW3WAgzl/Llih3KLy/MNaxmaE9tatUJRfyB0wGAwG4z9Mi4Nrc7lZ5aUSlJtZoSGFXjtY1lSgUZpLNbTlI9Q135563lCh9ixce8Psu9cxdlIQxn1UhtDJQ2jA5M8FK5RbtLmxcXXFitQKDAaDwfgv0+Lg2lxuVkNbR3QtS0Cc6uWl5PRZZPToCy6FnrzkGk5evKk4/4BHzWeoCX97HfHH//0G06nvYsWri7H7VCzedDeng+HPBSuUW1Tb2Ljf3iwsqkSbDm3oZyluX/kNiXcEdhQMBoPB+FejJbiq5enTmlNRIzfrTT9ELzTFFt8hGD3GC+4LMzFx3cuKJNHVJ9YgcPFBVfsqBPIZCubb08hneFXeuBx/e1V46rm+kOxdhuVvRmPqiN5wDdiMJJlALlih3KJW/oJjQ20Krmbao9+zXNDOwb4FQVgSc0cpE4PBYDD+UzzED/dLIclORW4tl82lI1qrztYWZyL1tjEcetnCnMah6sIMpOfL0bGnEzopCpXih+nP4yuvQ/g2zFZRRx2uftqNCpjZOcKhfXNZE2pRnJmK28YO6GVrzrtDaNxeHb4J7o3/BSTQ/7UEak5glssaOPwci0XdCCQ3/oDEwgHd2hmranNw48xAiblDE3majo3G05R18Jxah61nVsFV9diYwWAwGP9N/rqsOBW/45OPi+EfOQb6SjGoO1IkbfJD0C4R3NxsQXIuIf3JBfjm80nQTwpVKS4tH4blHXfjhzndwN66MhgMxn+b/1TKuZqiTKTfLINhh+5wtLXQcxDk3q/+5bsGBoPBYDyGsHyuDAaDwWDoGXarxWAwGAyGnmHBlcFgMBgMPcOCK4PBYDAYeoYFVwaDwWAw9AwLrgwGg8Fg6BkWXBkMBoPB0DMsuDIYDAaDoWdYcGUwGAwGQ8+w4MpgMBgMhp5hwZXBYDAYDD3DgiuDwWAwGHrmsQyuMhlLMs5gMBiMfy5ag6v8ziX8ePAgDhw4QP8O4vuzOTTyZWFbaDA2p8tUpYSQIWtbKII3p9NPOlITh3eGO6LXAC8sPlqpOqlB5WHM9Y5WHfDxEP3qjUocnuuN6F9rVMePMw16enT02dZDUO8TchT8uh2f/pKnPK9Os37z91B5eC68o3+lohfg1+2f4pc8trHUCZ3XoT8JHXyu3rb/JNT0Ki/4Fds//QXMJR8OrcG1/OgqhK7Yi7MXLuAC/buYUgCQKhRmZ6KwqrlkOgRVhdnILKyin3SjNvE7fFsZhu/iTuG9Fx6kYddALkFueq7qgI+W96s/5JDkpiO39J+QaKhBT3RXg5OL+iNod7HyUotRb+tvoN4nCCqLbuFWEY8czfrN34Nckov03FIqeiWKbt1CUbPzioeak1jUPwgPbb5/IjqvQ38SOvhcvW3/SajplVQW4datIvCr+FHXjH8/zT4WNuk9Ees2bMCGDe/h7eluqrM80J336U+jMXPyZMxafQApFarz1Rk4sHoWwqdGYU9CufKcvATxu5dhemgopi/dhXiJnJ46g53bf0Ve0Xl8vno34h7U55DlI/aD1xAxZS42/HwbUtVp2hBK4ndj2fRQhE5fil3xEkVWVQUVqdi3YjomTVmM7edLVOe1lOeQF+PMrn04E7cPK6dPwpSFW3G2SFVCXoqEr1fhlbCJmDx7HQ6lPhBQhvzYD/BaxBTM3fAzbtcLx9eXHMVnduGr2FhsnhOORfsyVWVV8OhQXpqAr1e9grCJkzF73SEou1W2s/fURRxY+yoi1HQrzfkJ784JQ0jEAmw9V0KL3sHJz3fiTLFyHNJr+/FRTIbisxI5ik59ji9+y0LCwbewYtMx3JRVIuPIB4ikOggJn4f3j+fSUTYjuxr8MkuR89O7mBMWgogFW3GuRF3zyrb3nYnDvpWczRZi69kielZ5jddmvD5hACsbe9h3tlQcCfqNkC2lOfjp3TkIC4nAgq3noC6ivPgMdu07g7h9KzF90hQs3HoW9a5REo/dy6YjNHQ6lu6KB3VnZfm9p3DxwFq8GjEVUXsSoPJ+KlYsPngtAlPmbsDPDxzGwAo29vbobGlAD/jHzNumvAinPv8Cv2Ul4OBbK7Dp2E2FrXh1JjQ+Oh/P7PwYR2+o7gJlN3B08x5cvK885FD0/dUpXPiG6m3Kq1j/fzdx79o+2kcYZqyOQVYtV4rPbx7UjUXs5jkIX7QPmTJ6t3f6U0TPnIzJs1bjAOfolRk48kEk1W0Iwue9j+O5ipo6+pwcpQlfY9UrYZg4eTbWHUqF0qIP6XM865MCHXyO17YcAj7XZL42gkdPAmPVzT5cQaF1rCkGVjawt+8MziUby3mXZ83gmtbjvOfzB8X6/BViYzdjTvgi7MuU0WJH8EEkrRsSjnnvH4fCbdTg0y/ffOVr+1FpNrjW5cfjf9xj4YM/IL5AXTHqyJDxcRim7BfDd+YM+LROw6UczrGkSNuzGXHdJmBizyQsmb5BUTZn51Ra9gmErViKQMM9CJt9AKLWT6Jnt/YwsbCBS5/uaG+kaJgiw/XN4XgpxgLjpvpC/tV2xKqeuspydmLqlP14ImwFlgYaYk/YbBxQrHhSpH/9KS73mIRpHoXYGLIQP9zTVl4F92huyxxMir6AblTxnsUfIXTxYZRSGW7sCMeET8rgOXMewpyvYonfPByW0Davb0b4SzGwGDcVvvKvsF0lHH9fUhT8ugULXnoHOR5TEdDHSlFWCY8Os65jR/gEfFLmiZnzwuB8dQn85h0Gt1Ry7bwWsQznuwYipF63pTgQ+RrOOS/A2sVj0M2wjo4pF8e3bsMv+cpxVl/6GusPJCs+KxGhdSdH2FubwKKLC1xd7PAErZOYbgz3GUuwJNgU+6dF43/lyj75ZVeDLsy8MpceQORr5+C8YC0Wj+kGTrQGlG3PmRSNC93oguZZjI9CF+Mw3fTz67FOwCfkuB27HVtPcI/ohPxG2JalByLx2jlnLFi7GGO6GUJdRO4R2ZY5kxB9oRsNWJ4o/igUi5UCYufUKdj/RBhWLA2E4Z4wzD5AFwiuPF1kl53visCQnkhaMh0bEumckF3H5vCXEGMxDlN95fhqeyy9B+A6uI3Y7VtxIk8u6Ke8bV41RidHe1ibWKCLiytc7J6AXKC+4PhEZpAnfYJlOxIUAUN69Qus+CwFxFh5mUPR9/wpWHXFCRNeMMKBKd4YvuQSeoX4w+LILLz+dSHkMj6/UdVd8BLeyfHA1IA+sPjjY4RR+cS+MzHDpzXSLuWgJjcR6cbumLFkCYJN92Na9P/oZkQ3n5Pd2IHwCZ+gzHMm5oU54+oSP8xTGvQhfI5/fRL2JzWfE7KtoM/xzFc1ZBk8ehIYq0720eL7fMhvx2L71hPIowG5sZwynjVDz/Oezx8U6/MCvPRODjymBqCPlRy5iekwdp+BJUuCYbp/GqI5h6uHR78C85UqUKNtbpP7aDQbXOV303Du99/x++/nkaYeiNSR5+FYTCaGLVqG8R6eGL9oOSb3MqQXxOg5bSPeDfPGqNkh6H8rjZYtxI/742A70B6S1AxUOTjD/HwsYOqAIYPtYW7dG6P8h6Drg4lNd+bHj6ZiyJwo+Hv6IXLHUnibKC6g8Mf9iLMdCHtJKjKqHOBsfh6xlznridF9ynt4b/IweEcsREj733H8cpWW8mqI7BD61gZEeA9D+MIQtD97Aleq8nH4m0R4RK1FqOcg+M5ah+k2xxFzthJFx48idcgcRPl7wi9yB5YqhNMmmwGs/ZdiTbAXBvdqp+hSAY8OJ1kdxTeJHohaGwrPQb6YtW46bI7H4Gw1V0EEu9C3sF5dtzCEhbkcWfGXUNh2MHwHdOQKNotZTw+42bVGe9fRCBjhAisjR0xYEA5XUQFya6zRWZyHHMWdr4DsasjzD/PLLLWAuTwL8ZcK0XawLwZ01HQ95Xg2RHhjWDhns7M4cUXAZvH5Aj6hhpDfyIVsWQ1DC3PIs+JxqbAtBvsOgKaIIrtQvLUhAt7DwrEwpD3OnriCqsIfsT/OFgPtJUjNqIKDsznOx15uKL8+DN6jZiOk/y2kpddSsY7jaOoQzInyh6dfJHYs9UZj0bX5Dl+bRujp4Qa71u3hOjoAI1yewF2B+sLjM8HgSQGQx+zHpVoprh76EfAPQT+14MohspuINetCMDxgGvxszeCz9C2E+vhj2ot2yE7NhlQs5DfUc6z9sXRNMLwGO6H6/2KQOWwRlo33gOf4RVg+uRdMHCdgQbgrRAW5qLHuDHFeDpRVm/M5OfIPf4NEjyisDfXEIN9ZWDfdBsdjzqLa8CF87lIu//okuA41IGhbQZ+TapmvcuQd09STEwqFxkprNGsfLb6vnabriuaa8USBPud9DcRC/mBgDf+laxDsNRi92hnBccIChLuKUJBbA+vOYuTlqD+mbiq3XMt8bdy2ppwtp9kWTFzDsH7TJmz6YB3CenMBkwf5PUjum8PKSrM5A4jEqjpiExiLqHaIBJIyKcry05GWloa0PFsERQUry/BB7uFehRnatFXdyhoZUpVxEEgkZZCW5SOdayctD7ZBUQh+mrtqALGRamUwsIBF62pUVcq1lFfDQIz6qubmaF1dhUpZKSTlZrBq82As1mhnWYOKShnu3auAWZu2UEpnBENFEW2yiWBmaakagxo8OpSXSlBuZoWGbtvBsqYCdCgUHt3CHH4fxmB515OY7/4MQnddp+ceYgdWm4ANvm6YuOkY4pJzUFpHQAj34kVAdjUEZW7thw9jlqPryflwfyYUu65rPnZRt5k5zLXZzKVCwCfUEPIbugvnt6Uc5n4fImZ5V5yc745nQndBU0QDsRGUEhrA3Lw1qqsqIZdIUCYtQ346J18a8myDEBX8tLKUSKySSwwTYxG9s+PEuocKszZoEEtTcm2+w99mY4TraxufIbXJ+NZH8O3ZOBw8agz/oN5NdFrft4ERjDh9ijlfNYChkREIJ4ig31DPMbOEpaKyHPck92FuZdVo8alN2ABft4nYdCwOyTmlqKP1lFWb8zl6Ry4ph5lVm3q9WLezRE0FtY35Q/hchcD6JLgONSBoW0Gfa80zXx/ApyctY6VHzdpHi+9rh29daYx+5z0R9geRGSyVjkSpRcIGX7hN3IRjccnIKa2r9zclTeUmWuZr47YfHXX/fngMbeDQpRiX426BU528iAp+R8BgYhv0sDeGqUsYIqOjER0dhciZ3qqLPIg7w75LJVKv3qZt08U2/gquK15liGHTwx7Gpi4Ii+TaiUZU5Ex424jpNRkKEuOgeDJ97xIu37CHs5OplvJqyApw5WIWNRutGn8ZN+yd4dTKFo5dy5AQp3yHBMlpnM3ogb69W6OzfRdUpl7Fbc53JfG4ohBOm2wC8OjwukkPdC1LQJzqRYLk9Flk9OiL3pp3afXIUGvshMCVe3Fqmyfidh9WOqzpXeTl0RHJC3H6XJrqXVFjjI3EqKUbCQ5Z1jF8f3M43t65AavmjoS9YH9NMbR15JfZsBbGToFYufcUtnnGYfdhzS8XUZtduah8N3QvXrvN7GwFfEINIb8xFLKlCWS1xnAKXIm9p7bBM243Duc29mFZwRVcVAqI+Ms3YO/sBFObHrA3NoVLWKRCvuioSMz0tlFW4EHc2R5dKlNxVekwiL9yXcMeD+E7NOQbiWtpsOc+C9fXOj5DZ4QGdcSPby7FDxbjEOSkrT9+dPMbQ9g4dEHx5TjcUjo6XeTycf3Y97g5/G3s3LAKc0faa9zNa8MQto5dUZYQp3rfJsHpsxno0bc3TGQP4XMuT/GvT4LrUAOCthX0OcOm87UePj0Vw0ZorNxhc2jxfe3wrCsU9TVDv/NehCxd/EGWhWPf38Twt3diw6q5GNnE4ZrKLW7hfH0UtAZXsYkxan9+Hc84OcHJyRl9XtpLF2sRRHSHJGpUsy3GLXoF0vdHwH3kCLiNiMKJEto4LSSuL0g/G3IT1hJj6YDMt47CsPFhmBTgA6/5MYoSBmKxonxjoSzgN3caqugOZfhoH4zdmAtr1QtZy7HU8c23YtSw8QibFAAfr/mIKTegIhqhXfkhBD/nDW+vRUjxfwMR9mKB8oqmGjAwQO4XYfDy9cHQRSnwfyMC9mIr+EcvhOkWXwwZPQZe7guROXEdXqYLkIXfXEyrorus4aPhM3Yjcq3bw4gOQEi2xjpRh0eHsrGIXmiKLb5DMHqMF9wXZmLiupfhJNZsR6VbaSo+DBgIn8AQjH/jNBzH+1IjOmBMSHccnTkUz48IwmfFT6IdJyDdMTa0YQQnt97I2BSMF6dtQXIXL/i0OYbISZMRGLYTma2MlHZp1Kc6am1Z+fPK3D3jQwQM9EFgyHi8cdoR4327qOo+gNot9wuEefnCZ2hzNhPyCfUxCZURsiVB6ocBGOgTiJDxb+C043j4dmk8VgODXHwR5gVfn6FYlOKPNyLsIbYcS4OXObaOGobxYZMQ4OOF+dSpDKgMInrn8KAF7ikDdW8qlh/mTquid3jDMdpnLDbmWqM9Zw+1eSXkp4JtGjnBrXcGNgW/iGlbkmDGW1/azPjEsA8ORrfLF2A9bgIcNGJr476pjrnPqk0+d4ck4uZuVz6/4eajel3q6eMW4RXp+xjhPhIj3EYg6sQ9POXlgzbHIjFpciDCdmaiFV24RXQuCvqcmr6s/KOx0HQLfIeMxhgvdyzMnIh1LzuBpD6Mz7UVWJ908Dkh2wr5XPeMpvNVjaZ6KoGlwFgNaf/N2UfY99WMrabXervxrSsaa0aSuT7nvTG68vkDJ4967BF3hZdPGxyLnITJgWHYmdmKbjIfXKTwyS0wX9XHrTfobbTekJblkGsJaaSgSnVCGzV3yfXEeJJ4vZBUq05po64kiyTzlq0hd68nkvjE66RQ4+L9W8m0/bu0hDrC5UndNbL6uX5k+WUJuZWcSK7fbVyTVN0h6QlXSOrtCtUJFXUlJCuZpz1tfQnAp8OqO+kk4Uoq0eyWF06WpESSVqBeWEpKsq+RP7QKwcmaQK7eLCcy7pC2k52SSTRVoCt8MnM2TEqkY2syjjpybfVzpN/yy0TSApsJ+0QDgmV4bVlHSrKSSGJaAdEUse7aavJcv+XksuQWSaZyaOql5u51khhPfUYnQ3P9JDdTtoW+w82nhKvkZrnCetwJnvrC41MgOUjC7H3JlpsP2ngIdPUbaRnJuZZA/bTB0etKsklKpqbtdaWK3ElPIFdSbzca20P7nMD61LzPabEtn8/xzlc1ePQkNFadEVrHtMErp8aaQdHnvNfNH6i+s1NIppDDCei3ZfP14TDg/qOKswxpMtZ4RKBu63ms7qu/Z++M5pAieY0HIuq24vzqvqr3SY8X0uQ18Iiow9bzq/HvdA05ir6cgGe/8cWFH2aisz538I8lj7/P/fv5d9uABddG1KIgLQuwd0In3V/6MPRAbUEasmAPp8dV8bUFULpGpxa8D/xnUX07DTcMHmMb6JnH3uf+A/ybbcCCK4PBYDAYeuZf//CHwWAwGIy/GhZcGQwGg8HQMyy4MhgMBoOhZ/7ZwfUxTSPGYDAYjP82eg2uNScXoX/QbvxlSYge0zRiDAaDwfhvo/3bwlzqpS834tP/4/4NwvN4ZVE4+ltKcGbPT5D3MsapXUeQ9cRwzFsaDtfqU9i6+HUsP/skXgoZDp/pszHw5l4cq7VD6Xe7cGPISmwIbtO0vTYilF75Ehs/PY4cUUfYWreGzfBXMWvgPRzZ9jn+F38Tte0GYPLi+RhhK4Yi7dNH67E7UY7eY2zw29xrOJL3FZW1FAnfbMKnR9NRYfk0/OfMx3hnMyjSbG18D19dLkf7oa9g+cuD0JY9DGcwGAzGn4iWMCOQekmRmuc1RCw7j66BIeiZtATTNyRC1LoTHO2tYWLRBS6uLrB7gmiki7Lgb686FsvCtqIuMAoLPEvw3cFsmHcw4085RGXSZxoxBoPBYDD+DISDq1BqOA5FWrb1CPMehdkh/XErLZ3LWwYPNzu0bu+K0QEj4KLI7qKWLspJxt9eRRZu1PaGl2cv9PV5Dt2krdDBwZw/5ZBU/2nEGAwGg8HQN8KhRltqOAMRGrKdGUPUNO+VCrV0UULtWbiit9l3eH3sJASN+whloZMxhAZM3pRDcv2nEWMwGAwGQ98IB9eWpobjMDaCuLYayiREGgi0J/3j//Cb6VS8u+JVLN59CrFvusMcMv6UQ3pJI1aL21d+Q6JQSjwGg8FgMB4RLQ9JBVLDaabmoZ8NFemMuMxXbuidsQnBL07DliQZLaOeLoq/PcOnnkNfyV4sW/4moqeOQG/XAGymdXlTDhnoIY3Yk7nYtyAIS2LuKMViMBgMBkPPNP/bwrXFyEy7gQozOzg6tG/2R8trizORetsYDr1sYc4XujXaq/smGL3/F4AE+r+WqMGJWS5Y4/AzTi7qBqnkBv6QWMChWzuoctUrkEqykVFiDgdNeaoLkZGeD3nHnnDq1Fp1UgpJdipyazugu2NHPDjLYDAYDMafxd/+w/3SpE3wC9oFkZsbbEkOLqU/iQXffI5J9hrZmhkMBoPB+IfweGTFqSlCZvpNlBlyd5e2sGBxlcFgMBj/YFjKOQaDwWAw9IyWLzQxGAwGg8F4GFhwZTAYDAZDz7DgymAwGAyGnmHBlcFgMBgMPcOCK4PBYDAYeoYFVwaDwWAw9AwLrgwGg8Fg6BkWXBkMBoPB0DMsuDIYDAaDoWdYcGUwGAwGQ8+w4MpgMBgMhp5hwZXBYPytyGUyyNX+99/Cv3VcDN3QGlxleRdx/FLBf9gxKnF4rjeif61RHTdFlrUNocGbkS5TnXgMqDw8F97Rv6qOHlNkWdgWGozNVHHygl+x/dNfkPdnOppaf38ZlYcx1ztaddBCmq0rQ9a2UARvTlcd6wM1f5cX4Nftn+KXJkZpfk60iNpziHrWBxsz4rHqOS+8+zhNJEF00MHjMq4W+eCf4VNqbQr61L8TrcH1/s9rMOndU6hWHf/3kEOSm47cUuHEQaSqENmZhah6jHILySW5SM8tVR39edScXIT+QbtRrDpuEaQKhdmZKKSKI5VFuHWr6M/VoVp/D0cNTi7qj6DdLRitXILc9FzVQQtpti5BVWE2MgurVMf6QM3fSSWKbt1CURN9NT8nWoTIDK1amcHiCXO0at0aZuYGqgstoOYkFvUPQktM82jooAN9jEsftMgH/wyfUmtT0Kd04C+38aPT8sfC8lIkfL0Kr4RNxOTZ63AotUJxWprzE96dE4aQiAXYeq5Ece4B8uIz2PXVKVz4htab8irW/99N3Lu2D8umh2HG6hhk1arKlcRj97LpCA2djqW74iHhNjjSHPz07hyEhURgwdZzKOHOyUsQv3sZpoeGYvrSXYhXFJSj+MwufBUbi81zwrFoX6agrLxt1iNDfuwHeC1iCuZu+Bm3parTFF75FFQgdd8KTJ80BYu3n69vj6+8Qhd7T+HigbV4NWIqovYkoFxZvB5FmX1nELdvpaLNhVvPokjRphylCV9j1SthmDh5NtYdSqU9K5Hlx+KD1yIwZe4G/KwmtKAMX8UidvMchC/ah0z1TXVlBo58EEn7DUH4vPdxPFd1ke46T38ajZmTJ2PW6gO4duMUPv/iN2QlHMRbKzbh2I18nPx8J84UKwcvvbYfH8VkKD5XZhzBB5HTMSkkHPPeP44HTT7AwMoG9vadYWlQjgtfrMLyZcuwbNlyrN2fTK9WIuPIB4icPgkh4fPw/vFcaiEeW6vD6x8CCJRt7M93UXTqc3zxWxYSDr6FFZuO4Wa5gJ5k+Yj94DVETJmLDT/fhpolBG1Xj5a6JfG76XwJRej0pdgVL6Fn+BH2HW6ofP4r4O8GVrCxt0dnSy4oCM0JHcYk5E8PENF+enRFJ4s26NytKzo+wS1JfONV2nzvqYs4sPZVREyNwp4EOnPkRTj1+Rf4LSsBB99agU3HbqCwiW8I6K/0Cr5c8TLCI2ZhMfW3lVt/oyf5/I2jhTrgHZcaGvMppUKOOyc/x84zxUrZpNew/6MYRVFeHcqLcWbXXpy6eABrX43A1Kg94NShQMiPhNZDAeSlCfh61SsImzgZs9cdQsPyKbzWNx2X6jxHI5/itwnv+tjExjcVawCvTbWu7X8tLQyuMtzYEY4Jn5TBc+Y8hDlfxRK/eTgsKcWByNdwznkB1i4eg26GdarySrjHflvmT8GqK06Y8IIRDkzxxvAll9ArxB8WR2bh9a8LIZflYOfUKdj/RBhWLA2E4Z4wzD5QhNIDkXjtnDMWrF2MMd0MUUdlyNk5FVP2P4GwFUsRaLgHYbMPcL2g4NctWPDSO8jxmIqAPhYCstI51aTNBmTXNyP8pRhYjJsKX/lX2B6revQjIB+HNP1rfHq5ByZN80DhxhAs/OGeYHmFLmgQXHa+KwJDeiJpyXRsSGxYRjkUZeZMQvSFbtRxPFH8USgWHy6F7MYOhE/4BGWeMzEvzBlXl/hhHjcg2XVsDn8JMRbjMNVXjq+2x9L7LIo2GRa8hHdyPDA1oA+s1DbVstxEpBu7Y8aSJQg23Y9p0f+jwV+GjI/DqM7F8J05Az6t03DlrjUc7a1hYtEFLq4usDO/heNbt+GXfKU3V1/6GusPcMFRhtzEdBi7z8CSJcEw3T8N0f9rvJ2Q347F9q0nkCc3RhtbBzg42EF2YSf2XqR337JcJKYbw33GEiwJNsX+adH4X7mmra1ULXEI+QcfQmU1/VmG1p0cYW9tAosuLnB1sYPZLX49Xd8cjpdiLDBuqi/kX21HvfsI2a4eLXVzdmLqlP14ImwFlgYaYk/YbBx4EDE1EPIdIV8Q9Hf5bcRu34oTeXLBMs2PiZbh9Sc1RHaY+eVmjDXriIgvtiHIQmi8UoXNX4tYhvNdAxHSMwlLpm+g9Vujk6M9rE0s0MXFFS525rij4Rv87VUidlkYttYFImqBJ0q+O4hs8w6cwDz+Rk+3VAc842qg6Xy6lFOL3ONbse2XfGWQqL6Er9cr/ZZXh9wj1i00gC47j66BIeiZtATTNyRypQX8SGjt5q7xILuBHeET8EmZJ2bOC4Pz1SXwm3cYkiZzo9HqyTMutbVN3acEfJp3fbxqrGHjJyAXqK9tbf+raVlwlefj8DeJ8Ihai1DPQfCdtQ7TbY4j5qwUFuZyZMVfQmHbwfAd0FFVoQGR3USsWReC4QHT4GdrBp+lbyHUxx/TXrRDdmo2agt/xP44Wwy0lyA1owoOzuY4H3sZhhbmkGfF41JhWwz2HYCOKMSP++NgO9AektQMVDk4w/x8rKoXA1j7L8WaYC8MdqoRkLW6aZv1WpCj6PhRpA6Zgyh/T/hF7sBSbxPlFQH5OMTdp+C99yZjmHcEFoa0x+/HL6NKS3mRXSjeWh8G71GzEdL/FtLSVbfuaijKbIiA97BwRZtnT1xC9uFvkOgRhbWhnhjkOwvrptvgeMxZVBYdx9HUIZgT5Q9Pv0jsWOoNTmptMhtY+2PpmmB4De6FdmpeIHacgAXhrhAV5KLGujPEeTkolubhWEwmhi1ahvEenhi/aDkm9+8FDzc7tG7vitEBI+BiJeRKYjhOWIBwVxEKcmtg3VmMvByhZzsm6OkzGaEDSnG+cBTejR7ECYQJC8LhKipAbo01OovzkKO4O1azda92yuoccm3+oYFgWcMm/mzW0wNudq3R3nU0Aka4oJ0zn56KcPxoKobMiYK/px8idyyF0n3kyBewXf0rF7o7F6pb+ON+xNkOhL0kFRlVDnA2P4/Yy8LLRlPfuSLgj/GC/t6A0JzQYUwUXn/Sejehbbwi2IW+hfVh3hg1OwT9b6XRc2bo6eEGu9bt4To6ACNcrGgpdd9oI9BeKbJu1KK3lyd69fXBc92kaNXBQcDfpI+kgybIeeZTL0PVxaYI6pAG8NC31iPMexRmh/THrTTuvaaAHwmu3fySyvMP45tED0StDYXnIF/MWjcdNsdjcLa66dyoR+dxaffppuujkYaNn8BdgfrCa/tfTwuDaykk5WawaqNSmNga7SxrUFHZGn4fxmB515OY7/4MQnddV15Xw0AkpksW98EIRkaGMBRzXRvA0MgIRC4DkUhQJi1Dfnoa0tLSkGcbhKjgp2Hu9yFilnfFyfnueCZ0F65LJZCUSVGWn64ol5Zni6CoYK5lighmlpbKfgRllTdts/5JFcG9exUwa9MWRopjIxiqqgvJx2EgNoKx8hMsLFqjuqoScm3lH+iCBh4TYxG9a1ccNEK9TXNzrs0KlErKYWbVpr6udTtL1FRUQnbvHirM2qCtUmgYqYTWJrPIzBKWqrGpU5uwAb5uE7HpWBySc0pRRwiI7B4k981hJRhAOYTeKdUiYYMv3CZuwrG4ZOSU1oHQNgWRpuKT+V+h68q3MJqL+rUJ2ODrhombjiEuOQeldVQeRX01W6tDtPmHBoJlzZv1Z149ye/hXoUZ2jQYQiUf3VEL2K4+zhChugQSSRmkZflI52RMy4NtUBSCn+YxnoqmviPkjy6C/t6A0JzQYUwUXj1pfeWmbbwGEIlVAopNYCwSitLqviHUXhu49jbDd6+PxaSgcfioLBSTh9AoxOtv8kfSQROon/DNJ8EZJKRDAxEa1GEMEbeQCPmRlvWQD3mpBOVmVmgo3g6WNRWolGuZGwLjaop2n25+fRSuL7y2//U0p4XGGNrCsWsZEuJU7yEkp3E2owf69jZErbETAlfuxaltnojbfVhRvCWIbXrA3tgULmGRiI6ORnRUJGZ620BWawynwJXYe2obPON243D+k+hhbwxTlzBEcuWioxA501vVihqCspo0bTP3gYOJ0dm+CypTr+I2rSSXxOPKdeVjDSH5OGQFiYhTPP64h0uXb8De2QmmWsrrgqzgCi4qXkbfQ7yiTRfYO3ZFWUKc6p2lBKfPZqBH395o3dkeXSpTcVUpNOKvXFe8Z9EmMz8yZB37HjeHv42dG1Zh7kh7xR0wDG3g0KUYl+NuKXQpL6IOfYfqzNgI4tpqKL7+YGAOc9O7yMujMtM7wtPn0pTvemRZOPb9TQx/eyc2rJqLkfaKFgWQ4fq217Gz41K85d9B4ZyyrGP4/uZwvL1zA1bNHQmt1TnENrr5B4dgWRmvPxsbiVFbzY1WQE/izrDvUonUq7dpCTkk8VfoZpC7YAhbAdvVD0ewrhg2PexhbOqCsEhOxmhERc6Et41YUY2Ppr4j5I92gv7egNCc0GFMQnrSSsvHSy0DI3Et3USoDhsh0F7HLPzfb6aY+u4KvLp4N07Fvgl3cyF/exQd8MA7nwjdCJnibl4e3Y7SO7vT55CmMEULdSjkR1rWQz4MbR3RtSwBccqB0eJnkdGjL3qb8M8NBULrRBMe1cbC9YXX9r8ercGV2w3V/vw6nnFygpNzb0z4tBj+0QthusUXQ0aPgZf7QmROXIeXu2fgw4CB8AkMwfg3TsNxvK+qBSUGIhHdcdI/xRHdbXGfVTsi7g5WJKZKtRxLFWSOraOGYXzYJAT4eGF+jASpHwZgoE8gQsa/gdOO4+HbpQ3G0oXBfOsoDBsfhkkBPvCaz734p7ta2o+Y/imx4pfVifC02aAGC7+5mFZFd4rDR8Nn7EbkWreHEXeZV75yGNDdo1G7chwKfg7e3l5YlOKPNyLsIRYq30gXVBt068kNXxMDg1x8EeYFX5+h9W2284/GQtMt8B0yGmO83LEwcyLWvewEsYUf5k6rojvu4RjtMxYbc63RnhNaRxkaEKOrlw/aHIvEpMmBCNuZiVY0oIgM2mLcolcgfX8E3EeOgNuIKJwoITByckPvjE0IfnEatiQ/hTEh3XF05lA8PyIInxU/iXacDOKu8PJpg2ORkzA5MAw7M1vRSULPU72J6A6VM1e9PLIM7N9zErdOr8CwXs7oHfQpre4FnzbHEDlpMgLDdiKzFQ3oXHn612BrdSz5/UOtvwYEytK756b+bAQnt97I2BSMF6dtQ7k7n54s4Dd3Gqronfrw0T4YuzEX1u2VdxBWQrZTXOUQrms5lgZ9860YNWw8wiYFwMdrPmLKNf29AT7fEfJHQX9X05dQmebHJORPqssC6DZe+tlQ1ZORE9x6Z2BT8IuYtuUq5Bp64W2v6ik811eCvcuW483oqRjR2xUBm5ME/M3gEXTAB998EsFhTAi6H52Joc+PQNBnxXiyHWd/AR3S8TXyZ+5uT7GQCPmR0HqoLqmajq38Eb3QFFt8h2D0GC+4L8zExHUvw4nwzY0H8I2LivagTTWf4rcxV4SW4VsfG9k4CWa89aVa1/a/HPIwVN0h6QlXSOrtCtUJSl0JyUpKJGkFaucegpq710lifCK5XlitOlNHSrKSSGJaAWnUcs1dcj0xniReLyQPSvLCJ6tQmw/gxpJ8ndSLoEZT+VTcv0WSE6+TuzWqYxWC5bVQd201ea7fcnJZwtdmFbmTnkCupN7WkJ0bUzJvPy2Voa4km6Rk3iUaQyHSshxyLSGNFFSpTlC4thOu3iTlMu5ISkqyr5E/mvRDZctOIZmaytEVao/slMwmutWKrv7BwVeW159ryN3rCeTqzXLCDVdIT3UlWSSZt18h2zUgXJfrO5HEU3/QZkbtvqO0VxNf0OLv9QiW0WVM/HrSjm7jrYezYcJVclPpiDxotFe+jwR1DSbflCqvVh9/hTh4vqc8EPK3R9ABH3zzSUp1de2PpvZvqQ4F/Yh3PRSm6k46SbiSShovn3xzowG+cfHzqDbmq1+nfW3/CzHg/qOKs4zHBGnyGnhE1GHr+dXoq7rDZzB0gfmOjkiTsMkvCLtEbnCzJci5lI4nF3yDLybZqwowGI8GC66PI7UFSMsC7J066fCOisFQg/lOC6hBUWY6bpYZokN3R9haaH+Yy2C0BBZcGQwGg8HQM3/j214Gg8FgMP6dsODKYDAYDIaeYcGVwWAwGAw98+cEV/XUQn9Hqq+/CO53MHlTpT1KqjEGg8Fg/OP5c4KremqhR0719fgimCrtUVKNMRgMBuMfj5bgypfCTSCVl2aaoUr11EJKKlL3YcX0SZiyeDvOq/IAPWxKtqZphbSka1JDXnAan0bPxOTJs7D6QIoiNRR/WiXV2E9dwDf02pRX1+P/bt7DtX107GEzsDomC9yPyzWkSqMHAmmemku3xmAwGIx/H1qDq2YKN/70XDxphrJz61MLKZCm4+tPL6PHpGnwKNyIkIU/4N4jpGRrmlZILpiuqR5ZBj4Oo/2JfTFzhg9ap11CTo1QWiXl2OdPWYUrThPwgtEBTPEejiWXeiHE3wJHZr2OrwvlaqnShNM8NZdujcFgMBj/Ppp5LKyewk3Gn55LlzRD4u6Y8t57mDzMGxELQ9D+9+OIz334lGwPk1ZInncMMZnDsGjZeHh4jsei5ZPhVCiUVomrIYLdxDVYFzIcAdP8YGvmg6VvhcLHfxpetMtGarZawBdMF9aSdGsMBoPB+LfQTFhSS90klJ5LlzRDBmIYKXNgwcDCAq2rq1DxCCnZ+NIKNfNb4FRMCe6bW0FdTOG0StxRQ3orAyMjRRo37vfmYWAIIyPSWCbBdGEtTLfGYDAYjH8FOtzzqRBKz6VLmiFZARLjchTvIe9duowb9s5weerhU7I1TSsklK6pAUMbB3Qpvoy4WwopUUQDerGNUFolxaHuCKV5Eky3JsXtK78hkTcdE4PBYDD+6Wi73WxIFaRAID0XX5ohCVdXlQ7JgH42aofyQ8F4ztsbXotS4P9GBOzbPmxKNr60QkYC6ZrUaDsOi16R4v0R7hg5wg0jok6gxFIgrZJYY+x0LNxn5d0odwdLr1GZGmQVSPMklG5NloN9C4KwJOaOokUGg8Fg/Lto+W8L1xYjM+0GKszs4OjQvv7HwWXlN5GWVQVrR0d0NFWdbEQF8lIyUd3RCQ7tVM+IKbXFmUi7UQEzO0c4tNf1llEKSXYqcms7oLtjR7RWnZVJbiCt2AzduzfI1RgZym+mIavKGo603gMxqwszkJ4vR8eeTuj0oLGHQCrJRkaJORzU9KKQ9cYfkFg4oJvauBkMBoPx74X9cD+DwWAwGHrmwdNXBoPBYDAYeoIFVwaDwWAw9AwLrgwGg8Fg6BkWXBkMBoPB0DMsuDIYDAaDoWdYcGUwGAwGQ8+w4MpgMBgMhp5hwZXBYDAYDD3DgiuDwWAwGHqGBVcGg8FgMPQMC64MBoPBYOgZFlwZDAaDwdAzLLgyGAwGg6FnWHBlMBj/UOSQyeSqzwxGc/y1/qI1uMrvXMKPBw/i4KH/4cffEpFXqbogiAxZ20IRvDmdfvqHIi/Ar9s/xS951BBZ2xAavBnpmoORZWFbaDA2N7nwGPBXyMbbh5Dt5Sj4dTs+/SVPdawn1OzET4M8wlTi8FxvRP9aozr+E6k8jLne0fSDsD4qD8+Fd/SvqiOGdmpwafVwDFsdh2rVmeYQnM9/O4//uikv+BXbP/0FTaZbvV8/7rTcXx4VrcG1/OgqhK7Yi9/P/oqYLXPg1WsIFv6QR5cHIQiqCrORWVhFP/1DIZUounULRVUEpKoQ2ZmFoB8bQ6pQmJ2JwiYXHgPUZas5iUX9g7C7WHVNX/COX8j2BJVFt3CrqEp1rMHDyqhmJ34a5BFGDkluOnJL/wI7yiXITc+lH4T1IZfkIj23VHXE0ErJCXyXH4QtS9xgqjrVHILzuZ4anFzUH0F6nzDN8fivm6SyCLduFTXVXb1fP+Y8hL88Ks0+FjbpPRHr3v8Q2/efxIUd/fDzrEU4UEzDq7wE8buXYXpoKKYv3YV4iVrIrUjFvhXTMWnKYmw/X6IMxtrKK5Ai56d3MScsBBELtuJcCXddjpL43Vg2PRSh05diV7yEnpGj+MwufBUbi81zwrFoX6ayOoe8GGd27cOZuH1YOX0SpizcirNFqn7kpUj4ehVeCZuIybPX4VBqheK0NOcnvDsnDCERC7D1XAlgYAUbe3t0tjRQXKeDQeq+FZg+aQoWbz8PhViN4JOxMfKC0/g0eiYmT56F1QdSaIucOAn4etUrCJs4GbPXHYJSHOXY9p66iANrX0XE1CjsSSjnLjSVU34HJz/fiTOcLbjr1/bjo5gMxWcF8iKc+vwL/JaVgINvrcCmYzchq8zAkQ8i6VhCED7vfRzP5fbJWvRJkZfEY/ey6QgNnY6lu+LRxGyaVGfgwOpZCK+X3QBWNvaw72xJP2vY+O6dpjJSeUoTvsaqV8IwcfJsrDuUqtRX8Rns+ioWsZvnIHzRPmTK1ezEOy4hZMiP/QCvRUzB3A0/47ZUdbpZOyr1tO9MHPat5Hx7IbaeLVKWEfJtWT5iP3gNEVPmYsPPt+noOdT1wRWJxQevRWDK3A34uUEY2qaO/iqAQl/7ziBu30qF7y7cehaKqaCjD1RmHMEHkXScIeGY9/5xNFIpHe/vOzfj2A3VSVkOjn2yBxepuXn9RTEvv0Js7GbMCV+EfZnqjclw+9cPMT9iEmau/R9OxXyGGHprKb9zEp/vPAOle0txbf9HiMlQ1lP0sfF7ZJddwr59mj6pxU5qNB2fHEWnPscXv2Uh4eBbWLHpGG7Sc3y+2MSPNRaFpjZqfo1Q0GTu8MlJTyr0uRenLh7A2lcjMDVqD1TF1eCRkddPG9t+4Wf7sXPzMTSY9hg+2XORLos2sLfvDMWyyOvXHEL6UiIvOYOdHx9taPvGUWymbauj1e8U6Ntf/jxa8M5VhLZeryDY5jR+OluFnJ1TMWX/EwhbsRSBhnsQNvuAqpwU6V9/iss9JmGaRyE2hizED/dkWsqrKD2AyNfOwXnBWiwe0w2GdZxhd2LqlP14ImwFlgYaYk/YbBwokqLg1y1Y8NI7yPGYioA+VqoGKNyjQnqHPSn6ArrRye1Z/BFCFx9GKTXIjR3hmPBJGTxnzkOY81Us8ZuHw5JSHIh8DeecF2Dt4jHoxnUqv43Y7VtxQvX8Q5r+NT693AOTpnmgcGMIvXO/pzj/AH4Z1awny8DHYVOwX+yLmTN80DrtEnJqbmBH+AR8UuaJmfPC4Hx1CfzmHQY35bixvRaxDOe7BiKkZxKWTN9AG+GTMxfHt27DL/nKvqovfY31B5IVnxWIWqOToz2sTSzQxcUVLnZP0CqJSDd2x4wlSxBsuh/Tov+HclWfvPqki+bOqVT2J8KwYmkgDPeEYfaBItVFPqRI27MZcd0mYGK97HLcjt2OrSfymtpYxiPjjR0In/AJyjxnYl6YM64u8cO8w1QzBb9iy4KX8E6OB6YG9IEVabCTjHdc/Miub0b4SzGwGDcVvvKvsD1W+Ui4WTuq9DRnUjQudKOLk2cxPgpdjMOlQr4tw/XN4XgpxgLjpvpC/tV2KLtS04fsOjaHv4QYi3GY6ivHV9tj6b0TRwv8VQCFvuZMQvSFbnRB90TxR6FYfJjOBJ18wAK5iekwdp+BJUuCYbp/GqL/p6ZRkRnqEj7G8i+uKhZWacourNqeDGIo4C+KebkAL72TA4+pAehj9WDjyqngE0x+6XuYj3sZY4z3YEb4ChxMqaO+ehxbt/0CpXtX49LX63EgWbEoNOOTQnZSXVYg4xlfBVp3coS9tQksurjA1cUOZjn8vsi3VjXQ1EbN+xYH39zhk5PbwXD6pMFt2Xl0DQxBz6QlmL4hUdnMA5rIKOSnjW0/foAJEj5eji+uKiyLlF2rsD2Z0GUxFtu3nkCeXMivqbQCc/cBIjM5kj5Zhh0JyravfrECn6Wo3woLjFcN/fvLn0fLvtBkYA1rq0qUlxXgx/1xsB1oD0lqBqocnGF+PlZVSIzuU97De5OHwTtiIULa/47j8blayqswtIC5PAvxlwrRdrAvBnQECn/cjzjbgbCXpCKjygHO5ucRe5nzZANY+y/FmmAvDO7VTln/ASI7hL61ARHewxC+MATtz57Alap8HP4mER5RaxHqOQi+s9Zhus1xxJyVwsJcjqz4SyhsOxi+XKcaiLtPwXvvTcYw7wgsDGmP349fVi2AHHItMiqR5x1DTOYwLFo2Hh6e47Fo+WQ4FR7GN4keiFobCs9Bvpi1bjpsjsfgrOJlgAh2oW9hfZg3Rs0OQf9bafScYbNyNsUMPT3cYNe6PVxHB2CEixWMHCdgQbgrRAW5qLHuDHFejmqnx69PeeGP2B9ni4H2EqRmVMHB2RznYy+rrvIhRs9pG/FuI9nVaGJjCw0Zn0DB4W+Q6BGFtaGeGOQ7C+um2+B4zFnFexIDa38sXRMMr8G90E7Nc8WC49KE3p0cP4rUIXMQ5e8Jv8gdWOptojjfnB2VKG2zIcIbw8I53z6LE5cEfFtehONHUzFkThT8Pf0QuWMpFF2pIS86jqOpQzAnyh+efpHYsdQbiiLyh/dXdUR2oXhrQwS8h9E7Euq7Z09cgVQnH+gAxwkLEO4qQkFuDaw7i5GXo/6o1ASDQ8ag+sghJErpAnzoKORjJ+KZUi3+QtcO/6VrEOw1GL3qjcfZ40ekDm6wR6SHSOujUd18ksdOVxpmLeenfOMz6+kBN7vWaO86GgEjnFF5RMAXm/ix+jKqOVfb6+hbfHOHX04FinVuPcK8R2F2SH/cStP4boGmjO3valmD1WzfdxRCxlTjyKFESKUpOHRUjrET+6nKUQT9Wo58LXNXgclgTAqQI2b/JdRKr+LQj4B/iFrb2sar4M/ylz+HlgVXaQYybnZCV7tySMqkKMtPR1paGtLybBEUFawqZACxkbHqowUsWlejqkKipbwKcz98GLMcXU/Oh/szodh1XQqJpAzSsnykc3XS8mAbFIXgpw1pYRHMLC2pG/NgIEZ99+bmaF1dhUpZKSTlZrBqo6ohtkY7yxpUVLaG34cxWN71JOa7P4PQXdeV19UwEBtB2ZwBLCxao7qqUs2YRIuMSuT3JLhvbgUrNU3LSyUoN7NCgzjtYFlTgUrVIicSP7hgAmMRd9KcR86G3b+u1CZsgK/bRGw6FofknFLUEQL6/xR+fRKJBGXSMuSnc2NLQ55tEKKCn1Zd5YNPdjWa2FjzmY8cpZJymFm1UckihnU7S9RUVNIrVEozS1hqCkkRHpcmBPfuVcCsTVsYKY6NYKhor3k7KlH3bXOYa/Ntcg/3KszQpq2yJxgZNtXvvXuoMGuDhiKqEvKH91d11H3X3FzpuzU6+UAtEjb4wm3iJhyLS0ZOaR0t01ihxgODMZYcwaH4BLoAizEm6GmItfkLvdu1bGI8IXtQBNxbN5/ksVOluvzNj0+rL2r1Y825+ofOvtV07miR00CEhuLGENE7ykZoyvjHXS1rsLrtjTEweCwI3TjFJxzCUfEYBKnLKujX2ueuEkM8EzoerY98i7NxB3HU2B9BvdXabtYuf5a//DnoHlxlRfj93ZU4ZDURk9zs0cPeGKYuYYiMjkZ0dBQiZ3o/KIiCxDjkcHf+9y7h8g17OLs8paW8ClktjJ0CsXLvKWzzjMPuw/mw6WEPY1MXhEVydaIRFTkT3jZiVQUBZAW4cjGLmol2H38ZN+yd4dTKFo5dy5AQl0ulo0hO42xGD/Slhq01dkLgyr04tc0TcbsPc1cbIStIRJxyMLh0+QbsnZ1UhuUQNyujoY0DuhRfRtwtrme686IGLrZxRNeyBMSpXihITp9FRo++6K1xZ9OArKmc3KJhehd5eXSk8kKcPpemeETXGGMYiWvposp9liHr2Pe4Ofxt7NywCnNH2ivvkrQgtukBe2NTuIRFKsYWHRWJmd42qqsPQRMbc1+EUJfRELaOXVGWEKd61yLB6bMZ6NG3txZZWzIuMTrbd0Fl6lXcpu3LJfG4QjdxuthRCfXtKxeRpXQu7b4t7gz7LpVIvXqb1pJDEn8Fiq7UEHe2R5fKVFxVCoP4K9eVNjRsib/KUXLtJC7e5IRqjKzgCi4qhUW8wnd7IFcXXcmycOz7mxj+9k5sWDUXI+15Shn2RfAYIxx+ey2OtKaLpLPhQ/iLyh5p13CbrsAN9uDc2xymd/OgdO/TOJemPK9bHzx2cmqYtdrGZ2wkRq3CGbX4Iq8fP0Bzrv74cOsYhy52EEJTxh9J82uwCsO+wRhjdBhvrz2C1v5BoKZtQNCvdZu7hs6hCOr4I95c+gMsxgXBSV0NzY73z/KXPwetwZXbEdX+/Dqede4Fp17DEJXijW37o/GMsSXGUiHNt47CsPFh9FbfB17zY2gNA7qhMkK78kMIfs4b3l6LkOL/BiLs2wqUb0Ca+iECBvogMGQ83jjtiPG+XWA5ljqA+VaMGjYeYZMC4OM1HzHldIcnors2+seLgQFyvwiDl68Phi5Kgf8bEbAXW8E/eiFMt/hiyOgx8HJfiMyJ6/By9wx8GDAQPoEhGP/GaTiO96X1RbR9Mf3jmhLBqF05DgU/B29vLyxK8ccbEfYQq5Xhl1ElC0fbcVj0ihTvj3DHyBFuGBF1AiWW/oheaIotvkMweowX3BdmYuK6l6mjaY6N251S75OmNpVT7IAxId1xdOZQPD8iCJ8VP4l2RpzQDbLByAluvTOwKfhFTNuSjC5ePmhzLBKTJgcibGcmWtGFRET1JahPy7F0ITDH1lHDMD5sEgJ8vDCfG5x6H/UIyK52ns/GjWVMgrl/NBaaboHvkNEY4+WOhZkTse5lJxjS+iIx/VM2riaDGF1bMC4Lv7mYVkXv3oaPhs/Yjci1bg9Obc3aUQH179wvEOblC5+hzfm2BfzmTkMV3YkPH+2DsRtzYd2eW+DV5LLww9xpVdjgOxyjfcZiY6412nPCoAX+imqcWBOIxQeb/tMeA4NcfBHmBV+foSrf7Q4HXXQl7govnzY4FjkJkwPDsDOzFd0ANdYjt5i6hATC6sQvsBo/Ad05U7fIX5Qo7FH5Hny9qT1eXI/LioWZc+8xCOl+FDOHPo8RQZ+h+Ml2CjsJ9tEIPjuJqRgqHxIcnxGc3HojY1MwXpy2BTf9+H2R8PnxA3jmavO+JTB3hOTU1Cf9bChWj1J862kvwTW7yTwxdEFIoBVO/GKF8RO605DGdanSnaBfU68VmLuNJBPbIzi4Gy5fsMa4CQ4a15r3uz/HX/4k6G33w1Nzl1xPjCeJ1wtJterUA+7fSqbn75Ia1bECLeU56kqySFJiGimoUJ1QUEPuXk8k8YnXSSFfJXXqrpHVz/Ujyy9LyK3kRHL9bqPeCam6Q9ITrpDU22od1JWQrKREkta408bcv0WSaf+azTXQnIxSUpZzjSSkFZAq1RmOqjvpJOFKKlEXRxBeOaWkJPsa+UObYjidJ1wlN8tlisO6kmySkqlhl2aouXudJMZTfTZrgObhtbGGjFQz5E56ArmSepvoohqOFo2L02Uyn6202bGOXFv9HOm3/DKRtMC3ufEmC/i7kjpSkpXMr1td/FVymEwbEES+vPlAd0rqrq0mz/VbTi5LmvqubrqicmWnkExhpxekxf5SV0wyk65R+5eRXWM7k0nfqWaJtIRkX/uDd04J99GMneoRGh/nAwnk6s1yotQovy/yr1UqeOdqC9axRjy8HQTnmpY1WFeE/br5uSs5GEbsfbcQDZdVocN49eovfx4G3H9UcfafjzQZazwiULf1PFb3VX+WwWA8KlIkr/FARN1WnF/dl963PR5U/P4JPi72R+QYm4a7eoo0eQ08Iuqw9fxq/HOmwn3s9nfE8YhMfDXuYf814uNpJ4YKeRG+nPAsvvG9gB9mdm7ksy1HH/7y5/HvCq6oRUFaFmDvhE4teD3BYOhCbUEasmAPp3+Cc9UWQDkVOjX7bv3xQQ5JVgruteuFrpYPv+z+o+z0n6Mat9NuwEAva7R+/OXP4l8WXBkMBoPB+Pt5/MI9g8FgMBj/cFhwZTAYDAZDz7DgymAwGAyGnmHBlcFgMBgMPfOvDK4NeRu5H6Xmz53JYDAYDMafxb8yuDbkbWwml6hW/q7cjgwGg8H4p6MluKry/J26gG9WvYIpr67H/928h2v7lmF62AysjlH+fi9Xji9XYdOchpXIOPIBIqdPQkj4PLx/XPW7qdIc/PTuHISFRGDB1nNN8qXy5z1Vh96dnv4U0TMnY/Ks1TiQol6gce5M4VyTmrkR5Ty5HQXqQ3tuRwaDwWD899AaXLk8f/OnrMIVpwl4wegApngPx5JLvRDib4Ejs17H14VygVyFJU3zTspykZhuDPcZS7Ak2BT7p0WDS9VXeiASr51zxoK1izGmmyEaJWKSCeU9bUCW8THCaP9i35mY4dMaaZdy1H7AXj13prZck5q5Ea82ye34hFygvtbcjgwGg8H4L9LMY2ER7CauwbqQ4QiY5gdbMx8sfSsUPv7T8KJdNlKzawVyFZKmeSfFjpiwIByuogLk1lijszgPOcVyGFqYQ54Vj0uFbTHYdwDUUyPK87XlPeWQI+9YDDKHLcKy8R7wHL8Iyyf34v3JM615/XhyIzbO7eiCJ+4K1Nea25HBYDAY/0WaiQQGeJBj0MDISJFvUpGkwMAQRkYEcplQHkyrpnknaxOwwdcNEzcdQ1xyDkrruDySBOZ+HyJmeVecnO+OZ0J3QT01ova8pxxy3JPch7mVVXMD0Z7Xz4DLQqH8yJsbkSJYv9kcpQwGg8H4r/GIt1lCeTBpLNXIOynLOobvbw7H2zs3YNXckXiQqk9WawynwJXYe2obPON243BuwztLQ9vm8p4awsahC4ovx0GZLrWIBr47NOQ25WHy+jXkdtRSnye3o/T2FfyWeEdRj8FgMBj/PbQEV408fyKx4rPyBo+7g6XXxAJ5MCVNcxqKu3rBp80xRE6ajMCwnchsZUTbkCH1wwAM9AlEyPg3cNpxPHy7qIlkJZT3VHWd0nbcIrwifR8j3EdihNsIRJ0oobI+yD2oNgZdc03W50ZsnNsxyYy/ftO8iU8iZ98CBC1pnK+WwWAwGP8d9PTD/bUozkzDjQoz2Dk6oD13ZymVIDs1F7UdusOxY2tlMXruxh8SWDh0Qztj5Snu27aS7FTk1nZAd8eOUJVsRHVhBtLz5ejY0wmd+ArIynEzLQtV1o60L+2ph2qLM5F2owJmdo5wUAiqDW5cqbht7IBetuaKnQhffakkG6m5tejQ3REPhspgMBiM/y4sKw6DwWAwGHpG7Rksg8FgMBgMfcCCK4PBYDAYeoYFVwaDwWAw9AwLrgwGg8Fg6BkWXBkMBoPB0DMsuDIYDAaDoWdYcGUwGAwGQ8+w4MpgMBgMhp5hwZXBYDAYDD3DgiuDwWAwGHqGBVcGg8FgMPQMC64MBoPBYOgZFlwZDAaDwdAzLLgy/jnIZLyJ8B9LqKzKFP8MBuO/iPbgKpfg6g+fYcNb72Dzt+dxu1Z1/rFBjoJft+PTX/JUxy1BhqxtoQjenE4/ZmFbaDA2p7PlUAhZ1jaEBm+GNhVVHp4L7+hfVUfa0aW9BmoQ985wOPYaAK/FR1GpOvs4IC/4Fds//QV5alFffucAIgaF4Zvch9wKVB7GXO9o1QEfar6rNypxeK43on+t4R2Tgmbl+oegj3E8pmvGnzcHWwBbTxVoCa5SXFo7Cv4br8LAyhRFsbvxfZpUde1xgaCy6BZuFVUpjmpOLkL/oN0oVhw1B0FVYTYyC2ldUoXC7EwUVv0HUtvWnMSi/kHYrZuS6iFVhcjOLIQ2FckluUjPLVUdaUeX9uqpTcR331Yi7Ls4nHrvBd6E+vzU4OSi/ghq6WBbAKkswq1bRWrjkCLtUCxsVn6IibYP+WCIbmpz03NVB3yo+a7ekEOSm47cUsIzJhXNyvUPQR/j+JPWjJatYU350+ZgS9BBN486zn8CwrNffhcXzmTi2ZnrsPDV+Xhz21a86mrIXUBJ/G4smx6K0OlLsSte0vhRnbwYZ3btxamLB7D21QhMjdqDhPIH10oQv3sZpoeGYvrSXYiXKGvKC07j0+iZmDx5FlYfSEGFomg8di+bjtDQ6Vi6Kx7KolLk/PQu5oSFIGLBVpwrIbCysYd9Z0vIi07h8y9+Q1bCQby1YhOO3SxHxpEPEDl9EkLC5+H947k6PqbjGR+V+/edm3HshqoFWQ6OfbIHF8srefuQF5/Brq9iEbt5DsIX7UNmfcdy3Dn5OXaeKVbqTHoN+z+KUZwvPrMLe09dxIG1ryJiahT21CtNDXkBTn8ajZmTJ2PW6gNIUSiqFAlfr8IrYRMxefY6HEpVnORvT16EU59/gd+yEnDwrRXYdOwGCmm5r2JjsXlOOBbty1TULU34GqteCcPEybOx7lCqwh5CyPJj8cFrEZgydwN+vq22+RKwNR+VGUfwQeR0TAoJx7z3jyNX3VC0nTM7t+PXvCKc/3w1dsdVCJZv7EfXcOPU5/jitywkHHwLKzYdw438k/h85xkUq3zp2v6PEJNBKyt89ivExm7GnPBF2Jcp5DtyFJz+FNEzJ2PyrNU4QA1gYGUDe/vOsDTgLnO2WIuPzpYi9+hn+F6bLTSR5SP2g9cQMWUuNvx8m0qnogV6VPjdvjOI27cS0ydNwcKtZ1GkKC40Z2XIj/0Ar0VMwdwNP+OB+RqNSUiuFvqJNOcnvDsnDCERC7D1XAmtfgcnP9+JM0pj0KmwHx/FZHCDUNji1IVvaNtT8Or6/8PNe9ewj64FYTNWIyZL9fisMgNHPoik4wxB+Lz3cZxzAm1rj6B++eaPBi2wge5zlCLNwU/vzkFYSAQWbD2Hu3c01zAZrZqAr1e9grCJkzF73SHwiSc0B/nXUAF0lLFErQ1hf1ODx05N12rhcTbxGz4Ua8THOFq/Pt/A0c10fb6vPPy7EA6uImt4jOiF08tDseq7ZNxTKU2WsxNTp+zHE2ErsDTQEHvCZuOAukapc/26hTrxsvPoGhiCnklLMH1DIr0gQ87OqZiy/wmErViKQMM9CJt9gJ7OwMdhU7Bf7IuZM3zQOu0ScmpysHMqPfdEGFYsDYThnjDMPlAElB5A5Gvn4LxgLRaP6QbDOjlux27H1hN5ELXuBEd7a5hYdIGLqwvszG4hMd0Y7jOWYEmwKfZPi8b/eNY0TXjHV9wKdQkfY/kXVxWTUpqyC6u2J4MY5vL2wT1W27LgJbyT44GpAX1gxS1SCuTIPb4V237JVy5u1Zfw9XqqA3pU8OsWusgtw/mugQjpmYQl0zdwJdSQIePjMKo/MXxnzoBP6zRcyqnBjR3hmPBJGTxnzkOY81Us8ZuHw3QW8bYnao1OjvawNrFAFxdXuNiZ4w4tt+Cld5DjMRUBfayoX+5A+IRPUOY5E/PCnHF1iR/mHZaoZNBAdh2bw19CjMU4TPWV46vtsfReUXGB39a8yJCbmA5j9xlYsiQYpvunIVrdUFTmJ3t2Q3sqs41LH3RvL+Iv38SPruCutSPsrU1g0cUFri52ML91HFu3/YJ8pfJx6ev1OJBcp/LZBXjpnRx4TA1AHwt+35FlfIww6hti35mY4dMaaZdyUHs7Ftu3nkCeXNYyWzRChuubw/FSjAXGTfWF/KvtiFUosiV6VPndnEmIvtCNBlFPFH8UisWHSwXnrOz6ZoS/FAOLcVPhK/8K25WdQq42Jn65qGQt8ROU4kDkazjnvABrF49BN0NO57k4vnUbflEag06Fr7H+QLLKFvMxZdUVOE14AUYHpsB7+BJc6hUCf4sjmPX61yikVWS5iUg3dseMJUsQbLof06L/h3Ita4+Qfvltxl17QMt8Wfc5yi1nkXjtnDMWrF2MMd0MIWuyhuVgR/gEfFLmiZnzwuB8dQn85h1GY/EE5iC9AeBdQ3kR1oOmjNRy9Qj5mzp8dqrQeZw8fsOHyAzypE+wbEeCcn2++gVWfJYCYqy8/Heh5bmVIXovjsH/rXLG5WXD4Oy5EIdz61D4437E2Q6EvSQVGVUOcDY/j9jLGoMW2SH0rfUI8x6F2SH9cSstnVqiED/uj4PtQHtIUjNQ5eAM8/OxkOcdQ0zmMCxaNh4enuOxaPlkOJX8iP1xthhoL0FqRhUcnM1xPvYyFckC5vIsxF8qRNvBvhjQUU18s57wcLND6/auGB0wAi7tnDFhQThcRQXIrbFGZ3EeclS7ZGHkAuMTYXDIGFQfOYREqRQph45CPnYi+rVyFOzDwNofS9cEw2twL7TT6emgCHahb2F9mDdGzQ5B/1tpqvMq5Hk4FpOJYYuWYbyHJ8YvWo7JToU4/E0iPKLWItRzEHxnrcN0m+OIOVtNK/C1Z4aeHm6wa90erqMDMMLFipYygLX/UqwJ9sLgXm2Qf/gbJHpEYW2oJwb5zsK66TY4HnOWhqKmyIuO42jqEMyJ8oenXyR2LPWGieICv635EcNxwgKEu4pQkFsD685i5OWoPywyhcOQwbA3t0bvUf4Y0rUVb3k+P+rfywNudq3R3nU0Aka4wEqbHQys4b90DYK9BqNXBz7fkSLvWAwyhy3CsvEe8By/CMsn96KzRIU8v4W2UENehONHUzFkThT8Pf0QuWMpvDlFtkiPSkR2oXhrQwS8h4VjYUh7nD1xCbm8Pl2DouNHkTpkDqL8PeEXuQNLFZ2qISQXnSct8RNuLbEwlyMr/hIK2w6G74COqvMC0PVj4pp1CBkegGl+tjDzWYq3Qn3gP+1F2GWnIpuuoGLHCVgQ7gpRQS5qrDtDnJejfCLBu/YI6VebzVS0xAYtnKOGFuaQZ8XjUmFbDPYdgI4Wjdcw58oj+CbRA1FrQ+E5yBez1k2HzfEYNBJPYA7KCwXWUD606KGJjBpzqKm/XVFtsJXw2qmVruPU1W9MMHhSAOQx+3GpVoqrh34E/EPQ7/ENrhxW6BP2Lg4nXMDbnfZj0YYzkEjKIC3LR3paGtLS8mAbFIXgp+uXGCUGIohVp8QmxhDRHTCIBJIyKcry02k9WjfPFkFRwZDfk+C+uVWjhY9IJCiTliE/nesjDXm2QYgKfhow98OHMcvR9eR8uD8Til3XVY8B+KhNwAZfN0zcdAxxyTkorSMgpLmXC0RwfMYDgzGWHMGh+AQcOirGmKCnYailD5GZJSw11MJRfxPbBAOIGpQGY5HGRkB+D5L75rBSV5S8FJJyM1i1eVDPGu0sa1BRydVtpr16RDCztFQFCTlKJeUws2qjOhbDup0laioqlXfaGpB791Bh1gZtjZTHRoaq/gRszU8tEjb4wm3iJhyLS0ZOaV0zduIvz+dHTRBWPmcwWD4wGK9dZbgnuQ9zK25DwsOj2ILcw70KM7RpUKRS/y3SoxIDsRGUa4oBzM1bo7qqQsCnxbh3rwJmbdpC2asRHpivHiG5WugndOLC78MYLO96EvPdn0Horuv0nBZj1K8fBjAy4uQSK3RuYGgEI0LvuOnn2oQN8HWbiE3H4pCcU4o66gMKt+FdewTGodVmKlpigxbOUXO/DxGzvCtOznfHM6G7oLmcyUslKDezQkPVdrCsqUAj8QTmoOAayscjyNjU3yrpKtqAoJ3UEB4nn9/wY0jjwfjWR/Dt2TgcPGoM/6DeKt/8+xBeiuTFyM5WvZsx7oye3ay4JQI2PexhbOqCsMhoREdHIypyJrxtxIoqWhHboIe9MUxdwhBJ60VHRyFypjcMbRzQpfgy4m5xVpOjiDrC3Sd7wN7YFC5hkYo+oqMiMdPbBpDVwtgpECv3nsI2zzjsPqzxpQRjI4hrq8F9zUOWdQzf3xyOt3duwKq5I2GvsSnnRyw8PsO+CB5jhMNvr8WR1v4IcjZ8iD44BzTF3bw8GiLoXfLpc9D5O2KGNnDoUozLcbcUi4u8iE6aYhs4di1DQpzqnaDkNM5m9EDf3toEMYaRuJZOAtVhIwxh69gVZQlxqveYEpw+m4EefXsr70g1EHe2R5fKVFy9TQvLJYi/cl35LkvA1rzIsnDs+5sY/vZObFg1FyObU6JAeT4/ukOd19hIjFrVYA3MzWF6Nw95tbRE4WmcE1A+v10NYePQBcWX46DsooguWncagomh7UPYQoW4M+y7VCL16m1aVw5J/BVc50RriR5VyAqu4KLiveQ9xF++AXtnFzzF69PG6GzfBZWpV6E0XzyuKDpVQ0gubX4iL8G1kxdxs9G/LJCh1tgJgSv34tQ2T8TtPswZA+amd5GnNAZOn0tTe5/bHDJkHfseN4e/jZ0bVmHuSHte/6xHaBy62KwlNmjhHJXVGsMpcCX2ntoGz7jdOMx9u1xtDTO0dUTXsgTEqb5UIDl9Fhk9+qKReAJzUGwjsIbyoUUPvDKq0dTfnFSbNQ4tdtJpnDx+Q+1Xcu0kLjZ2MNqIM0KDOuLHN5fiB4txCHLSISb9yWgJrrk4OPM5uA59EWOfH4Twn5/FsrnusBxLnct8K0YNG48weivu4zUfMervMunOUSSiO80HLdPPhmJuoJYYSw1svnUUho0Pw6QAH3jNjwHajsOiV6R4f4Q7Ro5ww4ioEyh5YixdAMyxddQwjA+bhAAfL8ynnUhTP0TAQB8EhozHG6cdMd7XlvZDd6qqzoyc3NA7YxOCX5yGbeXu8GlzDJGTJiMwbCcyW1FjitR3y3Sr8KCumszC4zOES0ggrE78AqvxE9CdDknc1Yu3DwPakEhM/xT9qCOGw5gQdD86E0OfH4Ggz4rxZDvOFdVkUUA/0916Y9pi3KJXIH1/BNxHjoDbiCicKLGEf/RCmG7xxZDRY+DlvhCZE9fhZSdD4faMnODWOwObgl/EtC1XIW9UDrDyj8ZC0y3wHTIaY7zcsTBzIta97ARDWqbJmCz8MHdaFb3LG47RPmOxMdca7Y24EgK2VqNeR+Ku8PJpg2ORkzA5MAw7M1vR4N+oF1pYDDFXljstVJ7Pj4gRnNx6I2NTMF6ctgXJT41BSPejmDn0eYwI+gzFT7aDQlwNnxWya9txi/CK9H2McB+JEW4jEHWihKpWNQ5YtdwW9VjAb+40VNE78uGjfTB2Yy6s23N+IaRHTX9pwMAgF1+EecHXZygWpfjjjQh7tBXwaQu/uZhWRe8sho+Gz9iNyLVur9BHg/8KySXsJ+LqE1gTuBgH85QLpQJpKj4MGAifwBCMf+M0HMf7UiU7YExIdxydORTPjwjCZ8VPop2y80a2ENG1QyRS3YNwd7D0Gvd/Xb180OZYJCZNDkTYzky0opsoTif8a4/QOIRspm4fARtornMKWjJHCVI/DMBAn0CEjH8Dpx3Hw7eLqNEatuWmH6IXmmKL7xCMHuMF94WZmLjuZTQST2gOWvKvoeo02FlID/wyqsPnb+J63QjYiS7DOo2T8PgNqnFiTSAWH9T855di2AcHo9vlC7AeNwEOmlPs74BopZoUXk8iiWn5pFyqOqWghty9nkjiE6+TwmrVKV2puUuuJ8aTxOuFtPUHSElZzjWSkFZAqlRnOGruXieJ8YnkulondSVZJCkxjRRUqE5owNVJuHqTlMvoQV0JyU7JJHdrlNd0pwXje4g+pCXZ5Nof6uPXHWlZDrmWQMevrqiqOyQ94QpJvS2gFE04GyRcJTcVSuKjitxJTyBXUm+T5lusIyVZyY1sVA+vrfmgbWSnkEydlShUns+POFsmkKs3y4litFJqr2t/PLxdpWUk51oCSWtkADVaags1ON9O5tOVjnqsu7aaPNdvObksuUWSqe82ll3Ap+k4s5K1+7mgXDx+Ijk8jQwI+pLc1HQtrp+kRKo3db1IqR2vkT+aNQY/dXQepWTepSPTDcFx6GIznX25JXOUmzvc+lrQaJ41WsMoVXfSScKVVCIsnvAc5FtDBWmBjBza/a0BITvpNE5Nv5EcJtMGBJEvmzgYRXKQhNn7ki181/4GDLj/qOIsg8H4ByNNXgOPiDpsPb8aff+WF04V+P2Tj1HsH4kxNo3vcBj/Pv4Of6v4/RN8XOyPyDE2jZ+iQY6iLyfg2W98ceGHmej8GLgfC64Mxr+F2gKkZQH2Tp20v4NkMPTBY+Zv1bfTcMPAHk6dHg/vZ8GVwWAwGAw9w57dMBgMBoOhZ1hwZTAYDAZDz7DgymAwGAyGnvn3Bde/It0RS6nEYDAYDC38+4KrQLojXVMc6VTuv5SijsFgMBgtRryKovrclNIr+PKtVXh/11GcvXQBv6eLMGyAHUri92Ddinfx+eHLKO/8LFw7twIpPoPd399AbfqXWPfuLpwufwpufbivaHPprgTKf3cdJafex8r99+A6yARnt6zHu5t34ODJHJg/7QYHS6D4zG58d70Ep95fif33XPF877Yq4aBIqbRn3Qq8+/lhXC7vjGddO6MVKcKpL/4Hud90DOuk3DtwKY62v7sN38Xl4n5RIeQOA+BAkrDvnVVYv+1b/JJO0K1fL7S717SczZ2j2Lz+XWzecRAnc8zxtJsDLNG0Dw4uFVqTsvWXudRjuxFzsw7XdqzEO7tPorDDs+hnawYDLi3TZs2x04p8+nep5eMq6aYAAC5dSURBVCmrXU8MBoPB+GvRcudajdhlYdhaF4ioBZ4o+e4gss07CKavUqQfei0Cy853RWBITyQtmY4NiVLt5dXSslnc4kkhRQMSl65LPSVaPS1IqdQ0HR1/iqN7muWekGtPh9aIZlKnqcYyZ1I0LnQLxXTPYnwUuhhchibe9FlC+uctq0VPDAaDwfjL0RJcK5B1oxa9vTzRq68PnusmRasO9lpTzinSD60Pg/eo2Qjpfwtp6dVay6unZevgLJBCCuop0dop6nG0KKWSRjo6wRRHYo20dVZGzaRDU6e51GkcytRjGyK8MSx8IULan8WJKzUC6bP49O8gUJZrm19PDAaDwfjr0RJcLeDa2wzfvT4Wk4LG4aOyUEweYqw15ZwB90PZik9imBiLIJcJp3DjUE/LJpyaSD0lWgMtSqmkgS6pnJS0JB2aLmUNIDZSJRnksoK0rkZVJREYO5/+TVqsJwaDwWD89QgHV+kf+L/fTDH13RV4dfFunIp9E+7mWlKy8aJreVnLUkhRWpRSiUPXVE5q5bhvBeucDk2nsjIUXLkIZYameFy+YQ9nJxH/2Hn1r7uepLev4LfEO6ojBoPBYPyVCAdXw6fwXF8J9i5bjjejp2JEb1cEbE4STMmmmWaNSw7NZXvSrbxQaiLh1FqCKZV4U0HpmOKIytuoXHIX/vRmfH3okjqN3rka5H6BMC9f+AxdhBT/NxBhb8w/diM+/SfrqCcZcvYtQNCSxmneGAwGg/HXIPzbwve/QXDv/yEggf6vJVBzYhZc1jjg+slF9GItijPTcKPCDHaODmiv5YZOiW7lpZIb+ENiAYdu7VTZ7ZuntjgTaTcqYGbnCIdmBOHKpt42hkMvW5jTOFRdmIH0fDk69nRCp9aqQpTG5aSQ3PgDEgsHdGvXnFTaykqRvMYDEXVbcOJlE9ys7ggnh4ZxNhm7Fv0/jJ4YDAaD8dchHFylSdjkF4RdIje42RLkXErHkwu+wReT7FUFGC3jQXDdivOr+zb/bpTpn8FgMP6xNJMVpwZFmem4WWaIDt0dYWvxOKR3/+dSW5CGLLQkJRLTP4PBYPwTYSnnGAwGg8HQM5rfuGEwGAwGg/GIsODKYDAYDIaeYcGVwWAwGAw9w4Irg8FgMBh6hgVXBoPBYDD0DAuuDAaDwWDoGRZcGQwGg8HQMyy4MhgMBoOhZ1hwZTAYDAZDz7DgymAwGAyGnmHBlcFgMBgMPcOCK4PBYDAYeoYFVwaDwWAw9AwLrgwGg8Fg6BkWXBkMBoPB0DMsuDIYDAaDoWdYcGUwGAwGQ8+w4MpgMBgMhp5hwZXBYDAYDD3DgiuDwWAwGHqGBVcGg8FgMPQMC64MBoPBYOgZFlwZDAaDwdAzLLgyGAwGg6FnWHBlMBgMBkPPsODKYDAYDIaeYcGVwWAwGAw9w4Irg8FgMBh6hgVXBoPBYDD0DAuuDAaDwWDoGRZcGQwGg8HQMyy4MhgMBoOhZ1hwZTAYDAZDz7DgymAwGAyGnmHBlcFgMBgMPcOCK4PBYDAYeoYF1/8A8ns3kJpTrjr6+5AX/IT1c17D5t/v0QMJkg7vwt5TNyFVXX9Ao3IMBoPxD+Qhg2sNjs3sDs/16ZCpznDnYuc5Y9DqJNXxvwz5Hfz03kp8m9Ew4n8GMqR9EoLBM75UHf99yG//jq+3f4oDFyVAbSzeiZiGlyL3IlNDpY3KMRgMxj+QhwyuBLU1VaiuldJPDdRWV6GqtlZ1pKKmCBlX03GnWnUsREU+UpNvoFSx0MpxPy8FV7MkGnc11biTnojEjEL6SY3aEmQlJSI1/z6tqUb1HaQnJiKjkKfzynykpd1uaIe2kX01AUmZRXSbwIO8EBf2f4nYbI37LEW9RKTklqttNB5QjYL0FNwoVdWpLkDatWxIGjUhR8XtNCQmpOF2RSPpm0degdtpiUig42hSVSZBdnIWSqRi9FpyHpKfX1Vd4KhFSfZVJKbkoryR0LUozkxC0vWixvrVpOI2UpOa2rT6TjoSEzOgqe6awgwkpd5GlbqMpi9i45kzOPfNXDiKlad4yz1A0D50LFlJSEzNx/0Wqo/BYDD+NMhDUUX+F96ZDFh9jdSpzhBSTY7NeIr0WRqnOCr8bAxxGvsyCXHrS/r1tiFtukeQb2/JFNfqqTlNFvWyJH2DppFhnY2IgYGYtHnudbLhjaGkk5EBMRBZkgHLT5NyWlSWF0MWuLUnRgY0nhsYkQ7uS8kvd2Wk7tpW4v+UKTGgQzEQWZFxe+5ypUlezALi1p62yZ036kDcl/5C7spqyOlFvYhl33Fkgqs5MTAZRT4rlpH8HyOJRydjRVmu7fZur5Mf8tVkld0kO0J6EGtTI2Jl0504jnqPJNGBS06vI77dbIjjwEHE1aYD6RW+h/zBKaTwMzLGaQyZETSQ9O3nSDp09CQrv/yQBA98hvTr2Z60c1tJzlYo2/0yog9x6udNRg3vQ2xsvMmGhBpFlw8o3DWO2Iz4iGRJlccVP80iPQetJolZX5KIPk6kn/coMryPDbHx3kAUVbm+nceSl/z6kN4DRpJVZ2roKT9iM3G/sgHJabLOtxuxcRxIBrnakA69wskeTmjZLbJ/am/a9lgSMPI54vdOgpptKZytnC2Ja0AE8XyS06sBMbEPIrsyqWCyPBKzwI20pzYDPW/UwZ0s/eUutUINSf50HHnKhJ43MCVP9XMlHcTGxHNjNm3vdxLpYkbaBH5FSrWVo60I2qfuGtnq/xQxVfiEiFiN20M46zMYDMbfzZ8UXGWkYIsPad1tMvk2m5aQZpGNXlbE55M8ZdEHVP9CXu0qJgatnUno+1+TLeE9afA0IGZPh5NNX39CwnoYEXHnaeTH6vu0bVtiaDWcrL+YT2789BrpbWRCBr19jVxe3ocYmbiTt5OLSX7iT+TXlCpC7h8jM2wNidXw9eRi/g3y02u9aZlB5O20CvLLq12JmC7QXQM2kIM/nCXZ947SsmJi0mc+OZZTTP7YF066GRqSnq+foUu+GnVJZFV/ezLzp2rV8WWy4lkbMubzG4SLe7LiH8mM7p3J5O/KiKxgC/Fp7UDCD+TQa/fJiVe7ERO6uTiQQ0veP0Fe7W5PXjnOtVNNCm7dUfVzn/w47Sny7IoriqMHyAp2kjEdPMh7f3C93CdHaJl+K2jgqy4gt+6oJLz/I5n21LNkxZU6Zd+mbcnzH6epbMPZYgRpE7CXfq4jl1c8S2zGfE5uKIUmP87oTjpP/o6Q8i/JuLajyefFikpNeWCrVk4kdONB8u2qEaSDyJA4zDtJSo7NILaGVmT4+osk/8ZP5LXeRsRk0NskTXKITOogIkY9JpGPD3xBooY/SQwNVEFT1Z7JqM9ISZmWcveF7VNxeTnpQ/3A/e1kUpyfSH76NYV6JoPBYPz9CD8WlqVhz2shmDBhAoImLsF3eS195mYAk74j4dfVEBB3hlN3S9y7W6K61hjjoa/j49cnYurEoeggMobP4i14beJUhHhaA6UlkNRk4PcLBSCm5YjbsgSrvk5GtViK7IxM2D3TFx1l57A+YBLWxBqim4MppBm/40IBgWl5HLYsWYWvk6shlmYj4486ZYdG7nj94wUY7zcIXdJP42yBCK4TZmCEXVt0HzcRwzsS3Ei4gmItQ5YX/o4zmc/Af/xT4J5qitp6Y+RAKRIvZSiuG5j0ge8LdvRaKzg5PQXzZ0bhBTtaslUP9OhyH6US7nmsCawNs3Fg/RuYM2MuPrtcicr7FYr6DxB1HIMgjz/w/aHrkFX8iu9+6YyAkKdhaGINw+wDWP/GHMyY+xkuV1bivurZsIHpUIS/5Aiq+cbIC/H7mUw84z8eTymFhvfIgZAmXqJyDYHf0KtY+cJUvH3oKiQCYzf2orZaMB5Bi2bA21KO3NQkXDpzAQXEFOVxW7Bk1ddIrhZDmp2BtOTLSJKI4To5Gq8ETsGa9dPQq4lQgDRduJw0Rdg+ki7PoG9HGc6tD8CkNbEw7OYAU2U1BoPB+FsRDq5iW3i9NBevvfYaXpsbikHt1YsawNjYENWV6oGAoLq6FiamrVXHjRGJRNxdsuqoKQbcfwzFSoEMuCMDiGkdBfI61EkJDFp3hnNvV7j2fQGz3t6IDTOeQ7txn+LUkQ0ItfsDexaOwshlv6Oqrg5SYoDWnZ3R29UVfV+Yhbc3bsCMgcbK9gxM0aqVsm25oiwnn+rFHw2HXLcGhobaX0hLpZATOf1THVNEYhGMxEaqowYMDNRbMlAMT1Gt5iyWPh+EHaUuGB0WgbF92ij10Ih2GB08DDnfH8SV49/h16fGI7inmFZdiueDdqDUZTTCIsaiTxu1mrQDhQqbIIWUCixvLDRERnTsYntMPXAZPyx4CpdX+sD99RPg/34xbZv7H8VTD3okFoNQXRCD1ujs3Buurn3xwqy3sXHDDPQTSSHjyihqCSOXCZfTZh/DduPw6akj2BBqhz/2LMSokcvwO+8LcwaDwfhr0RI/zGDXdwjc3d0xZPDTeFIVl5QYwbV/L+Qf3Y+zpcoz8oIjOHTaHG7uDsoT+sS4B/q4PAFScg8mgyfh1VenYKxbN9h2sELWD3tw1nIC1n/1HgKflCMn7Q/IevSByxMEJfdMMHjSq3h1yli4dbNFh3ZNh2vs1BdPW8hw9fBeXCy+jxsxX+Hn24bo7T4EjYobmMDUuAr37yu/jSTq9Cz6dErEzz/dVnyJSl58AkfOtcZAj+6K67ogL76EuJt9Ef5GOEZ5OKJ1bbUy6GpgNTIYPvnfYvHGWHQPDIS9WI7iS3G42Tccb4SPgodja9RW89XUQNQJz/bphMSff8JtpdA4ceQcWg/0oIG+BMWVbfBM8Ep8ud4P5efPI7fpN7RQe2oTXtu0H1+/tRXHy8To+ewA9O3jgidICe6ZDMakV1/FlLFu6GbbAU/2dIGjOdXttx9gD/WVt1bsQqrG98E4jLsLl9NmH6sbP2DPWUtMWP8V3gt8EvKcNPxRJcPNk3txMK5Y2QCDwWD8HSifDj8E1VfJ9onOpP2TvcigoYOJs81TxGvpz+SO6ntAd7a/QDoGf0u47+1w7xZ/ebUnGbQ2WXFUT81psrCnMbEYt4eUcoe/zSc9jJ4gE77halWT2LndiJHVRHKAHlZf206Ce5oTEfflFSq2gYkdeeVoBUndNJy0ESu/SCNu048sPFZIZLTute3BpKe5SPklGO7LN3avkKPVNeT0wp7E2GIc2cN1qECjrEEr0tVvAzlfprpcTxU5udCZWHV5lngEbiCX62Tk1vezybOdbIirhyd5xs6GDJgfQ/K48d/ZTl7oGEy+VQxeRm5v9SVPTjygfB8oyyObR9iQsO/okTSNbPV7inR9biwZ6zOCTPTrR/pEnuNKaXCf/PRKV6oLP/K56otW0rStxO+pruS5sWOJz4iJxK9fHxJ5rkajbyUPbMEhu/U9mf1sJ2Lj6kE8n7EjNgPmkxgqtPT6ZjK6x9Nk6KjnyYBu3cmYLcmNv9CkekdqaNebPG0lproSEYunXyX/4+Spvka2B/ck5iLODpwOTYjdK0epZu+Tc2s9iTVnH3rOfnQIGdbRjAzffEvD9lrKabGPNHUTGd6Gk4X6g7gN6bfwGCmUlZAvA6yJw9xflHIzGAzG34AB9x9FlH0oZCjPTUXabSnaOvSCQ7tGt7f6R1aOm6lpuF3dGk/2cISdJfdijspwMwXpxUbo0rMnOpk13G7Kym8ilfvnNq2fRA9HOyiKCyC7l4OU9DsgHXqiV1erpu8rOeT3cfNaKkqtnPG0nbnitl9+PxcpqXdgYOMM585m2h8l8yGnY7qWgfsdXNCrU8veGMrp+K5l3EcHl15oUVU6jtyUVNwxsIGzc2c8UJns3k2k/FECEzsn9Oyg0WBNLGY7PY8dzp/i5pdeyLsJ2PXujnb1iuLswPlCNVo/2QOOdpYqHcpxL+carle0h0uvJ7W8E9VeTsg+nI1T0oth1KUnenZ6CP0zGAzGn8AjBlfGfwa14Hr76HS0UZ1mMBgMRlNYcGXohrwIFw9+h2ttRyDcpxv/nT2DwWAwFLDgymAwGAyGnmGvqBgMBoPB0DMsuDIYDAaDoWdYcGUwGAwGQ8/8q4LrPzlfqDT5Kyx7/wSKtPzk4r8bOe7dSEWL0s5Kk/HVsvdx4r+rtEempbl+7/++GW98fkl11Az3f8fmNz7HJS5RlvwebqTmCPzqF+NvQ91GarTIzgxe9BBcH5/crv/kfKHSzBPYdeAC7v4pXy+T485P72Hltxk8afEeE2Rp+CRkMGZ8mac6oQPSTJzYdQAX/hyl/Qdoaa5fOSqSDuOzY+mqY+3IK5Jw+LNjSKe7W1naJwgZPANftvg3ylX8Y/MpP96o26iBltmZwY8egqvuuV1rijJwNf2O9lyhlIrbqUjiKff35AvVhMt5eg2ptxv/wL52alCYkYSkrGJaWx0ZSm+kIIM32a1QncYoxpSUheJGhTTzsspReGE/vozNbnQXL6+4jbTEBKTRsWiqRCbJRnIWT6IFwRyyArlgBfPdylFdlIlrKbm4x10Q98KS8xL8/KqN8jI3wQXy3MpKbyAlg9+PakuycTUxBbmNE9U2Qtu4dYY3T3ELcvM+Sv5iqmu+HLY1xVm4eiUJmcXCHlxbnEn95TqKFA3y5fpVo6YQGUlJyGrsXMLIq1FE50ZK7r0mmzhxryU4L/kZr9o0LDn8vqukyVohlE9ZFxkF5NLqK7z21THfcSN0yelM0UnX2taEGhRlXEW61sTZuq0pLYWbxylNfFT7XBBcX/5NcP8U59FoLv1cIflsjBMZ+3IIcevbj/S2aUO6R3xLmqZ2XUScLV1JQIQneZLLC8r9DF7QLsKlC/3b8oWqw+VJfXosmR5Ax9C/H7Fva0NGfXRVkS5OdnMzed52MuF+0ZCj+ugM4uD1HuGyxMlKfiOrhjuTp4f5kzGDe5JeE7aTFEWlfBIzuw/p2MWVDHjahQz17kvauq0lKdrqqCMrIb+tGk6cnx5G/McMJj17TSDbuUJN8rJeJlk7QkgPa1NiZGVDujuOIu8l1ZCbX0aQPk79iPeo4aSPjQ3x3pCgaJbLw+s89iXi16c3GTByleLcA2Q3BXLICuSCFcx3K7tNjszvR57s7ELc+vcgtv2XkTM11E/8bMjE/RVcRwJ5bqmtYmaTPh27ENcBTxOXod6kb1s3spZTGpGQ0+t8STcbRzJwkCux6dCLhO/5o/FPONL6QuNWR5s9BfMU65CbVx/5i3lz2Er/IF+EORMrQ25+gBgY25DRm9XnI4eM3No/lfTuOYiMDRhJnvN7hyTQAo1y/dYjIyW/rSLDnZ8mw/zHkME9e5EJ21Oor6unL2yM7PYRMr/fk6Szixvp38OW9F92RpH+cESbALKX+ylOOn/8bCYSzryCviu0VtTx5VMWkrExfHJp8xVh+/L4OLX55udtyeQGRyEzHLyU6SF1zeksqOvGCK4Jin7GkpdD3Gg/vYlNm+4k4ttbtNXGCNVvZKN61O1M58zm54nt5O9U6RyrydEZDsTrvT/o5wpy/i1v0qOXNxk7woW0M36CdO4fSX6pFJ4L2taXfxt/fnCVFZAtPq1Jt8nfEmVq143Ey8qHfKL4Ed4Gqn95lXQVG5BWTqFk48FvyaoRHYjI0IHMO1lD7v9N+ULVHVyRJ7WVLQn8Ip2Ojk7PH6aRrjZTyQ9cLMjeSIa2C6r/Pd+qmAhiowiUdeTy8n6kx/Qf6XSm1CWTtc/Zkam0Ul3cEuL65Diym9ODlG4eZjoRs4Ha66hTd3k56ddjOvlRWYgkr32O2E39gVTw5mWtI0mr+hP7mT8pZOeoLrhFGtLBTiNPPbuCflLm4TVt+zz5OK3x0qxAIIcsby5YLflua85HEpcuE8hexQZGRu6mp5M7ddRPRrQhAYpZLpDnti6OLHF9kozbnUdrSUlezEziZDZQEVzrLq8gz9qMIZ8rE9WS4h9nkO6daYDU+I1o/nE3Rtie2vIUN5+btz4n7kPnL05T2L1JDltpGtn/7ockJiGPSAp+I6/T+WHUZznhTNNAOflyXFsyupGRBIIltd3yfj3IdKVzURdcS56z43xdKLjWkPORLqTLhL1EadK7JD39TqOFW/2zoO9qWyt48inzy6g4VMEvl7CvaLEvn4/LssnGoe1IUIOjkAgb5WZPsV7oktNZp3EIrwnKfrqRyd9m01JSkrXRi1j5fKL8jfN6tNdvLrhmbxxK2gU9+J34KhITYUPc1qaoxutJNmTRMdGbhS2+NmTSwfu0jNBcUOpXcH35lyH8WPiR87mqYWCCviP9oEzt6oTulvdwt4SvPWN4vf4xFowPwqIZ3rCU5yI1uQhpv/89+UI187kamA7AuKCeMKGfrYZ6os/9NKTkCz9+5LLOnD+fgqq0vVjw0kt4acZ6/HpXguzMYkguX8YNFx8834maQNwZz492gxW9ddZWpwE5is+fR0pVGvYuoGVemoH1v96FJDsTxSa65WU1sTZE9oH1eGPODMz97DIqK++rrhjAdGg4XnLkUaRQDlmeXLDC+W7TUHQxDrf6jsILT3LuJ0K7nj3RoZEnCuS5lVzG5Rsu8Hm+E60lRufnR8NNqTQU/n4Gmc/4Y7wyUS3aeo/EQGkiLmU0fv4mPG5dEcpT3Hxu3gc8fP7iPyCy48lhK3bEqLGOuH34Ayxd9gWulNNNc2U5yhvZvhWG+A3F1ZUvYOrbh3BVyDEo8uLzOJ9ShbS9C6hvvYQZ63/FXUk2MoUSHHO/3hV3C31HvQClSduhZ88OymtN0OK7XPM6rhU6ycgrl3UzviJgXx3zHaujS05n3cahfU0wMOmLkX5dYcjNCafusLx3F41UptOa8hAYGMPIsBJlZXQNlEpQco+qzJCbj9rmgpb15V9GoyWtEVrzuarT0tyuIohEylygvKgSkdLAzz33osYSQVb39+QLFVYOBx2HgRhirhrXKJfbVXFeHTlkMjFsPcMwbdo0+jcDq3adwPbwJxUyES7vqqpkA0J1HryLVCKXyaiJPBGmKDMNM1btwont4bAx0iUvaw3OLn0eQTtK4TI6DBFj+6BxOlg+uWgtoRyyfLlgteS7lUqppqiS+fpQIJDnVi6XKfL08uWq5dokcvqnOubsIxYZoXF6Xe3jroc7x2vPptTnKdYpN28Dimstzl88kMaHpjlsT2fvQbi7H5b8cBfWPXrB1pK2p6Z3JWLYTz2Ayz8swFOXV8LH/XWcEPrqLtWzjM5/zzClb02bsQq7TmxHuNr70sZweYI5XWgbcQOCvtukeS1rhU4y8sulm68oqbcvb75jrl0uP7KyrDYEczrrNA7d1gQFVF6RYu1UpwX1eVCMkm+Q4ifRpXMhvg57Fq59xuOw0xpEjaJrfjNzQWh9+bchNFso2vK5qqPP3K61OLXpNWza/zXe2nocZeKeePaZ9ujxN+UL1Uz/Smro5Po+i05ZOYr+7yfEte2NZzrTBdKyLb3LzkZGFm1Ulodjh89Bwnk33Sn37WODvJwK9BzsrtCl+5D+6NbGEFbOzuiYcganuS2wLB//d+Q8SrXWUReG3u317QObvBxU9BysLEPl7d+tDUS8eVnpbtzUGFX37yu/MEN3spfibqJv+BsIH+UBx9a1aD4drJYcsjx95rUXynfbE51ce6FtwnEcL+Su1CL7l1ikqNlNKM+tyMoZzh1TcOa0hFsukP9/R3BeqTR0erYPOiX+jJ+UiWpRfOIIzrUeCI/uajtkHcctaE8t6JqbVycE8xe3gyyraQ7b9NQr9E7UAE7jFmNeQHeY1PD1XIOS4kq0eSYYK79cD79yesfEl7CXImrXF31s8pBT0RODFb5F14D+3dDIBdURdYJrr7ZIOH4cSpNm45fYFOW1JmjxXVUJXjTzKesiI69cabr5iiZ884pYoq2lHNkZ3JogQ96xwzjXnKNooNs4dFkTtPBI9UWwbGsJeXYGlNPhGA6fkyh8W34rFr/l98PsDz7Hzm8O4dsNE+FI40SL5oLsJk7uPYg4oaci/2B0tI42RLCZ8h7edjmKwF4uGOw1BE/3X4Rbkz7BMk8TetkAhkbc4wNVcRqMDY3on5hv7yKmAe0K3gwNw9un6tBrxhrMedYQbQJW4p3ADohbMRgdTU3RtvswzN6XAWm7AEQucodF2k5M9QvHLgPqNB2MYGRMt6AGxmhlLIaxqQn1LS3l2gbizfUT0OXaOgyxtoB9yAGQkeuweX7vJj9ObyA2xa3tL+LZwW5wmx2HYasXYSj3jPiJUZgadB8fjByAIQPGYIeBCxxM6U4Yxhi8aD3Gps3Hc4NGYuyLPhjw9IvYlCKDicc8RD93FrMGDoL7gBexXe4MexPuwY5wHXWMBy/C+rFpmP/cIIwc+yJ8BjyNFzeloPbWPkT06wOvF3zhOe8UnokIQE96e203aBDaHJ0PT88JeD+xHZ6f4I7EN0fB398X4f8rQ3vaN2dLA0MjGDcYSw0ROj4/Ae6Jb2KUvz98w/+HsvYm3M0XZHx9tnLH4vX+uP76ADzjORT9n30FSX4fYJl3a5h4LcSb7nF45dln4e7WG77r4lGl5ieijs9jgnsi3hzlD3/fcPyvrD1MuI5MPDAv+jmcnTUQg9wH4MXtcjjbK2Uwdl+M9f7X8fqAZ+A5tD+efSUJfh8sA+2uAVFHgXFrIGjPpvoxosdG3B2okMzqqPskd2hkClORCYxVG1cT7ryxKUzQBgEr30FghzisGNwRpqZt0X3YbOzjHlvWZmH/XHfYWnTE+K8q0XfWqxjrMR4TnzHD+aUuaN97ITLaPQUjbo4pm1Uiu4V9Ef3Qx+sF+HrOw6lnIhDQ04jf3saDsWj9WKTNfw6DRo7Fiz4D8PSLm5AiE/IPE3gtfBPuca/g2Wfd4dbbF+viq+jUN1TMMa60+mch35VpWyvEdhg0qA2OzveE54T3cUUkJKOqqgJ+uYR9Rdi+vD4ufgKjpgbh/gcjMWDIAIzZYQAXB1MYUbOrj5dDZGgIY85PFEdiGBpy46RHgrpWFFQhvCZo9sMpz4j+NV5eW1BfQWM9PDFqKoLuf4CRA4ZgwJgdMHBxgCkdpKizBzysz2L7W+uw8o05COzXHQNfPwZJe6G5wOM/Zafw0fwofJlYpzrxL4J78aofpKTs5lVy8cIVcv2u6hsjLUD5hSYTMuqzO+TuH5fJ5T/uksavvGn7ObT983HkWk6p2jUZKb2RSOKT81XfZhNCezlp6Q2SdOECScyWaPSrpP7Ff7mEZF2JJ2l3Hnw16AFVJD85niTdLKc9aSC7T/KuXSTn41NIXrn61QqSf62lddSRkft516hO4klKXkMb0tIckhR3haTfUR+pjJTnJJKLiTlE2ZyM6pPTx+1m9NYYWVkOSYxPJrc1KvH3ScuX3yRXL1Kb5d3XGGM1KUyLJ3HUHo2+S/EAWRnJSYwnyZodUSryr5H4pJuqcahDx8j5YNw1kndfWGe6jVuLPYXQIvNDIaXtXaU+QMeTU9rglVJqg6S4yyT1tppO60pIduJlkqKtb2kpyUmKI1fS7+hkc9n9PHLt4nkSn5LHo2seqgtJWnwcSc7ntagG/L6rFVk51e9FkpjTUF4nGXnl0sVXGiPk41X5yQL+qDs6jUOnNUELj1K/Kp8kxyeRm2r1FF/083hP+S86KHUXokhv+1cI9z0tvc+FfyCPTVacmtjZcHp+B5w/vY2j0x+/bKHyO1sx0vkEptw6hFC+V8kMBoPxH0J6ZS3cXzyEpyZNQP+2VUj/4RskDNmOX9YPg6WqzH+Zxya4yosu4uB319B2RDh8ujV+SPFYUJOKH/fdgvPkEeim8bSPwWAw/otU3Pgd//fbNdypbYXOfYfBd6AtTFXX/uuwfK4MBoPBYOgZPXyhicFgMBgMhjosuDIYDAaDoWf+EcFVlv093py9AJ/Faf9J/ccTKZK/Wob3TxSpjhm8PDYpyeQo+Gk95ry2Gb/fk0OSdBi79p7CTbV/h6tEvZzqFIPBYKjQQ3D981POSbNPYNe2rfg+sVJ1hg8p0vYtxeyovUhushD+nUiReWIXDly4qzrWM/+SVFyPnJJMb8hx+/evsf3TA7goqUbsOxGY9lIk9mrmLWxU7t/3D+AZDMajoYfg+telnGugBsVZV3ElKRMN2bWkSP/pM2zb9iNSNfIpKVJLJSQhs6iZO9/aYmReS0VLsskJps2SleJGSoZGyioVj5JeipOR1r2uzBlG13i+VFza0j3JIMlORlYJ3w7kUVNa8aFb6im+lGRCKcEap00TogK3U5Oaylt9B+mJicjQzFuoGnvq7Soq8QNM8eLGMzhz7hvMfZC3kLfcA2pRkn0VCdQvNV2ttiQLSYmpyFfPEcdgMP69cN8WfjT+/JRzDT8wUUKkf3xBwpytiCGXcgsGxNhmNNl8rYrEL+tLjEVcPQMiNmxNRnCZLGT55MdID9LJWJWKy6g9cXv9B2WGDDW4NEhPj51OAvr1Jv372ZO2NqPIR1draH0tKaUE02Zx3caQ2X06ki6uA8jTLkOJd9+2yiwS5NHSS8lu7SdTe/ckg8YGkJHP+ZF3Lmc1TcVVI5TuibODMxn7kh/p03sAGbmKS73VwCOltCrcRcbZjCAfcdkxOCp+IrN6DiKrE7N0Tz2lnpJMMCUYf9q0BmrI6UXOxNI1gER4PqlI12ZgYk+CdmUSKa2bF7OAuLU3UqQWNDDqQNyX/kK4LG6kJpl8Ou4pYsKVN32K9HPtQMTGnmRjdhX5PdKFmLUJJF+Vaisnozb/kUR6dCLGKr80au9GXv8hn/ZaR65t9SdPmXI+aEBEVuPInrsKYRkMxr+YPz+46iHlXKPgmrafvPthDEnIk5CC314nvY2MSJ/lV8j9WxfI+lFWRGQxgqz9+TRJviMl94/OILa0Xp/5x0hO8R9kX3g3YmjYk7x+Rj2cKdMgtbINJF+kcz8tIiE/TOtKbKb+QC8Jp5QSTJtFP8ctcSVPjtutSPskzYshM53MyEAuuD5ieqnyL8eRtqM/J42zyWmk4hJK96Swgylp+/zHpGm2p0dMaUXb3jmmA/F47w9agvZ6ZBp5qt8KGvh0Tz2lnvpKOCUYX9o0darJL692JWKDVsQpdCM5+O0qMqKDiBg6zCMnS46RGbaGxGr4enIx/wb56bXexMhkEHk7TUrKDk0iHURGpMekj8mBL6LI8CcNiYEiaFYq2zMZRajraSlXRo7OsKXl+pD5x3JI8R/7SHg3Q2LY83VypoLavI8RMXF/myQX55PEn34lKf/dH61hMP4zCD8WfmxSznE/0t6A2HEUxjrexuEPlmLZF1dQTjcIleXlMLJxhWN7IxiIreE4xB29OhCknD6LApErJswYAbu23TFu4nB0JDeQcKVY45GeAUwHjENQT0UyOQz17IP7aUI/PM6hLW2WBJcv34CLz/NQZpN7HqPdrBRZIB41vVSrIX4YenUlXpj6Ng5dbayXBrSkezIwxdDwl9Ak29OjprQSdcSYIA/88f0hXJdV4NfvfkHngBA8bfgwqae0pY8z0i1tmrEXXv94AcYHLcIMb0vIc1ORdOkMLhQQmJbHYcuSVfg6uRpiaTYy/qhC+uUkSMSumBz9CgKnrMH6ab00fmuVQypcTpqC02cLIHKdgBkj7NC2+zhMHN4R5EYCrki64Jm+HSE7tx4Bk9bg/9s705ioriiO/2FQXAYdBAdhZGR9w8CMZW9xV3CDCRa1mWrTxq6xGLsR+6Gb/WBsTdH6waohNWkAm2it4lLr0tq4VIkm+gGYkaoNDALBKoqCDpY3p/c9B4FxZqJAWqT392mW++49956bnLnvnHn/Y35RiOb/sudwBj2eg+uAkZzrLv3mQEPxK5hi+gj7rwcjNj4cbtW1ZBz4W5Kqk8brTJcp2GvWp5/0wGxvSHJoXVpybiWlPMpmsXFFSS7MnS5aH+WlFJGv4Yfz+/H+hPNYnTUFH7jTDPMq9yRJXbmxy8uYj+BW0goIyjFjZu0e7LpwFLt/m4BFZgGKXkpPeZYEe3zZtAfTlO/MsDcKKKhDlqsbEaaHceJEJGa/jS82FOLNdD/mL5G1lC5wZ00nkl89tHNKxElr07XVmE99/NheC0Le1hM4ULgU2kvFKJg/D5/8/jRWvXM4nCfBS5QZKJJz3Z9S2YErFypw0ycOeavewcIYf3Spa0lBnhl5txqnfjqE8j8JcYkGBIgV2Lf9LG601mBv6RE0+hkxZXKQy8QJ7Sxo7ZE0lRx/4fChcxhjTGKr40lSyotslq8Ken0ILKdOyoLKYsNhHCi/JQeKvspLtTffwN3AJJhXl2Cd6Q47bdZBdJHi6pX0WV8lrSRU82DOasCOVRtwLGYxFkcqemcLW1vPkmDi48mm3T+Bje9uxM7v12LL0dtQCMlIY/5KGEVobvHHpJfykb9sAZ6NCoc6aBhiEnRQsn2y4+tiHNy5Fp99Z2X+dmWo53ZD45BoCIBYsQ/bz95Aa81elB5phJ+R+VdVg/3FpzH6hXUo/WoxQh21uMhOy6LtOLbvOif3zOFwBiHyzeG+Yq+goiV6GhsaTxnTJ5FeM4FmfHyEmuS8XBMVZYeQuTNvaf+V8oUMWlPlLH5x8iCv6kdao4FUCh924AwgQ36ZXHzUfrKAhKEBlFd8i1pPfkppKl9JMpuGRUynydHDSb/qNLWTSNd2v0oRcjHUMMr6poF1WklFZoGUUqETm6rP8AgyFZbTbeeYD5Dyf7MpIG4KTYs3UkZqJKmFl6lULs4RqansLdKpNJQ4KYmSc96gPOM0WlfNvhPrqWxlCmki02lurokyUxMoe32VnHPsuLSNFkUEU1T6ZEpKzqbXnzfQ1C+r5f7qy1ZSiiaS0ufmkikzlRKy15PLUrCuy2hlioYi0+dSrimTUhOyaX1VO13elEOxhuk0f04aRcXk0uYqKV95j44X6Ek1PpmmLi6k8/aLtMU0gSKeW0ALsmbTElMKPfPhGdbOxQ8uuB+TGdZURNkhZupyXz4JGWsesVmi9dBytv4qMn0rFfIwOjzZInWbTSHmHV2KON3HEa/SnhXJNE4zkaZOSyKtJo3e21tPYsdl2pQTS4bp82lOWhTF5G4meQke4sy5+mnJaFCRwgfkG2Cg/DLJHjtVFplJUEp7R4rxPuSvXU4HpVR16xlaMy1Ybi8VQOW8OJNCRmbSpqv36GSBQEMD8ohtPS/tWO+VRWQWlOTrLGgaHmGiwnK20zqstDEzUL6GnaApMKWAfr4mUnPJQgqOXilbzeFwBh/9+GxhEXfqrLjY2IEx0fGIDvJ41HVLlyqODSUz6mGDFsaYIDe5L3Z+vVkDS809qPV6jOuRv3Kgta4SlusjEWuMRqB8sYiWWguqmwhqIR4RqkdzfE1b5kH/yzLYtmXg8pX7CDPooJbSr07sjRZUXQ+ALiEcyh6HOQfaGqyw1NmhDNdBF6bsOhHfbUSV9TpG6RIQ3vMiONoaYLXUwa4Mh04X5tKnE0cbGqwW1NmVCNfpECY3YnOxWXCp2R/aOAHqzrk7WmGrtOKWSg+DltnguMPe/4FWdQLiey6Qd9yO2Ud6a4vsSwusTT7QMD+HjXTaIrbAZrmEZn8t4gS1y0PC23FsRRzmbNNjq60EM+ptgNaImKAun4t3bLBebIR9RChidVqM7vzK0YLaystoG8vsDPVip7d2zLZaSzWaSA0hPgIPt5rI1oB9fmPIeAjCOHROhcPhDF645Fy34Hr1x6XganJPM92Ca+NBDEDlQg6H8z9B8TnD+fo/xVc5FpqoNMzKSn+yXF+f8cEQ5RhohCQkRwd6S0JzBjy+UI7VICptFrLSXXLZHA6H8y/CJec4HA6Hw+ln+G97DofD4XD6GR5cORwOh8PpZ3hw5XA4HA6nn+HBlcPhcDicfgX4B1G1QVvBNAVmAAAAAElFTkSuQmCC;" vertex="1" parent="WIyWlLk6GJQsqaUBKTNV-1">
          <mxGeometry x="110" y="-410" width="471" height="516" as="geometry" />
        </mxCell>
        <mxCell id="MIntQTgX8ANp2xKSaKh1-2" value="Plato" style="swimlane;fontStyle=0;align=center;verticalAlign=top;childLayout=stackLayout;horizontal=1;startSize=26;horizontalStack=0;resizeParent=1;resizeLast=0;collapsible=1;marginBottom=0;rounded=0;shadow=0;strokeWidth=1;" vertex="1" parent="WIyWlLk6GJQsqaUBKTNV-1">
          <mxGeometry x="590" y="106" width="160" height="138" as="geometry">
            <mxRectangle x="550" y="140" width="160" height="26" as="alternateBounds" />
          </mxGeometry>
        </mxCell>
        <mxCell id="MIntQTgX8ANp2xKSaKh1-3" value="- nombre: string" style="text;align=left;verticalAlign=top;spacingLeft=4;spacingRight=4;overflow=hidden;rotatable=0;points=[[0,0.5],[1,0.5]];portConstraint=eastwest;rounded=0;shadow=0;html=0;" vertex="1" parent="MIntQTgX8ANp2xKSaKh1-2">
          <mxGeometry y="26" width="160" height="26" as="geometry" />
        </mxCell>
        <mxCell id="MIntQTgX8ANp2xKSaKh1-7" value="- descripcion:string" style="text;align=left;verticalAlign=top;spacingLeft=4;spacingRight=4;overflow=hidden;rotatable=0;points=[[0,0.5],[1,0.5]];portConstraint=eastwest;rounded=0;shadow=0;html=0;" vertex="1" parent="MIntQTgX8ANp2xKSaKh1-2">
          <mxGeometry y="52" width="160" height="26" as="geometry" />
        </mxCell>
        <mxCell id="MIntQTgX8ANp2xKSaKh1-6" value="- precio: float" style="text;align=left;verticalAlign=top;spacingLeft=4;spacingRight=4;overflow=hidden;rotatable=0;points=[[0,0.5],[1,0.5]];portConstraint=eastwest;rounded=0;shadow=0;html=0;" vertex="1" parent="MIntQTgX8ANp2xKSaKh1-2">
          <mxGeometry y="78" width="160" height="26" as="geometry" />
        </mxCell>
        <mxCell id="MIntQTgX8ANp2xKSaKh1-4" value="" style="line;html=1;strokeWidth=1;align=left;verticalAlign=middle;spacingTop=-1;spacingLeft=3;spacingRight=3;rotatable=0;labelPosition=right;points=[];portConstraint=eastwest;" vertex="1" parent="MIntQTgX8ANp2xKSaKh1-2">
          <mxGeometry y="104" width="160" height="8" as="geometry" />
        </mxCell>
        <mxCell id="MIntQTgX8ANp2xKSaKh1-8" value="PlatoPedido" style="swimlane;fontStyle=0;align=center;verticalAlign=top;childLayout=stackLayout;horizontal=1;startSize=26;horizontalStack=0;resizeParent=1;resizeLast=0;collapsible=1;marginBottom=0;rounded=0;shadow=0;strokeWidth=1;" vertex="1" parent="WIyWlLk6GJQsqaUBKTNV-1">
          <mxGeometry x="600" y="284" width="160" height="110" as="geometry">
            <mxRectangle x="550" y="140" width="160" height="26" as="alternateBounds" />
          </mxGeometry>
        </mxCell>
        <mxCell id="MIntQTgX8ANp2xKSaKh1-9" value="- plato: Plato" style="text;align=left;verticalAlign=top;spacingLeft=4;spacingRight=4;overflow=hidden;rotatable=0;points=[[0,0.5],[1,0.5]];portConstraint=eastwest;rounded=0;shadow=0;html=0;" vertex="1" parent="MIntQTgX8ANp2xKSaKh1-8">
          <mxGeometry y="26" width="160" height="26" as="geometry" />
        </mxCell>
        <mxCell id="MIntQTgX8ANp2xKSaKh1-10" value="- cantidad:int" style="text;align=left;verticalAlign=top;spacingLeft=4;spacingRight=4;overflow=hidden;rotatable=0;points=[[0,0.5],[1,0.5]];portConstraint=eastwest;rounded=0;shadow=0;html=0;" vertex="1" parent="MIntQTgX8ANp2xKSaKh1-8">
          <mxGeometry y="52" width="160" height="26" as="geometry" />
        </mxCell>
        <mxCell id="MIntQTgX8ANp2xKSaKh1-12" value="" style="line;html=1;strokeWidth=1;align=left;verticalAlign=middle;spacingTop=-1;spacingLeft=3;spacingRight=3;rotatable=0;labelPosition=right;points=[];portConstraint=eastwest;" vertex="1" parent="MIntQTgX8ANp2xKSaKh1-8">
          <mxGeometry y="78" width="160" height="8" as="geometry" />
        </mxCell>
        <mxCell id="MIntQTgX8ANp2xKSaKh1-20" value="&lt;&lt;Enumeration&gt;&gt;" style="swimlane;fontStyle=2;align=center;verticalAlign=top;childLayout=stackLayout;horizontal=1;startSize=30;horizontalStack=0;resizeParent=1;resizeLast=0;collapsible=1;marginBottom=0;rounded=0;shadow=0;strokeWidth=1;" vertex="1" parent="WIyWlLk6GJQsqaUBKTNV-1">
          <mxGeometry x="600" y="414" width="160" height="180" as="geometry">
            <mxRectangle x="540" y="480" width="170" height="26" as="alternateBounds" />
          </mxGeometry>
        </mxCell>
        <mxCell id="MIntQTgX8ANp2xKSaKh1-42" value="&lt;span style=&quot;text-wrap: nowrap;&quot;&gt;EstadoPedido&lt;/span&gt;" style="rounded=0;whiteSpace=wrap;html=1;" vertex="1" parent="MIntQTgX8ANp2xKSaKh1-20">
          <mxGeometry y="30" width="160" height="30" as="geometry" />
        </mxCell>
        <mxCell id="MIntQTgX8ANp2xKSaKh1-30" value="PENDIENTE: string" style="text;align=left;verticalAlign=top;spacingLeft=4;spacingRight=4;overflow=hidden;rotatable=0;points=[[0,0.5],[1,0.5]];portConstraint=eastwest;" vertex="1" parent="MIntQTgX8ANp2xKSaKh1-20">
          <mxGeometry y="60" width="160" height="26" as="geometry" />
        </mxCell>
        <mxCell id="MIntQTgX8ANp2xKSaKh1-21" value="EN_PREPARACION:string" style="text;align=left;verticalAlign=top;spacingLeft=4;spacingRight=4;overflow=hidden;rotatable=0;points=[[0,0.5],[1,0.5]];portConstraint=eastwest;" vertex="1" parent="MIntQTgX8ANp2xKSaKh1-20">
          <mxGeometry y="86" width="160" height="26" as="geometry" />
        </mxCell>
        <mxCell id="MIntQTgX8ANp2xKSaKh1-22" value="LISTO:string" style="text;align=left;verticalAlign=top;spacingLeft=4;spacingRight=4;overflow=hidden;rotatable=0;points=[[0,0.5],[1,0.5]];portConstraint=eastwest;" vertex="1" parent="MIntQTgX8ANp2xKSaKh1-20">
          <mxGeometry y="112" width="160" height="26" as="geometry" />
        </mxCell>
        <mxCell id="MIntQTgX8ANp2xKSaKh1-23" value="ENTREGADO:string" style="text;align=left;verticalAlign=top;spacingLeft=4;spacingRight=4;overflow=hidden;rotatable=0;points=[[0,0.5],[1,0.5]];portConstraint=eastwest;" vertex="1" parent="MIntQTgX8ANp2xKSaKh1-20">
          <mxGeometry y="138" width="160" height="26" as="geometry" />
        </mxCell>
        <mxCell id="MIntQTgX8ANp2xKSaKh1-28" value="" style="line;html=1;strokeWidth=1;align=left;verticalAlign=middle;spacingTop=-1;spacingLeft=3;spacingRight=3;rotatable=0;labelPosition=right;points=[];portConstraint=eastwest;" vertex="1" parent="MIntQTgX8ANp2xKSaKh1-20">
          <mxGeometry y="164" width="160" height="8" as="geometry" />
        </mxCell>
        <mxCell id="MIntQTgX8ANp2xKSaKh1-45" value="Chef" style="swimlane;fontStyle=0;align=center;verticalAlign=top;childLayout=stackLayout;horizontal=1;startSize=26;horizontalStack=0;resizeParent=1;resizeLast=0;collapsible=1;marginBottom=0;rounded=0;shadow=0;strokeWidth=1;" vertex="1" parent="WIyWlLk6GJQsqaUBKTNV-1">
          <mxGeometry x="110" y="440" width="220" height="112" as="geometry">
            <mxRectangle x="130" y="380" width="160" height="26" as="alternateBounds" />
          </mxGeometry>
        </mxCell>
        <mxCell id="MIntQTgX8ANp2xKSaKh1-47" value="" style="line;html=1;strokeWidth=1;align=left;verticalAlign=middle;spacingTop=-1;spacingLeft=3;spacingRight=3;rotatable=0;labelPosition=right;points=[];portConstraint=eastwest;" vertex="1" parent="MIntQTgX8ANp2xKSaKh1-45">
          <mxGeometry y="26" width="220" height="8" as="geometry" />
        </mxCell>
        <mxCell id="MIntQTgX8ANp2xKSaKh1-48" value="+ actualizarEstadoOrden(idOrden):void" style="text;align=left;verticalAlign=top;spacingLeft=4;spacingRight=4;overflow=hidden;rotatable=0;points=[[0,0.5],[1,0.5]];portConstraint=eastwest;" vertex="1" parent="MIntQTgX8ANp2xKSaKh1-45">
          <mxGeometry y="34" width="220" height="26" as="geometry" />
        </mxCell>
        <mxCell id="MIntQTgX8ANp2xKSaKh1-49" value="+ verOrdenesPendientes():List&lt;orden&gt;" style="text;align=left;verticalAlign=top;spacingLeft=4;spacingRight=4;overflow=hidden;rotatable=0;points=[[0,0.5],[1,0.5]];portConstraint=eastwest;" vertex="1" parent="MIntQTgX8ANp2xKSaKh1-45">
          <mxGeometry y="60" width="220" height="26" as="geometry" />
        </mxCell>
        <mxCell id="MIntQTgX8ANp2xKSaKh1-50" value="" style="endArrow=diamondThin;endFill=0;endSize=24;html=1;rounded=0;entryX=1;entryY=0.5;entryDx=0;entryDy=0;exitX=0;exitY=0.5;exitDx=0;exitDy=0;" edge="1" parent="WIyWlLk6GJQsqaUBKTNV-1" source="zkfFHV4jXpPFQw0GAbJ--19" target="zkfFHV4jXpPFQw0GAbJ--2">
          <mxGeometry width="160" relative="1" as="geometry">
            <mxPoint x="300" y="310" as="sourcePoint" />
            <mxPoint x="460" y="310" as="targetPoint" />
          </mxGeometry>
        </mxCell>
        <mxCell id="MIntQTgX8ANp2xKSaKh1-51" value="" style="endArrow=diamondThin;endFill=0;endSize=24;html=1;rounded=0;entryX=1;entryY=0.5;entryDx=0;entryDy=0;exitX=0;exitY=0;exitDx=0;exitDy=0;" edge="1" parent="WIyWlLk6GJQsqaUBKTNV-1" source="zkfFHV4jXpPFQw0GAbJ--13" target="MIntQTgX8ANp2xKSaKh1-1">
          <mxGeometry width="160" relative="1" as="geometry">
            <mxPoint x="330" y="169" as="sourcePoint" />
            <mxPoint x="280" y="195" as="targetPoint" />
          </mxGeometry>
        </mxCell>
        <mxCell id="MIntQTgX8ANp2xKSaKh1-54" value="" style="endArrow=diamondThin;endFill=0;endSize=24;html=1;rounded=0;entryX=1;entryY=0.5;entryDx=0;entryDy=0;exitX=0;exitY=0.5;exitDx=0;exitDy=0;" edge="1" parent="WIyWlLk6GJQsqaUBKTNV-1" source="MIntQTgX8ANp2xKSaKh1-7" target="zkfFHV4jXpPFQw0GAbJ--19">
          <mxGeometry width="160" relative="1" as="geometry">
            <mxPoint x="350" y="294" as="sourcePoint" />
            <mxPoint x="240" y="247" as="targetPoint" />
          </mxGeometry>
        </mxCell>
        <mxCell id="MIntQTgX8ANp2xKSaKh1-56" value="*" style="text;html=1;align=center;verticalAlign=middle;resizable=0;points=[];autosize=1;strokeColor=none;fillColor=none;" vertex="1" parent="WIyWlLk6GJQsqaUBKTNV-1">
          <mxGeometry x="560" y="140" width="30" height="30" as="geometry" />
        </mxCell>
        <mxCell id="MIntQTgX8ANp2xKSaKh1-58" value="*" style="text;html=1;align=center;verticalAlign=middle;resizable=0;points=[];autosize=1;strokeColor=none;fillColor=none;" vertex="1" parent="WIyWlLk6GJQsqaUBKTNV-1">
          <mxGeometry x="360" y="264" width="30" height="30" as="geometry" />
        </mxCell>
        <mxCell id="MIntQTgX8ANp2xKSaKh1-59" value="*" style="text;html=1;align=center;verticalAlign=middle;resizable=0;points=[];autosize=1;strokeColor=none;fillColor=none;" vertex="1" parent="WIyWlLk6GJQsqaUBKTNV-1">
          <mxGeometry x="340" y="324" width="30" height="30" as="geometry" />
        </mxCell>
        <mxCell id="MIntQTgX8ANp2xKSaKh1-61" style="edgeStyle=orthogonalEdgeStyle;rounded=0;orthogonalLoop=1;jettySize=auto;html=1;exitX=1;exitY=0.5;exitDx=0;exitDy=0;entryX=0.007;entryY=0.128;entryDx=0;entryDy=0;entryPerimeter=0;" edge="1" parent="WIyWlLk6GJQsqaUBKTNV-1" source="MIntQTgX8ANp2xKSaKh1-17" target="MIntQTgX8ANp2xKSaKh1-20">
          <mxGeometry relative="1" as="geometry" />
        </mxCell>
        <mxCell id="MIntQTgX8ANp2xKSaKh1-62" value="" style="endArrow=diamondThin;endFill=0;endSize=24;html=1;rounded=0;entryX=1;entryY=0.5;entryDx=0;entryDy=0;exitX=0;exitY=0.5;exitDx=0;exitDy=0;" edge="1" parent="WIyWlLk6GJQsqaUBKTNV-1" source="MIntQTgX8ANp2xKSaKh1-9" target="zkfFHV4jXpPFQw0GAbJ--14">
          <mxGeometry width="160" relative="1" as="geometry">
            <mxPoint x="350" y="359" as="sourcePoint" />
            <mxPoint x="280" y="369" as="targetPoint" />
          </mxGeometry>
        </mxCell>
        <mxCell id="MIntQTgX8ANp2xKSaKh1-63" value="" style="endArrow=diamondThin;endFill=0;endSize=24;html=1;rounded=0;entryX=0.5;entryY=0;entryDx=0;entryDy=0;" edge="1" parent="WIyWlLk6GJQsqaUBKTNV-1" target="MIntQTgX8ANp2xKSaKh1-8">
          <mxGeometry width="160" relative="1" as="geometry">
            <mxPoint x="630" y="250" as="sourcePoint" />
            <mxPoint x="510" y="359" as="targetPoint" />
          </mxGeometry>
        </mxCell>
        <mxCell id="MIntQTgX8ANp2xKSaKh1-64" value="*" style="text;html=1;align=center;verticalAlign=middle;resizable=0;points=[];autosize=1;strokeColor=none;fillColor=none;" vertex="1" parent="WIyWlLk6GJQsqaUBKTNV-1">
          <mxGeometry x="570" y="294" width="30" height="30" as="geometry" />
        </mxCell>
        <mxCell id="MIntQTgX8ANp2xKSaKh1-70" style="edgeStyle=orthogonalEdgeStyle;rounded=0;orthogonalLoop=1;jettySize=auto;html=1;exitX=1;exitY=0.5;exitDx=0;exitDy=0;entryX=0;entryY=0.5;entryDx=0;entryDy=0;" edge="1" parent="WIyWlLk6GJQsqaUBKTNV-1" source="MIntQTgX8ANp2xKSaKh1-44" target="zkfFHV4jXpPFQw0GAbJ--14">
          <mxGeometry relative="1" as="geometry" />
        </mxCell>
        <mxCell id="MIntQTgX8ANp2xKSaKh1-71" style="edgeStyle=orthogonalEdgeStyle;rounded=0;orthogonalLoop=1;jettySize=auto;html=1;exitX=1;exitY=0.5;exitDx=0;exitDy=0;entryX=0;entryY=0.5;entryDx=0;entryDy=0;" edge="1" parent="WIyWlLk6GJQsqaUBKTNV-1" source="MIntQTgX8ANp2xKSaKh1-48" target="MIntQTgX8ANp2xKSaKh1-16">
          <mxGeometry relative="1" as="geometry" />
        </mxCell>
        <mxCell id="MIntQTgX8ANp2xKSaKh1-72" value="*" style="text;html=1;align=center;verticalAlign=middle;resizable=0;points=[];autosize=1;strokeColor=none;fillColor=none;" vertex="1" parent="WIyWlLk6GJQsqaUBKTNV-1">
          <mxGeometry x="340" y="430" width="30" height="30" as="geometry" />
        </mxCell>
        <mxCell id="MIntQTgX8ANp2xKSaKh1-73" value="{abstract}&#xa;Empleado" style="swimlane;fontStyle=2;align=center;verticalAlign=top;childLayout=stackLayout;horizontal=1;startSize=42;horizontalStack=0;resizeParent=1;resizeLast=0;collapsible=1;marginBottom=0;rounded=0;shadow=0;strokeWidth=1;" vertex="1" parent="WIyWlLk6GJQsqaUBKTNV-1">
          <mxGeometry x="-150" y="380" width="160" height="128" as="geometry">
            <mxRectangle x="550" y="140" width="160" height="26" as="alternateBounds" />
          </mxGeometry>
        </mxCell>
        <mxCell id="MIntQTgX8ANp2xKSaKh1-74" value="- legajo: int" style="text;align=left;verticalAlign=top;spacingLeft=4;spacingRight=4;overflow=hidden;rotatable=0;points=[[0,0.5],[1,0.5]];portConstraint=eastwest;rounded=0;shadow=0;html=0;" vertex="1" parent="MIntQTgX8ANp2xKSaKh1-73">
          <mxGeometry y="42" width="160" height="26" as="geometry" />
        </mxCell>
        <mxCell id="MIntQTgX8ANp2xKSaKh1-77" value="- nombre: int" style="text;align=left;verticalAlign=top;spacingLeft=4;spacingRight=4;overflow=hidden;rotatable=0;points=[[0,0.5],[1,0.5]];portConstraint=eastwest;rounded=0;shadow=0;html=0;" vertex="1" parent="MIntQTgX8ANp2xKSaKh1-73">
          <mxGeometry y="68" width="160" height="26" as="geometry" />
        </mxCell>
        <mxCell id="MIntQTgX8ANp2xKSaKh1-75" value="" style="line;html=1;strokeWidth=1;align=left;verticalAlign=middle;spacingTop=-1;spacingLeft=3;spacingRight=3;rotatable=0;labelPosition=right;points=[];portConstraint=eastwest;" vertex="1" parent="MIntQTgX8ANp2xKSaKh1-73">
          <mxGeometry y="94" width="160" height="8" as="geometry" />
        </mxCell>
        <mxCell id="MIntQTgX8ANp2xKSaKh1-78" value="Extends" style="endArrow=block;endSize=16;endFill=0;html=1;rounded=0;entryX=1;entryY=0.25;entryDx=0;entryDy=0;exitX=0;exitY=0.5;exitDx=0;exitDy=0;" edge="1" parent="WIyWlLk6GJQsqaUBKTNV-1" source="MIntQTgX8ANp2xKSaKh1-67" target="MIntQTgX8ANp2xKSaKh1-73">
          <mxGeometry width="160" relative="1" as="geometry">
            <mxPoint x="230" y="340" as="sourcePoint" />
            <mxPoint x="390" y="340" as="targetPoint" />
          </mxGeometry>
        </mxCell>
        <mxCell id="MIntQTgX8ANp2xKSaKh1-79" value="Extends" style="endArrow=block;endSize=16;endFill=0;html=1;rounded=0;entryX=1.001;entryY=1.091;entryDx=0;entryDy=0;exitX=0;exitY=0.5;exitDx=0;exitDy=0;entryPerimeter=0;" edge="1" parent="WIyWlLk6GJQsqaUBKTNV-1" source="MIntQTgX8ANp2xKSaKh1-48" target="MIntQTgX8ANp2xKSaKh1-74">
          <mxGeometry width="160" relative="1" as="geometry">
            <mxPoint x="90" y="397" as="sourcePoint" />
            <mxPoint x="20" y="422" as="targetPoint" />
          </mxGeometry>
        </mxCell>
        <mxCell id="MIntQTgX8ANp2xKSaKh1-81" value="" style="endArrow=diamondThin;endFill=0;endSize=24;html=1;rounded=0;exitX=0.5;exitY=0;exitDx=0;exitDy=0;entryX=0;entryY=0.5;entryDx=0;entryDy=0;" edge="1" parent="WIyWlLk6GJQsqaUBKTNV-1" source="MIntQTgX8ANp2xKSaKh1-73" target="MIntQTgX8ANp2xKSaKh1-1">
          <mxGeometry width="160" relative="1" as="geometry">
            <mxPoint x="380" y="294" as="sourcePoint" />
            <mxPoint x="-60" y="230" as="targetPoint" />
            <Array as="points">
              <mxPoint x="-70" y="249" />
            </Array>
          </mxGeometry>
        </mxCell>
        <mxCell id="MIntQTgX8ANp2xKSaKh1-82" value="*" style="text;html=1;align=center;verticalAlign=middle;resizable=0;points=[];autosize=1;strokeColor=none;fillColor=none;" vertex="1" parent="WIyWlLk6GJQsqaUBKTNV-1">
          <mxGeometry x="-90" y="354" width="30" height="30" as="geometry" />
        </mxCell>
      </root>
    </mxGraphModel>
  </diagram>
</mxfile>
